<svg xmlns="http://www.w3.org/2000/svg" width="60.927" height="64.106" viewBox="0 0 60.927 64.106"><defs><style>.a{fill:#673ab7;}.b{fill:#fff;}</style></defs><path class="a" d="M66.927,61.2a8.69,8.69,0,0,1-8.462,8.9h-44A8.691,8.691,0,0,1,6,61.2V14.9A8.691,8.691,0,0,1,14.462,6h44a8.69,8.69,0,0,1,8.462,8.9Z" transform="translate(-6 -6)"/><path class="b" d="M45.514,36.218a8.331,8.331,0,0,0-4.739-3.294,7.719,7.719,0,0,0,3.283-3.116,10.9,10.9,0,0,0,1.4-5.663c0-3.829-1.32-6.767-3.96-8.779S35.884,12,30.824,12H15V54.738H32.652c4.79-.036,8.394-1.122,10.848-3.205,2.437-2.119,3.656-5.253,3.656-9.438A10.131,10.131,0,0,0,45.514,36.218ZM25.154,19.123h7.193A4.777,4.777,0,0,1,37,24.02a4.777,4.777,0,0,1-4.654,4.9H25.154Zm8.462,28.492H25.154V36.93h8.462a5.349,5.349,0,0,1,0,10.684Z" transform="translate(0.232 -1.316)"/></svg>