<svg xmlns="http://www.w3.org/2000/svg" width="60.804" height="69.715" viewBox="0 0 60.804 69.715"><defs><style>.a{fill:#e65100;}.b{fill:#ff6d00;}.c{fill:#fff;}.d{fill:#eee;}</style></defs><path class="a" d="M67.8,5H7l5.365,62.376L37.4,74.715l25.037-7.338Z" transform="translate(-7 -5)"/><path class="b" d="M24,8V66.8l20.028-5.9L48.5,8Z" transform="translate(6.402 -2.635)"/><path class="c" d="M24,35.414V27.943H39.383l-1.258,21.48L24,54.283V46.432l7.335-2.612.531-8.405ZM39.913,20.471,40.451,13H24v7.471Z" transform="translate(6.402 1.307)"/><path class="d" d="M31.175,46.432v7.851L17.05,49.423l-.72-10.273h7.153l.356,4.67Zm-8.76-25.96h8.76V13H14.9l1.258,22.414H31.175V27.943H22.946Z" transform="translate(-0.773 1.307)"/></svg>