<svg xmlns="http://www.w3.org/2000/svg" width="125.885" height="124.13" viewBox="0 0 125.885 124.13"><defs><style>.a{fill:#b1e9f9;}.b{fill:#e1be9c;}.c{fill:#6f6797;}.d{fill:#6bcdf5;}.e{fill:#fbcbc5;}.f{fill:#ffe787;}.g{fill:#5fd696;}</style></defs><g transform="translate(0 -0.002)"><path class="a" d="M10,323.226V301.621a6.4,6.4,0,0,1,6.394-6.394H60.687a6.394,6.394,0,0,1,6.394,6.394v21.605Zm0,0" transform="translate(-7.542 -222.639)"/><path class="b" d="M42.93,91.945v27.575c0,11.666,14.753,14.624,15.667,14.87l-.1,7.049H55.256v1.739a8.118,8.118,0,0,0,16.237,0v-1.739H68.472l-.1-7.049c.913-.247,15.667-3.148,15.667-14.871V91.3" transform="translate(-32.375 -68.852)"/><path class="c" d="M69.812,39.165V50.5s3.462-13.618,3.464-25.2A40.226,40.226,0,0,0,69.812,10l-.734.587A21.9,21.9,0,0,1,50.841,14.91a17.808,17.808,0,0,0-18.756,7.879l-.067.108a7.959,7.959,0,0,0-7.873,9.125l4.552,16.4V39.679A3.907,3.907,0,0,1,32.6,35.771H43.1a23.791,23.791,0,0,0,16.326-6.487" transform="translate(-18.143 -7.54)"/><path d="M67.164,157.963a2.459,2.459,0,0,1-.615-4.839c.014-.061.032-.12.051-.181a2.458,2.458,0,0,1,3.1-1.575l3.12,1.018a2.459,2.459,0,0,1-.376,4.766l-4.89.78a2.571,2.571,0,0,1-.391.031Zm0,0" transform="translate(-48.8 -114.059)"/><path d="M155.83,157.964a2.559,2.559,0,0,1-.39-.031l-4.891-.78a2.459,2.459,0,0,1-.376-4.766l3.12-1.018a2.459,2.459,0,0,1,3.1,1.575c.019.061.036.12.051.181a2.459,2.459,0,0,1-.615,4.839Zm0,0" transform="translate(-111.972 -114.06)"/><path class="d" d="M208.033,358.078h39.061V334.356a7.021,7.021,0,0,0-7.021-7.021H191.442a7.021,7.021,0,0,0-7.021,7.021v23.721" transform="translate(-139.079 -246.854)"/><path d="M225.481,447.289a2.482,2.482,0,0,1-.482-.049,2.563,2.563,0,0,1-.46-.14,2.472,2.472,0,0,1-.8-.531,2.514,2.514,0,0,1-.534-.8,2.45,2.45,0,0,1-.14-.46,2.479,2.479,0,0,1-.049-.481,2.489,2.489,0,0,1,.416-1.365,2.381,2.381,0,0,1,.307-.374,2.294,2.294,0,0,1,.374-.305,2.475,2.475,0,0,1,.423-.226,2.516,2.516,0,0,1,.46-.14,2.443,2.443,0,0,1,1.42.14,2.5,2.5,0,0,1,.425.226,2.3,2.3,0,0,1,.374.305,2.424,2.424,0,0,1,.305.374,2.5,2.5,0,0,1,.226.425,2.461,2.461,0,0,1,.14.459,2.376,2.376,0,0,1,.049.48,2.406,2.406,0,0,1-.049.481,2.45,2.45,0,0,1-.14.46,2.477,2.477,0,0,1-.226.423,2.376,2.376,0,0,1-.679.682,2.5,2.5,0,0,1-.425.226,2.473,2.473,0,0,1-.938.189Zm0,0" transform="translate(-168.187 -333.605)"/><path class="e" d="M220.574,104.148v30.276c0,12.809,16.2,16.056,17.2,16.327l-.106,7.738h-3.562V160.4a8.913,8.913,0,1,0,17.826,0v-1.909h-3.316l-.106-7.739c1-.271,17.2-3.457,17.2-16.326V103.441" transform="translate(-166.343 -78.007)"/><path class="f" d="M251.735,57.97c7.282-12.641.012-28.663,0-28.656-3.478,4.685-11.264,3.13-18.415-.35-8.5-4.137-18.8.9-23.047,9.347-.022.043-.033.066-.033.066-16.015-2.538-3.646,28.018-3.646,28.018V56.8a4.29,4.29,0,0,1,4.29-4.29h21.9l5-7.184h2.548" transform="translate(-152.363 -20.73)"/><path d="M247.923,177.128a2.459,2.459,0,0,1-.473-4.871,2.467,2.467,0,0,1,3.182-1.9l3.427,1.118a2.459,2.459,0,0,1-.376,4.766l-5.371.856a2.423,2.423,0,0,1-.389.031Zm0,0" transform="translate(-185.115 -128.379)"/><path d="M345.27,177.128a2.465,2.465,0,0,1-.391-.031l-5.37-.856a2.459,2.459,0,0,1-.376-4.766l3.427-1.118a2.458,2.458,0,0,1,3.1,1.575,2.5,2.5,0,0,1,.083.324,2.459,2.459,0,0,1-.473,4.871Zm0,0" transform="translate(-254.473 -128.379)"/><path class="g" d="M405.839,383.034a15.675,15.675,0,1,1-15.676-15.675A15.676,15.676,0,0,1,405.839,383.034Zm0,0" transform="translate(-282.415 -277.037)"/><path d="M110.41,88.058a2.46,2.46,0,0,0,.063-.555,9.49,9.49,0,0,0-9.479-9.479H84.7l-.046-3.381a32.383,32.383,0,0,0,8.4-3.617c5.742-3.585,8.778-8.637,8.778-14.609V37.878c3-5.565,3.939-12.491,2.706-20.084a47.128,47.128,0,0,0-1.8-7.276c-1.027-3.069-1.386-3.429-1.623-3.667a2.458,2.458,0,0,0-3.718.268c-3.229,4.349-12.577.261-15.366-1.1a17.956,17.956,0,0,0-15.167-.092A22.8,22.8,0,0,0,57.45,13.6a34.824,34.824,0,0,0-1.714-7.886A32.887,32.887,0,0,0,54.446,2.5C53.867,1.262,53.6.744,52.909.337a2.461,2.461,0,0,0-2.777.2l-.734.587A19.369,19.369,0,0,1,33.208,4.965,20.353,20.353,0,0,0,12.5,12.988,10.419,10.419,0,0,0,3.57,24.842a2.4,2.4,0,0,0,.063.3L8.1,41.212v9.456c0,5.5,2.806,10.165,8.115,13.481a29.8,29.8,0,0,0,7.527,3.281l-.036,2.7H8.853A8.863,8.863,0,0,0,0,78.982v21.605a2.458,2.458,0,0,0,2.459,2.459H42.884v8.177a2.459,2.459,0,0,0,4.917,0V87.5a4.567,4.567,0,0,1,4.562-4.562H65.32a11.372,11.372,0,0,0,22.717,0h12.957a4.567,4.567,0,0,1,4.562,4.562,2.47,2.47,0,0,0,.049.487,18.149,18.149,0,0,0-15.779,20.775H68.954a2.459,2.459,0,0,0,0,4.917H91.325A18.134,18.134,0,1,0,110.41,88.058Zm-97.4-37.389V32.139a1.451,1.451,0,0,1,1.449-1.449H24.956a26.148,26.148,0,0,0,18.014-7.158,2.459,2.459,0,1,0-3.376-3.576,21.248,21.248,0,0,1-14.638,5.816H14.462a6.358,6.358,0,0,0-4.908,2.315l-1.139-4.1a5.5,5.5,0,0,1,5.459-6.169,2.463,2.463,0,0,0,2.1-1.172l.05-.08A15.405,15.405,0,0,1,32.187,9.774,24.259,24.259,0,0,0,50.7,6.26a29.365,29.365,0,0,1,1.959,9.384,7.511,7.511,0,0,0-3.185,2.349c-2.659,3.344-2.978,9.1-.978,17.587.225.956.467,1.886.714,2.778V50.669c0,8.314-9.475,11.458-13.55,12.423-.14.034-.241.058-.3.074a2.459,2.459,0,0,0-1.817,2.408l.1,7.048A2.459,2.459,0,0,0,36.1,75.046h.517a5.66,5.66,0,0,1-11.229,0h.74a2.458,2.458,0,0,0,2.459-2.425l.1-7.048a2.457,2.457,0,0,0-1.817-2.408l-.285-.07c-4.079-.977-13.565-4.14-13.565-12.427ZM68.9,78.023H61.947a8.866,8.866,0,0,0-8.8-7.895H38.523l-.037-2.694a29.6,29.6,0,0,0,7.544-3.274A18.143,18.143,0,0,0,51.9,58.509c.635,5.047,3.6,9.34,8.667,12.506a32.614,32.614,0,0,0,8.38,3.625ZM42.884,87.5V98.129H4.917V78.982a3.94,3.94,0,0,1,3.936-3.936H20.447a10.577,10.577,0,0,0,21.105,0H53.146a3.943,3.943,0,0,1,3.818,2.977h-4.6A9.49,9.49,0,0,0,42.884,87.5Zm33.794,1.344a6.463,6.463,0,0,1-6.431-5.907h1.08a2.459,2.459,0,0,0,2.459-2.424l.106-7.739a2.459,2.459,0,0,0-1.818-2.407c-.061-.016-.163-.041-.305-.076C67.235,69.21,56.69,65.686,56.69,56.417V36.072a1.834,1.834,0,0,1,1.832-1.832h21.9a2.458,2.458,0,0,0,2.018-1.054l4.269-6.13h1.264a2.459,2.459,0,1,0,0-4.917H85.423A2.46,2.46,0,0,0,83.4,23.192l-4.268,6.13H58.522a6.75,6.75,0,0,0-5.676,3.1c-.949-4.911-1.094-9.4.476-11.371.286-.36,1.157-1.456,4.17-.978a2.459,2.459,0,0,0,2.585-1.333l.029-.056c3.487-6.929,12.266-11.895,19.774-8.241,7.69,3.741,14.133,4.483,18.383,2.247a39.391,39.391,0,0,1,1.876,11.5,2.461,2.461,0,0,0-3.226,2.337v29.89c0,9.3-10.534,12.8-15.062,13.874-.151.036-.259.062-.323.079a2.459,2.459,0,0,0-1.817,2.408l.106,7.738a2.458,2.458,0,0,0,2.459,2.425h.834a6.464,6.464,0,0,1-6.432,5.907Zm31.07,30.368A13.217,13.217,0,1,1,120.966,106,13.232,13.232,0,0,1,107.749,119.215Zm0,0"/><path d="M419.7,404.79h-2.863v-2.863a2.459,2.459,0,1,0-4.917,0v2.863h-2.864a2.459,2.459,0,1,0,0,4.917h2.864v2.864a2.459,2.459,0,1,0,4.917,0v-2.864H419.7a2.459,2.459,0,0,0,0-4.917Zm0,0" transform="translate(-306.63 -301.251)"/><path d="M289.461,240.109a7.942,7.942,0,0,1-7.26-4.729,2.459,2.459,0,0,1,4.5-1.988,3.019,3.019,0,0,0,5.524,0,2.459,2.459,0,1,1,4.5,1.988,7.942,7.942,0,0,1-7.26,4.729Zm0,0" transform="translate(-212.659 -174.902)"/><path d="M106.678,216.966a6.855,6.855,0,0,1-6.265-4.081,2.459,2.459,0,0,1,4.5-1.988,1.931,1.931,0,0,0,3.534,0,2.459,2.459,0,0,1,4.5,1.987,6.854,6.854,0,0,1-6.265,4.081Zm0,0" transform="translate(-75.567 -157.938)"/></g></svg>