<svg xmlns="http://www.w3.org/2000/svg" width="122.402" height="122.402" viewBox="0 0 122.402 122.402"><defs><style>.a{fill:#827ddc;}.b{fill:#6e64c3;}.c{fill:#5046af;}.d{fill:#fff;}</style></defs><circle class="a" cx="61.201" cy="61.201" r="61.201" transform="translate(0 0)"/><path class="b" d="M184.3,106.633a7.412,7.412,0,0,0-5.258-2.178H130.212a7.435,7.435,0,0,0-7.435,7.435v48.828a7.41,7.41,0,0,0,2.177,5.256h0L160.576,201.6a61.205,61.205,0,0,0,55.25-60.912c0-.864-.022-1.724-.058-2.58Z" transform="translate(-93.425 -79.484)"/><path class="c" d="M179.04,104.456H130.212a7.435,7.435,0,0,0-7.435,7.435v48.828a7.435,7.435,0,0,0,7.435,7.435h41.264l-1.675-6.7,16.673,15.46V111.891A7.435,7.435,0,0,0,179.04,104.456Z" transform="translate(-93.425 -79.484)"/><path class="d" d="M204.431,178.474s-3.083-3.264-10.083-3.736v1.031s3.839-.223,8.592,4.455a26.762,26.762,0,0,0-28.779,0c4.753-4.678,8.592-4.455,8.592-4.455v-1.031c-7,.472-10.083,3.736-10.083,3.736-5.334,6.871-5.634,21.9-5.634,21.9,5.024,6.055,11.337,5.282,11.337,5.282l2.319-3.35a13.383,13.383,0,0,1-6.41-4.113,26.807,26.807,0,0,0,28.537,0,13.385,13.385,0,0,1-6.41,4.113l2.319,3.35s6.313.773,11.337-5.282C210.065,200.375,209.765,185.345,204.431,178.474Zm-22.58,17.65a3.886,3.886,0,1,1,3.65-3.879A3.769,3.769,0,0,1,181.851,196.124Zm13.4,0a3.886,3.886,0,1,1,3.65-3.879A3.769,3.769,0,0,1,195.25,196.124Z" transform="translate(-127.103 -132.964)"/></svg>