<svg xmlns="http://www.w3.org/2000/svg" width="116.951" height="117.073" viewBox="0 0 116.951 117.073"><defs><style>.a{fill:#ffd15c;}.b{fill:#f8b64c;}.c{fill:#40596b;}.d{fill:#f2f2f2;}.e{fill:#cdd6e0;}.f{fill:#ff7058;}</style></defs><g transform="translate(-0.261 0)"><path class="a" d="M117.212,246.409a4.959,4.959,0,0,1-1.462,3.655,5.281,5.281,0,0,1-3.411,1.218H5.134a5.823,5.823,0,0,1-3.411-1.218,4.958,4.958,0,0,1-1.462-3.655V175.02H117.212v71.389Z" transform="translate(0 -134.209)"/><path class="b" d="M120.557,335.8a5.281,5.281,0,0,1-3.411,1.218H9.941A5.823,5.823,0,0,1,6.53,335.8l57.014-48.973Z" transform="translate(-4.807 -219.943)"/><path class="c" d="M117.212,40.811,100.644,52.75,61.9,80.526a5.482,5.482,0,0,1-6.578,0L16.829,52.75.261,40.811,16.829,28.872,52.889,3.046,55.569,1.1a5.482,5.482,0,0,1,6.578,0l2.68,1.949,17.3,12.426,8.528,6.091,9.99,7.309Z" transform="translate(0 0)"/><path class="d" d="M155.129,28.167v34.6l-38.74,27.776a5.482,5.482,0,0,1-6.578,0l-38.5-27.776V17.934a4.887,4.887,0,0,1,4.873-4.873h63.592Z" transform="translate(-54.485 -10.015)"/><path class="e" d="M365.974,24.269a3.848,3.848,0,0,0,3.9,3.9H381.08L365.974,13.061V24.269Z" transform="translate(-280.436 -10.015)"/><path class="f" d="M205.318,130.942h3.9a12.873,12.873,0,0,1-5.848,6.091c-2.924,1.705-6.578,2.436-10.964,2.436a24.037,24.037,0,0,1-10.721-2.193,14.37,14.37,0,0,1-6.822-6.335,18.972,18.972,0,0,1-2.193-9.015,20.217,20.217,0,0,1,2.436-9.99,15.384,15.384,0,0,1,6.822-6.822,22.283,22.283,0,0,1,9.99-2.193,19.115,19.115,0,0,1,8.528,1.949,11.961,11.961,0,0,1,5.6,5.36A15.827,15.827,0,0,1,208,117.786a14.6,14.6,0,0,1-2.924,8.771,10.959,10.959,0,0,1-9.5,4.873,6.113,6.113,0,0,1-2.436-.487,2.466,2.466,0,0,1-.975-1.705,7.013,7.013,0,0,1-5.117,2.193,6.293,6.293,0,0,1-5.117-2.193,7.9,7.9,0,0,1-2.193-5.848,14.891,14.891,0,0,1,2.436-8.284,9.062,9.062,0,0,1,7.8-4.386,6.033,6.033,0,0,1,5.117,2.68l.487-2.193h5.117l-2.924,13.644a6.428,6.428,0,0,0-.244,1.705.9.9,0,0,0,.244.731c.244.244.244.244.487.244a5.516,5.516,0,0,0,2.436-1.218,10.168,10.168,0,0,0,3.167-3.9,13.093,13.093,0,0,0,1.218-5.117,10.131,10.131,0,0,0-3.411-7.8c-2.193-2.193-5.36-3.168-9.5-3.168a16.74,16.74,0,0,0-8.771,2.193,13.766,13.766,0,0,0-5.36,5.848,17.652,17.652,0,0,0-1.705,8.04,14.886,14.886,0,0,0,1.949,7.309,12.085,12.085,0,0,0,5.6,4.873,21.855,21.855,0,0,0,8.284,1.462,24.938,24.938,0,0,0,7.8-1.218A14.534,14.534,0,0,0,205.318,130.942Zm-20.71-7.8a5.445,5.445,0,0,0,.975,3.655,3.383,3.383,0,0,0,2.436,1.218,4.589,4.589,0,0,0,1.949-.487,6.46,6.46,0,0,0,1.462-1.218,8.9,8.9,0,0,0,1.705-3.411,13.514,13.514,0,0,0,.731-4.142,5.156,5.156,0,0,0-.975-3.411,3.383,3.383,0,0,0-2.436-1.218,4.5,4.5,0,0,0-2.924,1.218A6.693,6.693,0,0,0,185.339,119,13.524,13.524,0,0,0,184.608,123.146Z" transform="translate(-132.206 -78.923)"/></g></svg>