<svg xmlns="http://www.w3.org/2000/svg" width="98" height="131.104" viewBox="0 0 98 131.104"><defs><style>.a{fill:#c8d2d6;}.b{fill:#e7eced;}.c{fill:#7383bf;}.d{fill:#fbce9d;}.e{fill:#f7b563;}.f{fill:#424a60;}.g{fill:#fff;}</style></defs><g transform="translate(-7.323)"><rect class="a" width="54.25" height="24.864" transform="translate(48.811 106.239)"/><path class="b" d="M61.844,71.864H25.677V47H46.984a14.859,14.859,0,0,1,14.86,14.86Z" transform="translate(23.134 59.239)"/><circle class="c" cx="5.651" cy="5.651" r="5.651" transform="translate(64.633 113.02)"/><path class="d" d="M39.386,19.149A7.906,7.906,0,1,0,28.975,8.738Z" transform="translate(27.29 5.042)"/><path class="d" d="M44.386,24.149A7.906,7.906,0,1,0,33.975,13.738Z" transform="translate(33.592 11.344)"/><path class="d" d="M49.386,29.149A7.906,7.906,0,1,0,38.975,18.738Z" transform="translate(39.894 17.646)"/><path class="d" d="M54.386,34.149A7.906,7.906,0,1,0,43.975,23.738Z" transform="translate(46.196 23.948)"/><path class="d" d="M45.193,41.823h-22.6a7.935,7.935,0,0,1-7.911-7.911h0A7.935,7.935,0,0,1,22.588,26h22.6A7.935,7.935,0,0,1,53.1,33.911h0A7.935,7.935,0,0,1,45.193,41.823Z" transform="translate(9.269 32.771)"/><g transform="translate(28.049 71.345)"><path class="e" d="M89.551,31.563,64.415,56.7a5.184,5.184,0,0,1-7.333,0L35.2,34.811H20.3c-1.307.64-4.871-1.668-3.5-.5l24.44,24.345c.167.167.362.287.538.439v7.358H86.985V56.262a16.9,16.9,0,0,0,2.566-24.7Z" transform="translate(-16.492 -31.563)"/></g><path class="f" d="M45.377,2.889,10.212,38.054,27.373,55.215a8.069,8.069,0,0,1,.843-.086h22.6a7.911,7.911,0,1,1,0,15.823H43.11L57.475,85.317,92.638,50.152Z" transform="translate(3.641 3.641)"/><g transform="translate(7.323 0)"><path class="b" d="M49.018,6.53,44.007,1.519a5.184,5.184,0,0,0-7.333,0L8.842,29.349a5.187,5.187,0,0,0,0,7.335L13.853,41.7Z" transform="translate(-7.323)"/><path class="b" d="M73.807,31.321,66.284,23.8,31.121,58.963l7.52,7.52a5.184,5.184,0,0,0,7.333,0L73.8,38.653A5.182,5.182,0,0,0,73.807,31.321Z" transform="translate(22.672 29.995)"/></g><circle class="g" cx="4.521" cy="4.521" r="4.521" transform="translate(79.326 71.203)"/><path class="f" d="M16.938,16.042a2.26,2.26,0,0,1-1.6-3.859L19.86,7.663a2.26,2.26,0,0,1,3.2,3.2L18.536,15.38A2.254,2.254,0,0,1,16.938,16.042Z" transform="translate(9.269 8.823)"/></g></svg>