<svg id="Layer_1" enable-background="new 0 0 256 256" height="512" viewBox="0 0 256 256" width="512" xmlns="http://www.w3.org/2000/svg"><g><g><path id="XMLID_524_" d="m54.634 107.519c-3.71-.98-7.1 2.41-6.12 6.12 9.417 35.478 7.736 24.333 16.956 59.055l40.641-51.763c-25.866-6.861-16.389-4.098-51.477-13.412z" fill="#ffcfcf"/><path id="XMLID_523_" d="m208.755 107.519c-35.088 9.314-25.662 6.527-51.528 13.388l40.684 51.707c9.221-34.722 7.546-23.497 16.963-58.975.981-3.71-2.409-7.1-6.119-6.12z" fill="#ffcfcf"/><path id="XMLID_522_" d="m198.695 182.869c0 4.24-.39 8.39-1.15 12.41-2.29 12.24-7.91 23.3-15.87 32.22-1.35 1.5-2.75 2.94-4.22 4.31-11.98 11.2-28.07 18.06-45.76 18.06s-33.78-6.86-45.76-18.06c-1.47-1.37-2.87-2.81-4.22-4.31-10.58-11.85-17.02-27.49-17.02-44.63 0-37 30-67 67-67h.46c.68.01 1.35.03 2.02.05 35.38 1.28 63.77 30.01 64.5 65.53.02.47.02.95.02 1.42z" fill="#ffe2e2"/><path id="XMLID_521_" d="m135.596 199.001c-2.002 2.497-5.802 2.497-7.803 0l-4.514-5.632-1.902-2.373c-2.623-3.273-.293-8.127 3.902-8.127h6.416 6.416c4.195 0 6.525 4.854 3.902 8.127l-1.902 2.373z" fill="#c98585"/><path id="XMLID_520_" d="m198.695 182.869c0 4.24-.39 8.39-1.15 12.41-1 .06-2.01.08-3.02.08-35.45 0-64.2-28.74-64.2-64.21 0-5.26.63-10.38 1.83-15.28.68.01 1.35.03 2.02.05 35.38 1.28 63.77 30.01 64.5 65.53.02.47.02.95.02 1.42z" fill="#c98585"/><path id="XMLID_519_" d="m198.695 182.869c0 17.14-6.44 32.78-17.02 44.63-1.35 1.5-2.75 2.94-4.22 4.31-11.98 11.2-28.07 18.06-45.76 18.06-2.54 0-5.04-.14-7.5-.42 14.72-1.64 28-8.05 38.26-17.64 1.47-1.37 2.87-2.81 4.22-4.31 10.58-11.85 17.02-27.49 17.02-44.63 0-34.46-26.03-62.85-59.5-66.58 2.46-.28 4.96-.42 7.5-.42 37 0 67 30 67 67z" fill="#ffcfcf"/><path id="XMLID_518_" d="m100.935 231.809c10.26 9.59 23.54 16 38.26 17.64-2.46.28-4.96.42-7.5.42-17.69 0-33.78-6.86-45.76-18.06-1.47-1.37-2.87-2.81-4.22-4.31-10.58-11.85-17.02-27.49-17.02-44.63 0-37 30-67 67-67 2.54 0 5.04.14 7.5.42-33.47 3.73-59.5 32.12-59.5 66.58 0 17.14 6.44 32.78 17.02 44.63 1.35 1.5 2.75 2.94 4.22 4.31z" fill="#ffefee"/><path id="XMLID_517_" d="m197.545 195.279c-4.097.246-9.527-.016-14.82-1 6.131-35.541-16.878-68.861-50.96-76.7.185-.876.39-1.71.39-1.71 33.042 0 61.283 25.594 65.6 55.82.955 4.969 1.557 14.242-.21 23.59z" fill="#b76c6c"/></g><g fill="#5f266d"><path d="m162.635 200.011c-2.209 0-4 1.791-4 4 0 6.275-5.105 11.381-11.381 11.381s-11.381-5.105-11.381-11.381c0-.057-.014-.109-.017-.165 1.088-.569 2.067-1.353 2.86-2.343l6.416-8.006c4.715-5.883.538-14.628-7.022-14.628h-12.832c-7.539 0-11.75 8.729-7.022 14.629l6.416 8.005c.794.99 1.772 1.774 2.86 2.343-.292 7.418-5.807 11.546-11.397 11.546-6.275 0-11.381-5.105-11.381-11.381 0-2.209-1.791-4-4-4s-4 1.791-4 4c0 10.687 8.694 19.381 19.381 19.381 6.376 0 12.025-3.109 15.56-7.875 3.534 4.766 9.184 7.875 15.56 7.875 18.08 0 24.402-23.381 15.38-23.381zm-30.16-3.511c-.405.504-1.16.5-1.561 0l-6.416-8.004c-.528-.659-.067-1.626.78-1.626h12.832c.846 0 1.31.966.779 1.626z"/><path d="m108.604 165.458c.729.564 1.592.838 2.447.838 1.194 0 2.377-.533 3.165-1.55 1.353-1.747 1.034-4.259-.712-5.612-12.444-9.641-24.146-4.025-28.595.291-1.576 1.529-1.613 4.032-.097 5.621 1.518 1.589 4.044 1.646 5.645.143.823-.773 8.328-7.34 18.147.269z"/><path d="m155.098 165.188c.822-.772 8.328-7.339 18.146.27.729.564 1.592.838 2.447.838 1.194 0 2.377-.533 3.165-1.55 1.353-1.747 1.034-4.259-.712-5.612-12.445-9.641-24.146-4.025-28.595.291-1.576 1.529-1.613 4.032-.097 5.621 1.519 1.588 4.045 1.646 5.646.142z"/><path d="m222.744 173.619c-.47-2.159-2.607-3.527-4.759-3.058l-15.846 3.449c-.047-.381-.101-.761-.155-1.142 8.81-33.101 7.478-23.258 16.757-58.207 1.763-6.674-4.327-12.773-11.013-11.008-33.498 8.887-26.697 6.815-50.269 13.058-16.567-6.455-35.067-6.447-51.587.018-24.143-6.396-17.23-4.323-50.218-13.078-6.665-1.765-12.775 4.322-11.008 11.014 9.312 35.079 7.849 24.832 16.745 58.259-.051.361-.086.726-.131 1.088l-15.857-3.451c-2.152-.469-4.289.898-4.759 3.058-.47 2.158.898 4.289 3.058 4.759l16.999 3.7c-.09 6.269.711 12.802 2.385 19.094l-19.182 3.15c-2.18.358-3.656 2.416-3.299 4.596.357 2.168 2.405 3.659 4.596 3.299l20.435-3.356c23.568 59.633 108.609 59.934 132.127.002l20.423 3.354c5.271.867 6.478-7.043 1.297-7.895l-19.185-3.151c1.584-5.952 2.395-12.092 2.395-18.301 0-.235-.001-.451-.011-.681 0-.037-.002-.073-.003-.11l17.005-3.701c2.162-.47 3.53-2.601 3.06-4.759zm-157.322-16.31c-5.17-18.306-5.249-15.339-13.042-44.692-.198-.75.481-1.426 1.227-1.232 29.471 7.822 27.408 7.103 41.296 10.729-13.529 8.156-23.859 20.507-29.481 35.195zm126.946 42.56-17.908-2.941c-2.18-.355-4.237 1.119-4.596 3.299-.357 2.18 1.119 4.237 3.299 4.596l16.509 2.711c-21.569 50.817-94.087 51.162-115.947-.001l16.5-2.71c2.18-.358 3.656-2.416 3.299-4.596-.358-2.18-2.414-3.653-4.596-3.299l-17.908 2.941c-1.454-5.207-2.229-10.596-2.31-16.048l20.016 4.356c2.157.471 4.289-.899 4.759-3.058.47-2.158-.898-4.289-3.058-4.759l-21.316-4.64c.167-1.476.374-2.943.644-4.388.008-.039.015-.078.021-.118 3.713-19.897 17.222-37.099 35.585-45.583v14.348c0 2.209 1.791 4 4 4s4-1.791 4-4v-17.396c4.702-1.431 9.556-2.295 14.512-2.589v30.874c0 2.209 1.791 4 4 4s4-1.791 4-4v-30.855c4.827.315 9.569 1.176 14.155 2.574v17.393c0 2.209 1.791 4 4 4s4-1.791 4-4v-14.34c17.034 7.861 29.947 23.232 34.651 41.362.01.045.021.089.031.134.726 2.818 1.247 5.69 1.573 8.583l-21.323 4.641c-2.159.47-3.527 2.601-3.058 4.759s2.601 3.529 4.759 3.058l20.014-4.356c-.08 5.451-.85 10.835-2.307 16.048zm5.571-42.554c-5.666-14.595-16.158-27.065-29.555-35.204 14.446-3.764 11.358-2.753 41.392-10.723.751-.201 1.428.487 1.232 1.227-7.786 29.326-7.919 26.474-13.069 44.7z"/><path d="m242.851 11.511c-2.209 0-4 1.791-4 4v2.352c0 5.46-4.442 9.902-9.902 9.902-9.055 0-17.902 6.803-17.902 19.149 0 2.209 1.791 4 4 4s4-1.791 4-4v-1.247c0-5.46 4.442-9.902 9.902-9.902 9.871 0 17.902-8.031 17.902-17.902v-2.352c0-2.209-1.791-4-4-4z"/><path d="m44.554 87.817c2.209 0 4-1.791 4-4s-1.791-4-4-4h-1.248c-5.46 0-9.902-4.442-9.902-9.902 0-9.871-8.031-17.901-17.902-17.901h-2.352c-2.209 0-4 1.791-4 4s1.791 4 4 4h2.352c5.46 0 9.902 4.442 9.902 9.902 0 9.871 8.031 17.901 17.902 17.901z"/><path d="m48.03 39.402c2.174.179 4.126-1.454 4.3-3.675l.184-2.344c.428-5.458 5.187-9.524 10.646-9.1 9.022.728 18.377-5.379 19.343-17.693.413-5.263-7.561-5.927-7.975-.625l-.098 1.246c-.427 5.443-5.192 9.529-10.646 9.099-9.756-.781-18.467 6.499-19.245 16.449l-.184 2.344c-.172 2.201 1.473 4.127 3.675 4.299z"/><path d="m102.296 73.915h66.809c2.209 0 4-1.791 4-4s-1.791-4-4-4h-66.809c-4.581 0-8.309-3.728-8.309-8.309v-9.882c0-4.582 3.728-8.31 8.309-8.31s8.309 3.728 8.309 8.31v4.94c0 2.209 1.791 4 4 4s4-1.791 4-4v-4.94c0-8.993-7.316-16.31-16.309-16.31s-16.309 7.316-16.309 16.31v9.882c0 8.992 7.317 16.309 16.309 16.309z"/><path d="m217.292 87.069c.014-2.209-1.766-4.02-3.975-4.025-71.285-.171-80.572-.62-82.603.481-3.987 2.156-1.84 8.263 2.62 7.455 5.427-.387 78.865.049 79.961.063 2.197-.002 3.983-1.775 3.997-3.974z"/><path d="m213.296 91.043c-.001 0-.002 0-.003 0 .022.001.021.001.003 0z"/></g></g></svg>