<?xml version="1.0" encoding="iso-8859-1"?>
<!-- Generator: Adobe Illustrator 19.0.0, SVG Export Plug-In . SVG Version: 6.00 Build 0)  -->
<svg version="1.1" id="Layer_1" xmlns="http://www.w3.org/2000/svg" xmlns:xlink="http://www.w3.org/1999/xlink" x="0px" y="0px"
	 viewBox="0 0 512 512" style="enable-background:new 0 0 512 512;" xml:space="preserve">
<g>
	<path style="fill:#AFB9D2;" d="M331.034,238.345h-8.828c-2.438,0-4.414,1.976-4.414,4.414v26.483c0,2.438,1.976,4.414,4.414,4.414
		h8.828c2.438,0,4.414-1.976,4.414-4.414v-26.483C335.448,240.321,333.472,238.345,331.034,238.345z"/>
	<path style="fill:#AFB9D2;" d="M295.724,203.034h-8.828c-2.438,0-4.414,1.976-4.414,4.414v61.793c0,2.438,1.976,4.414,4.414,4.414
		h8.828c2.438,0,4.414-1.976,4.414-4.414v-61.793C300.138,205.011,298.162,203.034,295.724,203.034z"/>
	<path style="fill:#AFB9D2;" d="M172.138,44.138h-8.828c-2.438,0-4.414,1.976-4.414,4.414v35.31c0,2.438,1.976,4.414,4.414,4.414
		h8.828c2.438,0,4.414-1.976,4.414-4.414v-35.31C176.552,46.114,174.575,44.138,172.138,44.138z"/>
	<rect x="88.28" y="61.793" style="fill:#AFB9D2;" width="44.14" height="26.483"/>
</g>
<g>
	<path style="fill:#C7CFE2;" d="M92.69,0h-8.828c-2.438,0-4.414,1.976-4.414,4.414v79.448c0,2.438,1.976,4.414,4.414,4.414h8.828
		c2.438,0,4.414-1.976,4.414-4.414V4.414C97.103,1.976,95.127,0,92.69,0z"/>
	<path style="fill:#C7CFE2;" d="M136.828,44.138H128c-2.438,0-4.414,1.976-4.414,4.414v35.31c0,2.438,1.976,4.414,4.414,4.414h8.828
		c2.438,0,4.414-1.976,4.414-4.414v-35.31C141.241,46.114,139.265,44.138,136.828,44.138z"/>
</g>
<path style="fill:#8F96AC;" d="M375.172,264.828H269.241c-2.438,0-4.414,1.976-4.414,4.414v26.483c0,2.438,1.976,4.414,4.414,4.414
	h105.931c2.438,0,4.414-1.976,4.414-4.414v-26.483C379.586,266.804,377.61,264.828,375.172,264.828z"/>
<g>
	<path style="fill:#9FA7BF;" d="M225.103,79.448H39.724c-2.438,0-4.414,1.976-4.414,4.414v26.483c0,2.438,1.976,4.414,4.414,4.414
		h185.379c2.438,0,4.414-1.976,4.414-4.414V83.862C229.517,81.425,227.541,79.448,225.103,79.448z"/>
	<path style="fill:#9FA7BF;" d="M489.931,282.483H247.172v220.69h247.172V286.897C494.345,284.459,492.369,282.483,489.931,282.483z
		"/>
</g>
<rect x="247.17" y="441.38" style="fill:#8F96AC;" width="247.17" height="52.966"/>
<path style="fill:#AFB9D2;" d="M22.069,97.103h220.69c2.438,0,4.414,1.976,4.414,4.414v401.655H17.655V101.517
	C17.655,99.08,19.631,97.103,22.069,97.103z"/>
<rect x="17.655" y="123.59" style="fill:#B4E1FA;" width="229.52" height="26.483"/>
<g>
	<rect x="17.655" y="123.59" style="fill:#A0D2F0;" width="17.655" height="26.483"/>
	<rect x="70.62" y="123.59" style="fill:#A0D2F0;" width="17.655" height="26.483"/>
	<rect x="123.59" y="123.59" style="fill:#A0D2F0;" width="17.655" height="26.483"/>
	<rect x="176.55" y="123.59" style="fill:#A0D2F0;" width="17.655" height="26.483"/>
	<rect x="229.52" y="123.59" style="fill:#A0D2F0;" width="17.655" height="26.483"/>
</g>
<rect x="17.655" y="176.55" style="fill:#B4E1FA;" width="229.52" height="26.483"/>
<g>
	<rect x="17.655" y="176.55" style="fill:#A0D2F0;" width="17.655" height="26.483"/>
	<rect x="70.62" y="176.55" style="fill:#A0D2F0;" width="17.655" height="26.483"/>
	<rect x="123.59" y="176.55" style="fill:#A0D2F0;" width="17.655" height="26.483"/>
	<rect x="176.55" y="176.55" style="fill:#A0D2F0;" width="17.655" height="26.483"/>
	<rect x="229.52" y="176.55" style="fill:#A0D2F0;" width="17.655" height="26.483"/>
</g>
<rect x="17.655" y="229.52" style="fill:#B4E1FA;" width="229.52" height="26.483"/>
<g>
	<rect x="17.655" y="229.52" style="fill:#A0D2F0;" width="17.655" height="26.483"/>
	<rect x="70.62" y="229.52" style="fill:#A0D2F0;" width="17.655" height="26.483"/>
	<rect x="123.59" y="229.52" style="fill:#A0D2F0;" width="17.655" height="26.483"/>
	<rect x="176.55" y="229.52" style="fill:#A0D2F0;" width="17.655" height="26.483"/>
	<rect x="229.52" y="229.52" style="fill:#A0D2F0;" width="17.655" height="26.483"/>
</g>
<rect x="17.655" y="335.45" style="fill:#B4E1FA;" width="229.52" height="26.483"/>
<g>
	<rect x="17.655" y="335.45" style="fill:#A0D2F0;" width="17.655" height="26.483"/>
	<rect x="70.62" y="335.45" style="fill:#A0D2F0;" width="17.655" height="26.483"/>
	<rect x="123.59" y="335.45" style="fill:#A0D2F0;" width="17.655" height="26.483"/>
	<rect x="176.55" y="335.45" style="fill:#A0D2F0;" width="17.655" height="26.483"/>
	<rect x="229.52" y="335.45" style="fill:#A0D2F0;" width="17.655" height="26.483"/>
</g>
<rect x="17.655" y="282.48" style="fill:#B4E1FA;" width="229.52" height="26.483"/>
<g>
	<rect x="17.655" y="282.48" style="fill:#A0D2F0;" width="17.655" height="26.483"/>
	<rect x="70.62" y="282.48" style="fill:#A0D2F0;" width="17.655" height="26.483"/>
	<rect x="123.59" y="282.48" style="fill:#A0D2F0;" width="17.655" height="26.483"/>
	<rect x="176.55" y="282.48" style="fill:#A0D2F0;" width="17.655" height="26.483"/>
	<rect x="229.52" y="282.48" style="fill:#A0D2F0;" width="17.655" height="26.483"/>
</g>
<rect x="17.655" y="441.38" style="fill:#B4E1FA;" width="229.52" height="26.483"/>
<g>
	<rect x="17.655" y="441.38" style="fill:#A0D2F0;" width="17.655" height="26.483"/>
	<rect x="70.62" y="441.38" style="fill:#A0D2F0;" width="17.655" height="26.483"/>
	<rect x="123.59" y="441.38" style="fill:#A0D2F0;" width="17.655" height="26.483"/>
	<rect x="176.55" y="441.38" style="fill:#A0D2F0;" width="17.655" height="26.483"/>
	<rect x="229.52" y="441.38" style="fill:#A0D2F0;" width="17.655" height="26.483"/>
</g>
<rect x="17.655" y="388.41" style="fill:#B4E1FA;" width="229.52" height="26.483"/>
<g>
	<rect x="17.655" y="388.41" style="fill:#A0D2F0;" width="17.655" height="26.483"/>
	<rect x="70.62" y="388.41" style="fill:#A0D2F0;" width="17.655" height="26.483"/>
	<rect x="123.59" y="388.41" style="fill:#A0D2F0;" width="17.655" height="26.483"/>
	<rect x="176.55" y="388.41" style="fill:#A0D2F0;" width="17.655" height="26.483"/>
	<rect x="229.52" y="388.41" style="fill:#A0D2F0;" width="17.655" height="26.483"/>
</g>
<path style="fill:#B4E1FA;" d="M463.448,467.862H278.069c-2.438,0-4.414-1.976-4.414-4.414v-97.103c0-2.438,1.976-4.414,4.414-4.414
	h185.379c2.438,0,4.414,1.976,4.414,4.414v97.103C467.862,465.886,465.886,467.862,463.448,467.862z"/>
<g>
	<path style="fill:#A0D2F0;" d="M273.655,366.345v22.069h194.207v-22.069c0-2.438-2.066-4.414-4.615-4.414H278.27
		C275.721,361.931,273.655,363.907,273.655,366.345z"/>
	<rect x="308.97" y="388.41" style="fill:#A0D2F0;" width="17.655" height="79.45"/>
	<rect x="361.93" y="388.41" style="fill:#A0D2F0;" width="17.655" height="79.45"/>
	<rect x="414.9" y="388.41" style="fill:#A0D2F0;" width="17.655" height="79.45"/>
	<rect x="273.65" y="414.9" style="fill:#A0D2F0;" width="194.21" height="26.483"/>
</g>
<path style="fill:#B4E1FA;" d="M463.448,335.448H278.069c-2.438,0-4.414-1.976-4.414-4.414v-17.655c0-2.438,1.976-4.414,4.414-4.414
	h185.379c2.438,0,4.414,1.976,4.414,4.414v17.655C467.862,333.472,465.886,335.448,463.448,335.448z"/>
<g>
	<rect x="308.97" y="308.97" style="fill:#A0D2F0;" width="17.655" height="26.483"/>
	<rect x="361.93" y="308.97" style="fill:#A0D2F0;" width="17.655" height="26.483"/>
	<rect x="414.9" y="308.97" style="fill:#A0D2F0;" width="17.655" height="26.483"/>
</g>
<path style="fill:#8F96AC;" d="M507.586,512H4.414C1.976,512,0,510.024,0,507.586v-8.828c0-2.438,1.976-4.414,4.414-4.414h503.172
	c2.438,0,4.414,1.976,4.414,4.414v8.828C512,510.024,510.024,512,507.586,512z"/>
<g>
</g>
<g>
</g>
<g>
</g>
<g>
</g>
<g>
</g>
<g>
</g>
<g>
</g>
<g>
</g>
<g>
</g>
<g>
</g>
<g>
</g>
<g>
</g>
<g>
</g>
<g>
</g>
<g>
</g>
</svg>
