<svg height="512" viewBox="0 0 512 512" width="512" xmlns="http://www.w3.org/2000/svg"><g><g><g><path d="m56 256h400v224h-400z" fill="#e0e0e2"/><path d="m32 232h448v24h-448z" fill="#ff9811"/><path d="m472 208v24h-432v-24l58.91-48h314.18z" fill="#d80027"/><g fill="#83d8f4"><path d="m344 304h80v176h-80z"/><path d="m264 304h80v176h-80z"/></g></g><path d="m80 304h160v104h-160z" fill="#83d8f4"/><path d="m124 364 60-60" fill="#e0e0e2"/><path d="m128 404 60-60" fill="#e0e0e2"/><path d="m104 32h304v96h-304z" fill="#ffda44"/></g><g><path d="m496 472h-32v-208h16a8 8 0 0 0 8-8v-24a8 8 0 0 0 -8-8v-16a7.976 7.976 0 0 0 -2.95-6.2l-58.91-48a8 8 0 0 0 -5.05-1.8h-69.09v-16h64a8 8 0 0 0 8-8v-96a8 8 0 0 0 -8-8h-304a8 8 0 0 0 -8 8v96a8 8 0 0 0 8 8h64v16h-69.09a8 8 0 0 0 -5.05 1.8l-58.91 48a7.976 7.976 0 0 0 -2.95 6.2v16a8 8 0 0 0 -8 8v24a8 8 0 0 0 8 8h16v208h-32a8 8 0 0 0 0 16h480a8 8 0 0 0 0-16zm-384-352v-80h288v80zm216 16v16h-144v-16zm-280 75.8 53.76-43.8h308.48l53.76 43.8v12.2h-416zm288 260.2h-64v-160h64zm80 0h-64v-160h64zm32 0h-16v-168a8 8 0 0 0 -8-8h-160a8 8 0 0 0 -8 8v168h-192v-208h384zm-408-224v-8h432v8z"/><path d="m368 384a8 8 0 0 0 -8 8v16a8 8 0 0 0 16 0v-16a8 8 0 0 0 -8-8z"/><path d="m320 416a8 8 0 0 0 8-8v-16a8 8 0 0 0 -16 0v16a8 8 0 0 0 8 8z"/><path d="m240 296h-160a8 8 0 0 0 -8 8v104a8 8 0 0 0 8 8h160a8 8 0 0 0 8-8v-104a8 8 0 0 0 -8-8zm-8 104h-88.686l50.343-50.343a8 8 0 1 0 -11.314-11.314l-60 60a7.985 7.985 0 0 0 -1.263 1.657h-33.08v-88h76.686l-46.343 46.343a8 8 0 0 0 11.314 11.314l57.657-57.657h44.686z"/><path d="m224 56h-88a8 8 0 0 0 0 16h88a8 8 0 0 0 0-16z"/><path d="m168 80h-32a8 8 0 0 0 0 16h32a8 8 0 0 0 0-16z"/><path d="m200 80h-8a8 8 0 0 0 0 16h8a8 8 0 0 0 0-16z"/></g></g></svg>