<svg height="512" viewBox="0 0 58 58" width="512" xmlns="http://www.w3.org/2000/svg"><g id="Page-1" fill="none" fill-rule="evenodd"><g id="029---Cafe" fill-rule="nonzero"><path id="Shape" d="m55 23v33c-.0032948 1.1032019-.8967981 1.9967052-2 2h-48c-1.10320187-.0032948-1.9967052-.8967981-2-2v-33z" fill="#f0c419"/><path id="Shape" d="m55 23v6h-5c-1.6568542 0-3-1.3431458-3-3 0 1.6568542-1.3431458 3-3 3h-6c-1.6568542 0-3-1.3431458-3-3 0 1.6568542-1.3431458 3-3 3h-6c-1.6568542 0-3-1.3431458-3-3 0 1.6568542-1.3431458 3-3 3h-6c-1.6568542 0-3-1.3431458-3-3 0 1.6568542-1.34314575 3-3 3h-5v-6z" fill="#f29c1f"/><path id="Shape" d="m58 23.58v.42c0 1.6568542-1.3431458 3-3 3h-5c-1.6568542 0-3-1.3431458-3-3v-2l-.4-1-3.6-9h5.8c1.36806.0013639 2.6415201.6983761 3.38 1.85l5.51 8.66c.2015831.3205596.3090017.691327.31 1.07z" fill="#e64c3c"/><path id="Shape" d="m47 22v2c0 1.6568542-1.3431458 3-3 3h-6c-1.6568542 0-3-1.3431458-3-3v-2l-2-10h10z" fill="#ecf0f1"/><path id="Shape" d="m35 22v2c0 1.6568542-1.3431458 3-3 3h-6c-1.6568542 0-3-1.3431458-3-3v-2l.2-1 1.8-9h8l1.8 9z" fill="#e64c3c"/><path id="Shape" d="m25 12-2 10v2c0 1.6568542-1.3431458 3-3 3h-6c-1.6568542 0-3-1.3431458-3-3v-2l4-10z" fill="#ecf0f1"/><path id="Shape" d="m15 12-3.6 9-.4 1v2c0 1.6568542-1.34314575 3-3 3h-5c-1.65685425 0-3-1.3431458-3-3v-.42c.00099825-.378673.10841686-.7494404.31-1.07l5.51-8.66c.73847986-1.1516239 2.01193996-1.8486361 3.38-1.85z" fill="#e64c3c"/><path id="Shape" d="m47 22v1h-12v-1l-.2-1h11.8z" fill="#d1d4d1"/><path id="Shape" d="m23.2 21-.2 1v1h-12v-1l.4-1z" fill="#d1d4d1"/><g fill="#c03a2b"><path id="Shape" d="m5 21h6.4l-.4 1v1h-6c-.55228475 0-1-.4477153-1-1s.44771525-1 1-1z"/><path id="Shape" d="m35 22v1h-12v-1l.2-1h11.6z"/><path id="Shape" d="m54 22c0 .5522847-.4477153 1-1 1h-6v-1l-.4-1h6.4c.5522847 0 1 .4477153 1 1z"/></g><circle id="Oval" cx="29" cy="11" fill="#f0c419" r="11"/><path id="Shape" d="m34 13h-4v-2h4c.2609224.0026276.5116037-.1014015.694-.288.195692-.185071.3063954-.4426555.306-.712 0-.55228475-.4477153-1-1-1h-3v-2h3c1.6568542 0 3 1.34314575 3 3-.0092882 1.6529917-1.3470083 2.9907118-3 3z" fill="#f9eab0"/><path id="Shape" d="m33 16h-10c-.5522847 0-1-.4477153-1-1s.4477153-1 1-1h10c.5522847 0 1 .4477153 1 1s-.4477153 1-1 1z" fill="#f9eab0"/><path id="Rectangle-path" d="m9 36h18v22h-18z" fill="#a56a43"/><rect id="Rectangle-path" fill="#f29c1f" height="4" rx="1" width="22" x="7" y="32"/><path id="Rectangle-path" d="m34 43h16v4h-16z" fill="#35495e"/><path id="Shape" d="m50 33v10h-16v-10c0-.5522847.4477153-1 1-1h14c.5522847 0 1 .4477153 1 1z" fill="#67b9cc"/><rect id="Rectangle-path" fill="#f29c1f" height="4" rx="1" width="18" x="33" y="47"/><path id="Shape" d="m23 49c-.5522847 0-1-.4477153-1-1v-2c0-.5522847.4477153-1 1-1s1 .4477153 1 1v2c0 .5522847-.4477153 1-1 1z" fill="#95a5a5"/><path id="Shape" d="m24 7h8v4c0 2.209139-1.790861 4-4 4s-4-1.790861-4-4z" fill="#f5efca"/><path id="Shape" d="m50 33v10h-10.8c1.2669236-4.0611231 3.3761629-7.8093673 6.19-11h3.61c.5522847 0 1 .4477153 1 1z" fill="#2fa8cc"/></g></g></svg>