<svg height="511pt" viewBox="0 -5 511.80218 511" width="511pt" xmlns="http://www.w3.org/2000/svg"><path d="m481.601562 47.601562h-280.402343c-14 0-25.398438 11.398438-25.398438 25.398438v147.601562h135c14 0 25.398438 11.398438 25.398438 25.398438v46.199219h145.402343c14 0 25.398438-11.398438 25.398438-25.398438v-193.601562c0-14.199219-11.398438-25.597657-25.398438-25.597657zm0 0" fill="#55acd5"/><path d="m30.398438 220.601562h280.402343c14 0 25.398438 11.398438 25.398438 25.398438v193.601562c0 14-11.398438 25.398438-25.398438 25.398438h-280.402343c-14 0-25.398438-11.398438-25.398438-25.398438v-193.601562c0-14 11.398438-25.398438 25.398438-25.398438zm0 0" fill="#fdad2c"/><path d="m310.800781 220.601562h-280.402343c-7.597657 0-14.796876 3.398438-19.597657 9.199219l135.398438 126.601563c13.601562 13.199218 35.199219 13.199218 48.800781 0l135.398438-126.601563c-4.796876-5.800781-12-9.199219-19.597657-9.199219zm0 0" fill="#ffcd29"/><path d="m195 356.601562c-12.199219 13.398438-33 14.398438-46.601562 2.199219-.796876-.800781-1.597657-1.398437-2.199219-2.199219l-9.398438-8.800781-126 108c4.800781 5.800781 12 9.199219 19.597657 9.199219h280.203124c7.597657 0 14.796876-3.398438 19.597657-9.199219l-126-108zm0 0" fill="#ffcd29"/><path d="m481.601562 47.601562h-280.402343c-7.597657 0-14.800781 3.398438-19.597657 9.199219l135.398438 126.601563c13.601562 13.199218 35.199219 13.199218 48.800781 0l135.398438-126.601563c-4.800781-5.800781-12-9.199219-19.597657-9.199219zm0 0" fill="#acdef9"/><path d="m375.199219 174.800781-9.398438 8.800781c-12.199219 13.398438-33 14.398438-46.601562 2.199219-.800781-.800781-1.597657-1.398437-2.199219-2.199219l-9.398438-8.800781-53.402343 45.800781h56.402343c14 0 25.398438 11.398438 25.398438 25.398438v46.199219h145.398438c7.601562 0 14.800781-3.398438 19.601562-9.199219zm0 0" fill="#acdef9"/><path d="m173.601562 9h-3.601562v-3.597656c0-2.800782-2.199219-5-5-5s-5 2.199218-5 5v3.597656h-3.601562c-2.796876 0-5 2.199219-5 5s2.203124 5 5 5h3.601562v3.601562c0 2.800782 2.199219 5 5 5s5-2.199218 5-5v-3.601562h3.601562c2.796876 0 5-2.199219 5-5s-2.203124-5-5-5zm0 0" fill="#ffcd29"/><path d="m122.199219 34.402344c0-.402344-.199219-.601563-.199219-1-.199219-.203125-.199219-.601563-.398438-.800782-.203124-.199218-.402343-.601562-.601562-.800781-2-1.800781-5-1.800781-7 0-.199219.199219-.398438.398438-.601562.800781-.398438.597657-.597657 1.199219-.796876 1.800782-.203124.597656-.203124 1.398437 0 2 0 .398437.199219.597656.199219 1 .199219.398437.199219.597656.398438.796875.199219.203125.402343.601562.601562.800781 2 2 5 2 7 0 .199219-.199219.398438-.398438.597657-.800781.203124-.199219.402343-.597657.402343-.796875.199219-.203125.199219-.601563.199219-1 .199219-.800782.199219-1.402344.199219-2zm0 0" fill="#ea4647"/><path d="m390.199219 494.402344c0-.402344-.199219-.601563-.199219-1-.199219-.203125-.199219-.601563-.398438-.800782-.203124-.199218-.402343-.601562-.601562-.800781-2-1.800781-5-1.800781-7 0-.199219.199219-.398438.398438-.601562.800781-.398438.597657-.597657 1.199219-.796876 1.800782-.203124.597656-.203124 1.398437 0 2 0 .398437.199219.597656.199219 1 .199219.398437.199219.597656.398438.796875.199219.203125.402343.601562.601562.800781 2 2 5 2 7 0 .199219-.199219.398438-.398438.597657-.800781.203124-.199219.402343-.597657.402343-.796875.199219-.203125.199219-.601563.199219-1 .199219-.601563.199219-1.402344.199219-2zm0 0" fill="#6dcc6d"/><path d="m444.800781 475.601562c-6.601562-1.199218-11.800781-6.402343-13.199219-13.199218 0-.203125-.203124-.203125-.402343-.203125s-.199219.203125-.199219.203125c-1.199219 6.597656-6.398438 11.796875-13.199219 13.199218-.199219 0-.199219.199219-.199219.398438s.199219.199219.199219.199219c6.597657 1.203125 11.800781 6.402343 13.199219 13.203125 0 .199218.199219.199218.398438.199218.203124 0 .203124-.199218.203124-.199218 1.199219-6.601563 6.398438-11.800782 13.199219-13.203125.199219 0 .199219-.199219.199219-.398438s0-.199219-.199219-.199219zm0 0" fill="#55acd5"/><path d="m341.398438 198.402344c-10.398438 0-20.597657-4-28-11.402344l-135.199219-126.398438c-2-1.800781-2.199219-4.800781-.398438-6.800781 5.800781-7 14.398438-11 23.398438-11h280.199219c9 0 17.800781 4 23.402343 11 1.597657 2 1.398438 5-.402343 6.800781l-135.398438 126.597657c-7.199219 7.402343-17.199219 11.402343-27.601562 11.203125zm-152.597657-141.601563 131.597657 123.199219c11.601562 11.402344 30.203124 11.402344 41.800781.199219l131.800781-123.398438c-3.601562-2.800781-8-4.199219-12.398438-4.199219h-280.402343c-4.398438 0-8.800781 1.597657-12.398438 4.199219zm0 0"/><path d="m310.800781 470.199219h-280.402343c-16.796876 0-30.398438-13.597657-30.398438-30.398438v-193.601562c0-16.796875 13.601562-30.398438 30.398438-30.398438h280.203124c16.796876 0 30.398438 13.601563 30.398438 30.398438v193.601562c.199219 16.800781-13.398438 30.398438-30.199219 30.398438zm-280.402343-244.597657c-11.199219 0-20.398438 9.199219-20.398438 20.398438v193.601562c0 11.199219 9.199219 20.398438 20.398438 20.398438h280.203124c11.199219 0 20.398438-9.199219 20.398438-20.398438v-193.601562c0-11.199219-9.199219-20.398438-20.398438-20.398438zm0 0"/><path d="m170.601562 371.402344c-10.402343 0-20.402343-4-27.800781-11.402344l-135.402343-126.398438c-2-1.800781-2.199219-4.800781-.398438-6.800781 5.800781-7 14.398438-11 23.398438-11h280.203124c9 0 17.796876 4 23.398438 11 1.601562 2 1.398438 5-.398438 6.800781l-135.402343 126.597657c-7.199219 7.203125-17.199219 11.203125-27.597657 11.203125zm-152.601562-141.601563 131.601562 123.199219c5.597657 5.601562 13 8.601562 21 8.601562h.199219c7.800781 0 15.199219-3 20.800781-8.402343l131.597657-123.199219c-3.597657-2.800781-8-4.199219-12.398438-4.199219h-280.402343c-4.398438-.199219-8.796876 1.199219-12.398438 4zm0 0"/><path d="m310.800781 470.199219h-280.402343c-9 0-17.796876-4-23.398438-11-1.800781-2.199219-1.398438-5.199219.601562-7l126-108c2-1.597657 4.796876-1.597657 6.597657.203125l9.402343 8.796875c.199219 0 .199219.203125.199219.203125 10.398438 11.398437 28 12.199218 39.398438 2 .601562-.601563 1.402343-1.203125 2-2 0-.203125.199219-.203125.199219-.203125l9.402343-8.796875c1.800781-1.800782 4.800781-1.800782 6.597657-.203125l126 108c2 1.800781 2.402343 4.800781.601562 7-5.601562 6.800781-14.199219 11-23.199219 11zm-292.601562-14c3.601562 2.601562 7.800781 4 12.199219 4h280.203124c4.398438 0 8.597657-1.398438 12.199219-4l-118.402343-101.597657-6 5.597657c-7.199219 7.800781-17.398438 12.203125-28 12.203125-10.597657 0-20.796876-4.402344-28-12.203125l-6-5.597657zm0 0"/><path d="m481.601562 297.199219h-145.402343c-2.800781 0-5-2.199219-5-5v-46.199219c0-11.199219-9.199219-20.398438-20.398438-20.398438h-135c-2.800781 0-5-2.199218-5-5v-147.402343c0-16.796875 13.597657-30.398438 30.398438-30.398438h280.199219c16.800781 0 30.402343 13.601563 30.402343 30.398438v193.601562c.199219 16.800781-13.402343 30.398438-30.199219 30.398438zm-140.402343-10h140.402343c11.199219 0 20.398438-9.199219 20.398438-20.398438v-193.601562c0-11.199219-9.199219-20.398438-20.398438-20.398438h-280.402343c-11.199219 0-20.398438 9.199219-20.398438 20.398438v142.601562h130c16.800781 0 30.398438 13.601563 30.398438 30.398438zm0 0"/><path d="m481.601562 297.199219h-145.402343c-2.800781 0-5-2.199219-5-5v-46.199219c0-11.199219-9.199219-20.398438-20.398438-20.398438h-56.402343c-2.796876 0-5-2.199218-5-5 0-1.402343.601562-2.800781 1.800781-3.800781l53.402343-45.800781c2-1.597656 4.796876-1.597656 6.597657.199219l9.402343 8.800781c.199219 0 .199219.199219.199219.199219 10.398438 11.402343 28 12.203125 39.398438 2 .601562-.597657 1.402343-1.199219 2-2 0 0 .199219-.199219.199219-.199219l9.402343-8.800781c1.800781-1.796875 4.800781-1.796875 6.597657-.199219l126 108c2 1.800781 2.402343 4.800781.601562 7-5.800781 7.199219-14.398438 11.199219-23.398438 11.199219zm-140.402343-10h140.402343c4.398438 0 8.597657-1.398438 12.199219-4l-118.402343-101.597657-6 5.597657c-14.199219 15.402343-38.199219 16.402343-53.597657 2.402343-.800781-.800781-1.601562-1.601562-2.402343-2.402343l-6-5.597657-39.796876 34h43c16.796876 0 30.398438 13.597657 30.398438 30.398438zm0 0"/><g fill="#231f20"><path d="m434.199219 386.800781h-68.199219c-2.800781 0-5-2.199219-5-5s2.199219-5 5-5h68.199219c2.800781 0 5 2.199219 5 5s-2.199219 5-5 5zm0 0"/><path d="m417.199219 416.199219h-51.199219c-2.800781 0-5-2.199219-5-5 0-2.796875 2.199219-5 5-5h51.199219c2.800781 0 5 2.203125 5 5 0 2.800781-2.199219 5-5 5zm0 0"/><path d="m403.199219 328h-37.199219c-2.800781 0-5-2.199219-5-5s2.199219-5 5-5h37.199219c2.800781 0 5 2.199219 5 5s-2.199219 5-5 5zm0 0"/><path d="m417.199219 357.402344h-51.199219c-2.800781 0-5-2.203125-5-5 0-2.800782 2.199219-5 5-5h51.199219c2.800781 0 5 2.199218 5 5 0 2.796875-2.199219 5-5 5zm0 0"/><path d="m403.199219 445.601562h-37.199219c-2.800781 0-5-2.199218-5-5 0-2.800781 2.199219-5 5-5h37.199219c2.800781 0 5 2.199219 5 5 0 2.800782-2.199219 5-5 5zm0 0"/><path d="m142.398438 134.800781h-68.398438c-2.800781 0-5-2.199219-5-5s2.199219-5 5-5h68.199219c2.800781 0 5 2.199219 5 5s-2.199219 5-4.800781 5zm0 0"/><path d="m142.398438 164.199219h-51.199219c-2.800781 0-5-2.199219-5-5 0-2.796875 2.199219-5 5-5h51.199219c2.800781 0 5 2.203125 5 5 0 2.800781-2.398438 5-5 5zm0 0"/><path d="m142.398438 76h-37.199219c-2.800781 0-5-2.199219-5-5s2.199219-5 5-5h37.199219c2.800781 0 5 2.199219 5 5s-2.398438 5-5 5zm0 0"/><path d="m142.398438 105.402344h-51.199219c-2.800781 0-5-2.203125-5-5 0-2.800782 2.199219-5 5-5h51.199219c2.800781 0 5 2.199218 5 5 0 2.796875-2.398438 5-5 5zm0 0"/><path d="m142.398438 193.601562h-37.199219c-2.800781 0-5-2.199218-5-5 0-2.800781 2.199219-5 5-5h37.199219c2.800781 0 5 2.199219 5 5 0 2.800782-2.398438 5-5 5zm0 0"/></g></svg>