<svg id="Layer_1" enable-background="new 0 0 512.097 512.097" height="512" viewBox="0 0 512.097 512.097" width="512" xmlns="http://www.w3.org/2000/svg" xmlns:xlink="http://www.w3.org/1999/xlink"><linearGradient id="SVGID_1_" gradientUnits="userSpaceOnUse" x1="256.048" x2="256.048" y1="0" y2="512.097"><stop offset="0" stop-color="#2af598"/><stop offset="1" stop-color="#009efd"/></linearGradient><path d="m512.048 356c0 44.663-36.337 81-81 81-11.7 0-22.818-2.514-32.871-6.997 13.827-6.717 24.7-18.592 30.111-33.106.913.061 1.832.103 2.76.103 22.607 0 41-18.393 41-41 0-22.661-18.393-40-41-40l-105.783-.047c2.441-6.527 3.783-13.585 3.783-20.953 0-7.011-1.22-13.74-3.44-20h105.44c44.663 0 81 36.283 81 81zm-122 116c-11.046 0-20 8.954-20 20s8.954 20 20 20 20-8.954 20-20-8.954-20-20-20zm-302-34c-11.046 0-20 8.954-20 20s8.954 20 20 20 20-8.954 20-20-8.954-20-20-20zm76-252c-11.046 0-20 8.954-20 20s8.954 20 20 20 20-8.954 20-20-8.954-20-20-20zm170-186c-11.046 0-20 8.954-20 20s8.954 20 20 20 20-8.954 20-20-8.954-20-20-20zm-52 90c-11.046 0-20 8.954-20 20s8.954 20 20 20 20-8.954 20-20-8.954-20-20-20zm210-90c-11.046 0-20 8.954-20 20s8.954 20 20 20 20-8.954 20-20-8.954-20-20-20zm-222 276c-11.046 0-20 8.954-20 20s8.954 20 20 20 20-8.954 20-20-8.954-20-20-20zm102 80c-11.046 0-20 8.954-20 20s8.954 20 20 20 20-8.954 20-20-8.954-20-20-20zm-162-60c0-7.011 1.22-13.74 3.44-20h-213.44v39.903h213.408c-2.199-6.232-3.408-12.928-3.408-19.903zm221-232c-44.663 0-81 36.337-81 81h40c0-22.607 18.393-41 41-41s41 18.393 41 41c0 22.661-18.393 40-41 40l-210.783.047c2.441 6.527 3.783 13.585 3.783 20.953 0 7.011-1.22 13.74-3.44 20h210.44c44.663 0 81-36.283 81-81 0-44.663-36.337-81-81-81zm-327 142c0-7.358 1.338-14.408 3.773-20.927l-107.773.024v40.903h107.44c-2.22-6.26-3.44-12.989-3.44-20zm127.956 154.097h-231.956v39.903h231.956v.097c19.826 0 35.955 16.17 35.955 36.045 0 19.825-16.129 35.955-35.955 35.955-18.523 0-33.814-14.079-35.746-32.097h-40.112c2.017 40.096 35.271 72.097 75.858 72.097 41.882 0 75.955-34.073 75.955-75.955 0-41.932-34.073-76.045-75.955-76.045zm-73.915-360.097c-33.392 0-61.216 24.213-66.887 56h41.618c4.492-9.45 14.128-16 25.269-16 15.418 0 27.962 12.544 27.962 27.963 0 15.46-12.544 28.037-27.962 28.037h-158.041v40h158.041c37.475 0 67.962-30.521 67.962-68.037 0-37.475-30.487-67.963-67.962-67.963z" fill="url(#SVGID_1_)"/></svg>