<svg xmlns="http://www.w3.org/2000/svg" width="512" height="511.43" viewBox="0 0 512 511.43"><path d="M184.176,417.711H327.235v59.211H184.176Zm0,0" fill="#5a5a5a"/><path d="M485.156,426H26.254A26.253,26.253,0,0,1,0,399.75V26.254A26.253,26.253,0,0,1,26.254,0h458.9A26.253,26.253,0,0,1,511.41,26.254v373.5A26.253,26.253,0,0,1,485.156,426Zm0,0" fill="#ffd86e"/><path d="M511.414,26.258V399.75A26.253,26.253,0,0,1,485.16,426H453.09a26.253,26.253,0,0,0,26.254-26.254V26.258A26.253,26.253,0,0,0,453.09,0h32.07a26.253,26.253,0,0,1,26.254,26.254Zm0,0" fill="#ffb509"/><path d="M511.41,362.754H0v37A26.253,26.253,0,0,0,26.254,426h458.9A26.253,26.253,0,0,0,511.41,399.75Zm0,0" fill="#838383"/><path d="M511.414,362.75v37A26.253,26.253,0,0,1,485.16,426H453.09a26.253,26.253,0,0,0,26.254-26.254v-37Zm0,0" fill="#5a5a5a"/><path d="M512,89.563H.57V26.254A26.253,26.253,0,0,1,26.82,0H485.742A26.253,26.253,0,0,1,512,26.254Zm0,0" fill="#acacac"/><path d="M512,26.25V89.566H479.344V26.25A26.253,26.253,0,0,0,453.086,0h32.66A26.252,26.252,0,0,1,512,26.25Zm0,0" fill="#9c9c9c"/><path d="M373.594,511.426H137.817a5.146,5.146,0,0,1-5.145-5.145V489.606a20.477,20.477,0,0,1,20.477-20.477H358.262a20.477,20.477,0,0,1,20.477,20.477v16.676a5.146,5.146,0,0,1-5.145,5.145Zm0,0" fill="#838383"/><path d="M378.738,489.6v16.684a5.147,5.147,0,0,1-5.148,5.145H355.425V489.6a20.477,20.477,0,0,0-20.469-20.473h23.313A20.472,20.472,0,0,1,378.738,489.6Zm0,0" fill="#5a5a5a"/><path d="M58.477,186.492a7.48,7.48,0,0,1-5.3-2.2l-24.2-24.2a7.5,7.5,0,0,1,0-10.605l24.2-24.2a7.5,7.5,0,1,1,10.609,10.605l-18.9,18.9,18.9,18.9a7.5,7.5,0,0,1-5.3,12.8Zm0,0" fill="#838383"/><path d="M116.336,186.492a7.5,7.5,0,0,1-5.3-12.8l18.9-18.9-18.9-18.9a7.5,7.5,0,0,1,10.609-10.605l24.2,24.2a7.5,7.5,0,0,1,0,10.605l-24.2,24.2a7.48,7.48,0,0,1-5.3,2.2Zm0,0" fill="#838383"/><path d="M78.723,186.5a7.509,7.509,0,0,1-6.98-10.246l19.016-48.4a7.5,7.5,0,1,1,13.961,5.488L85.7,181.734a7.5,7.5,0,0,1-6.98,4.762Zm0,0" fill="#838383"/><path d="M90.645,231.781h-52a7.5,7.5,0,0,1,0-15h52a7.5,7.5,0,0,1,0,15Zm0,0" fill="#838383"/><path d="M210.418,231.781H118.992a7.5,7.5,0,0,1,0-15h91.426a7.5,7.5,0,1,1,0,15Zm0,0" fill="#838383"/><path d="M60.8,264.336H38.645a7.5,7.5,0,0,1,0-15H60.8a7.5,7.5,0,1,1,0,15Zm0,0" fill="#838383"/><path d="M195.668,264.336H182.176a7.5,7.5,0,0,1,0-15h13.492a7.5,7.5,0,0,1,0,15Zm0,0" fill="#838383"/><path d="M154.141,264.336H87.883a7.5,7.5,0,0,1,0-15h66.258a7.5,7.5,0,1,1,0,15Zm0,0" fill="#838383"/><path d="M245.414,264.336h-25.27a7.5,7.5,0,0,1,0-15h25.27a7.5,7.5,0,0,1,0,15Zm0,0" fill="#838383"/><path d="M197.039,160.762H170.387a7.5,7.5,0,0,1,0-15h26.652a7.5,7.5,0,0,1,0,15Zm0,0" fill="#838383"/><path d="M389.5,160.762H226.887a7.5,7.5,0,0,1,0-15H389.5a7.5,7.5,0,0,1,0,15Zm0,0" fill="#838383"/><path d="M364.8,194.727H298.934a7.5,7.5,0,0,1,0-15H364.8a7.5,7.5,0,0,1,0,15Zm0,0" fill="#838383"/><path d="M274.23,194.727H251.586a7.5,7.5,0,0,1,0-15H274.23a7.5,7.5,0,0,1,0,15Zm0,0" fill="#838383"/><path d="M225.859,194.727H170.382a7.5,7.5,0,0,1,0-15h55.477a7.5,7.5,0,0,1,0,15Zm0,0" fill="#838383"/><path d="M154.238,296.621h-52a7.5,7.5,0,0,1,0-15h52a7.5,7.5,0,0,1,0,15Zm0,0" fill="#838383"/><path d="M78.6,296.621H38.645a7.5,7.5,0,0,1,0-15H78.6a7.5,7.5,0,0,1,0,15Zm0,0" fill="#838383"/><path d="M248.5,296.621H180.574a7.5,7.5,0,0,1,0-15H248.5a7.5,7.5,0,0,1,0,15Zm0,0" fill="#838383"/><path d="M296.664,263.391H463.816V320H296.664Zm0,0" fill="#64dcfc"/><path d="M296.664,350.871H463.816v52.492H296.664Zm0,0" fill="#64dcfc"/><path d="M444.051,263.391h19.766V320H444.051Zm0,0" fill="#00d1fc"/><path d="M444.051,350.871h19.766v52.492H444.051Zm0,0" fill="#00d1fc"/><path d="M477.656,275.688H282.824a7.46,7.46,0,0,1-7.461-7.461V230.711a7.46,7.46,0,0,1,7.461-7.461H477.656a7.46,7.46,0,0,1,7.461,7.461v37.516A7.46,7.46,0,0,1,477.656,275.688Zm0,0" fill="#0396fd"/><path d="M477.656,359.809H282.824a7.46,7.46,0,0,1-7.461-7.461V314.832a7.46,7.46,0,0,1,7.461-7.461H477.656a7.46,7.46,0,0,1,7.461,7.461v37.516A7.46,7.46,0,0,1,477.656,359.809Zm0,0" fill="#0396fd"/><path d="M477.656,443.93H282.824a7.46,7.46,0,0,1-7.461-7.461V398.953a7.46,7.46,0,0,1,7.461-7.461H477.656a7.46,7.46,0,0,1,7.461,7.461v37.516A7.46,7.46,0,0,1,477.656,443.93Zm0,0" fill="#0396fd"/><path d="M485.117,230.711v37.516a7.46,7.46,0,0,1-7.461,7.461H460.344a7.458,7.458,0,0,0,7.461-7.461V230.711a7.458,7.458,0,0,0-7.461-7.461h17.313A7.46,7.46,0,0,1,485.117,230.711Zm0,0" fill="#0077f0"/><path d="M485.117,314.828v37.516a7.456,7.456,0,0,1-7.461,7.465H460.344a7.454,7.454,0,0,0,7.461-7.465V314.828a7.458,7.458,0,0,0-7.461-7.461h17.313A7.46,7.46,0,0,1,485.117,314.828Zm0,0" fill="#0077f0"/><path d="M485.117,398.957v37.516a7.46,7.46,0,0,1-7.461,7.461H460.344a7.458,7.458,0,0,0,7.461-7.461V398.957a7.453,7.453,0,0,0-7.461-7.461h17.313A7.455,7.455,0,0,1,485.117,398.957Zm0,0" fill="#0077f0"/><path d="M340.363,256.969H303.219a7.5,7.5,0,0,1,0-15h37.148a7.5,7.5,0,1,1,0,15Zm0,0" fill="#e7e7e7"/><path d="M457.262,256.969H404.821a7.5,7.5,0,0,1,0-15h52.438a7.5,7.5,0,0,1,0,15Zm0,0" fill="#e7e7e7"/><path d="M378.6,256.969h-12.02a7.5,7.5,0,0,1,0-15H378.6a7.5,7.5,0,0,1,0,15Zm0,0" fill="#e7e7e7"/><path d="M340.363,341.09H303.219a7.5,7.5,0,0,1,0-15h37.148a7.5,7.5,0,1,1,0,15Zm0,0" fill="#e7e7e7"/><path d="M457.262,341.09H404.821a7.5,7.5,0,0,1,0-15h52.438a7.5,7.5,0,0,1,0,15Zm0,0" fill="#e7e7e7"/><path d="M378.6,341.09h-12.02a7.5,7.5,0,0,1,0-15H378.6a7.5,7.5,0,0,1,0,15Zm0,0" fill="#e7e7e7"/><path d="M340.363,425.211H303.219a7.5,7.5,0,0,1,0-15h37.148a7.5,7.5,0,1,1,0,15Zm0,0" fill="#e7e7e7"/><path d="M457.262,425.211H404.821a7.5,7.5,0,0,1,0-15h52.438a7.5,7.5,0,0,1,0,15Zm0,0" fill="#e7e7e7"/><path d="M378.6,425.211h-12.02a7.5,7.5,0,0,1,0-15H378.6a7.5,7.5,0,0,1,0,15Zm0,0" fill="#e7e7e7"/><path d="M64.145,44.563A14.936,14.936,0,1,1,49.211,29.629,14.933,14.933,0,0,1,64.145,44.563Zm0,0" fill="#ff5770"/><path d="M121.816,44.563a14.934,14.934,0,1,1-14.934-14.934A14.931,14.931,0,0,1,121.816,44.563Zm0,0" fill="#ffd86e"/><path d="M179.492,44.563a14.934,14.934,0,1,1-14.934-14.934A14.933,14.933,0,0,1,179.492,44.563Zm0,0" fill="#80e0dc"/><path d="M64.137,44.566a14.922,14.922,0,0,1-25.227,10.8,14.917,14.917,0,0,0,9.953-25.719c.113-.012.238-.012.352-.012A14.923,14.923,0,0,1,64.137,44.566Zm0,0" fill="#ff435f"/><path d="M121.813,44.566a14.928,14.928,0,0,1-25.234,10.8,14.92,14.92,0,0,0,9.965-25.719,3.218,3.218,0,0,1,.34-.012,14.922,14.922,0,0,1,14.93,14.934Zm0,0" fill="#ffb509"/><path d="M179.492,44.566a14.931,14.931,0,0,1-25.238,10.8,14.917,14.917,0,0,0,9.953-25.719c.113-.012.238-.012.352-.012a14.933,14.933,0,0,1,14.934,14.934Zm0,0" fill="#00a8b0"/></svg>