<svg height="512pt" viewBox="0 -16 512 511" width="512pt" xmlns="http://www.w3.org/2000/svg"><path d="m129.765625 479.324219c-11.300781 0-20.628906-7.011719-23.773437-17.859375l-20.351563-70.300782c-1.207031-4.160156 1.1875-8.503906 5.347656-9.707031 4.152344-1.203125 8.503907 1.1875 9.707031 5.347657l20.351563 70.300781c1.398437 4.824219 5.421875 6.542969 8.71875 6.542969 3.292969 0 7.316406-1.71875 8.714844-6.546876l20.351562-70.300781c1.203125-4.15625 5.550781-6.550781 9.707031-5.347656 4.160157 1.203125 6.554688 5.550781 5.347657 9.707031l-20.351563 70.300782c-3.144531 10.851562-12.472656 17.863281-23.769531 17.863281zm0 0" fill="#e23333"/><path d="m18.789062 287.117188v49.019531l35.742188 35.742187h403.394531l38.296875-38.296875v-132.253906h-479.476562" fill="#f49642"/><path d="m102.53125 69.585938h72.167969v44.9375h-72.167969zm0 0" fill="#305967"/><path d="m102.53125 69.585938h29.597656v44.9375h-29.597656zm0 0" fill="#1c414b"/><path d="m426.972656 396.839844h-341.945312c-46.882813 0-85.027344-36.234375-85.027344-80.773438v-234.792968c0-44.539063 38.144531-80.773438 85.027344-80.773438h341.945312c46.882813 0 85.027344 36.234375 85.027344 80.773438v234.792968c0 44.539063-38.144531 80.773438-85.027344 80.773438zm-341.945312-363.121094c-28.566406 0-51.804688 21.335938-51.804688 47.554688v234.792968c0 26.222656 23.238282 47.554688 51.804688 47.554688h341.945312c28.566406 0 51.804688-21.332032 51.804688-47.554688v-234.792968c0-26.21875-23.238282-47.554688-51.804688-47.554688zm0 0" fill="#f95858"/><path d="m478.191406 234.351562h-170.105468c-26.136719 0-49.496094 16.316407-58.496094 40.855469-8.996094 24.542969-32.355469 40.859375-58.492188 40.859375h-157.875v-172.949218h444.96875zm0 0" fill="#305967"/><path d="m467.773438 143.113281h-423.550782c0-11.316406 4.585938-21.554687 12.007813-28.960937 7.40625-7.421875 17.65625-12.007813 28.972656-12.007813h341.597656c22.625 0 40.972657 18.347657 40.972657 40.96875zm0 0" fill="#f49642"/><path d="m467.773438 143.113281h-359.550782c0-11.316406 4.585938-21.554687 12.007813-28.960937 7.417969-7.421875 17.65625-12.007813 28.972656-12.007813h277.597656c22.625 0 40.972657 18.347657 40.972657 40.96875zm0 0" fill="#f7c359"/><path d="m131.550781 246.34375c0 18.542969-15.03125 33.574219-33.574219 33.574219-18.542968 0-33.574218-15.03125-33.574218-33.574219s15.03125-33.574219 33.574218-33.574219c18.542969 0 33.574219 15.03125 33.574219 33.574219zm0 0" fill="#8db0c6"/><path d="m97.976562 287.753906c-22.832031 0-41.410156-18.578125-41.410156-41.410156 0-22.835938 18.578125-41.414062 41.410156-41.414062 22.835938 0 41.410157 18.578124 41.410157 41.414062 0 22.832031-18.574219 41.410156-41.410157 41.410156zm0-67.148437c-14.191406 0-25.738281 11.546875-25.738281 25.738281s11.546875 25.738281 25.738281 25.738281c14.191407 0 25.738282-11.546875 25.738282-25.738281s-11.546875-25.738281-25.738282-25.738281zm0 0" fill="#f7c359"/><path d="m97.976562 252.613281c-3.460937 0-6.269531-2.808593-6.269531-6.269531v-15.597656c0-3.460938 2.808594-6.269532 6.269531-6.269532 3.464844 0 6.269532 2.808594 6.269532 6.269532v15.597656c0 3.460938-2.804688 6.269531-6.269532 6.269531zm0 0" fill="#1c414b"/><path d="m222.785156 246.34375c0 18.542969-15.03125 33.574219-33.574218 33.574219-18.542969 0-33.574219-15.03125-33.574219-33.574219s15.03125-33.574219 33.574219-33.574219c18.542968 0 33.574218 15.03125 33.574218 33.574219zm0 0" fill="#8db0c6"/><path d="m189.210938 287.753906c-22.835938 0-41.414063-18.578125-41.414063-41.410156 0-22.835938 18.578125-41.414062 41.414063-41.414062 22.835937 0 41.410156 18.578124 41.410156 41.414062 0 22.832031-18.578125 41.410156-41.410156 41.410156zm0-67.148437c-14.191407 0-25.738282 11.546875-25.738282 25.738281s11.546875 25.738281 25.738282 25.738281c14.191406 0 25.738281-11.546875 25.738281-25.738281-.003907-14.191406-11.546875-25.738281-25.738281-25.738281zm0 0" fill="#f7c359"/><path d="m189.210938 252.613281c-3.460938 0-6.269532-2.808593-6.269532-6.269531v-15.597656c0-3.460938 2.808594-6.269532 6.269532-6.269532 3.460937 0 6.269531 2.808594 6.269531 6.269532v15.597656c0 3.460938-2.808594 6.269531-6.269531 6.269531zm0 0" fill="#1c414b"/><path d="m351.714844 315.398438v-81.054688h46.300781v69.496094" fill="#e6e6e6"/><g fill="#305967"><path d="m325.84375 280.3125h-42.210938c-4.328124 0-7.835937-3.507812-7.835937-7.835938 0-4.328124 3.507813-7.835937 7.835937-7.835937h42.210938c4.328125 0 7.835938 3.507813 7.835938 7.835937 0 4.328126-3.507813 7.835938-7.835938 7.835938zm0 0"/><path d="m325.84375 306.1875h-42.210938c-4.328124 0-7.835937-3.511719-7.835937-7.839844s3.507813-7.835937 7.835937-7.835937h42.210938c4.328125 0 7.835938 3.507812 7.835938 7.835937s-3.507813 7.839844-7.835938 7.839844zm0 0"/><path d="m483.101562 391.558594c0 48.472656-39.292968 87.765625-87.761718 87.765625-48.472656 0-87.765625-39.292969-87.765625-87.765625 0-48.46875 39.292969-87.761719 87.765625-87.761719 48.46875 0 87.761718 39.292969 87.761718 87.761719zm0 0"/></g><path d="m435.574219 391.558594c0 22.222656-18.015625 40.234375-40.234375 40.234375-22.222656 0-40.234375-18.011719-40.234375-40.234375 0-22.21875 18.011719-40.234375 40.234375-40.234375 22.21875 0 40.234375 18.015625 40.234375 40.234375zm0 0" fill="#e6e6e6"/><path d="m395.339844 439.628906c-26.507813 0-48.070313-21.5625-48.070313-48.070312 0-26.507813 21.5625-48.070313 48.070313-48.070313 26.503906 0 48.070312 21.566407 48.070312 48.070313 0 26.507812-21.566406 48.070312-48.070312 48.070312zm0-80.464844c-17.863282 0-32.398438 14.53125-32.398438 32.394532 0 17.863281 14.535156 32.398437 32.398438 32.398437 17.863281 0 32.394531-14.535156 32.394531-32.398437 0-17.863282-14.53125-32.394532-32.394531-32.394532zm0 0" fill="#1c414b"/><path d="m33.222656 143.117188h444.96875v34.042968h-444.96875zm0 0" fill="#f95858"/></svg>