<svg width="512" height="512" viewBox="0 0 512 512" fill="none" xmlns="http://www.w3.org/2000/svg">
<g clip-path="url(#clip0)">
<path d="M129.766 495.824C118.465 495.824 109.137 488.812 105.992 477.965L85.6406 407.664C84.4336 403.504 86.8281 399.16 90.9883 397.957C95.1406 396.754 99.4922 399.145 100.695 403.305L121.047 473.605C122.445 478.43 126.469 480.148 129.766 480.148C133.059 480.148 137.082 478.43 138.48 473.602L158.832 403.301C160.035 399.145 164.383 396.75 168.539 397.953C172.699 399.156 175.094 403.504 173.887 407.66L153.535 477.961C150.391 488.812 141.063 495.824 129.766 495.824V495.824Z" fill="#33B8F5"/>
<path d="M18.7891 303.617V352.637L54.5312 388.379H457.926L496.223 350.082V217.828H16.7461" fill="#33B8F5"/>
<path d="M102.531 86.0859H174.699V131.023H102.531V86.0859Z" fill="#45A6D3"/>
<path d="M102.531 86.0859H132.129V131.023H102.531V86.0859Z" fill="#27849D"/>
<path d="M426.973 413.34H85.0273C38.1445 413.34 0 377.105 0 332.566V97.7734C0 53.2344 38.1445 17 85.0273 17H426.973C473.855 17 512 53.2344 512 97.7734V332.566C512 377.105 473.855 413.34 426.973 413.34V413.34ZM85.0273 50.2188C56.4609 50.2188 33.2227 71.5547 33.2227 97.7734V332.566C33.2227 358.789 56.4609 380.121 85.0273 380.121H426.973C455.539 380.121 478.777 358.789 478.777 332.566V97.7734C478.777 71.5547 455.539 50.2188 426.973 50.2188H85.0273Z" fill="#0095DA"/>
<path d="M478.191 250.852H308.086C281.949 250.852 258.59 267.168 249.59 291.707C240.594 316.25 217.234 332.566 191.098 332.566H33.2227V159.617H478.191V250.852Z" fill="#305967"/>
<path d="M467.773 159.613H44.2227C44.2227 148.297 48.8086 138.059 56.2305 130.652C63.6367 123.23 73.8867 118.645 85.2031 118.645H426.801C449.426 118.645 467.773 136.992 467.773 159.613Z" fill="#23A2DD"/>
<path d="M467.773 159.613H108.223C108.223 148.297 112.809 138.059 120.23 130.652C127.648 123.23 137.887 118.645 149.203 118.645H426.801C449.426 118.645 467.773 136.992 467.773 159.613V159.613Z" fill="#72CBF4"/>
<path d="M351.715 331.898V250.844H398.016V320.34" fill="#E6E6E6"/>
<path d="M325.844 296.812H283.633C279.305 296.812 275.797 293.305 275.797 288.977C275.797 284.648 279.305 281.141 283.633 281.141H325.844C330.172 281.141 333.68 284.648 333.68 288.977C333.68 293.305 330.172 296.812 325.844 296.812Z" fill="#0095DA"/>
<path d="M325.844 322.688H283.633C279.305 322.688 275.797 319.176 275.797 314.848C275.797 310.52 279.305 307.012 283.633 307.012H325.844C330.172 307.012 333.68 310.52 333.68 314.848C333.68 319.176 330.172 322.688 325.844 322.688Z" fill="#0095DA"/>
<path d="M483.102 408.059C483.102 456.531 443.809 495.824 395.34 495.824C346.867 495.824 307.574 456.531 307.574 408.059C307.574 359.59 346.867 320.297 395.34 320.297C443.809 320.297 483.102 359.59 483.102 408.059V408.059Z" fill="#305967"/>
<path d="M435.574 408.059C435.574 430.281 417.559 448.293 395.34 448.293C373.117 448.293 355.105 430.281 355.105 408.059C355.105 385.84 373.117 367.824 395.34 367.824C417.559 367.824 435.574 385.84 435.574 408.059Z" fill="#E6E6E6"/>
<path d="M395.34 456.129C368.832 456.129 347.27 434.566 347.27 408.059C347.27 381.551 368.832 359.988 395.34 359.988C421.844 359.988 443.41 381.555 443.41 408.059C443.41 434.566 421.844 456.129 395.34 456.129ZM395.34 375.664C377.477 375.664 362.941 390.195 362.941 408.059C362.941 425.922 377.477 440.457 395.34 440.457C413.203 440.457 427.734 425.922 427.734 408.059C427.734 390.195 413.203 375.664 395.34 375.664V375.664Z" fill="#1C414B"/>
<path d="M33.2227 159.617H478.191V193.66H33.2227V159.617Z" fill="#0095DA"/>
<path fill-rule="evenodd" clip-rule="evenodd" d="M114.246 210.138C84.2873 210.138 60 234.426 60 264.385C60 294.341 84.2873 318.631 114.246 318.631C127.97 318.631 140.503 313.533 150.056 305.127C148.304 303.302 147.228 300.822 147.228 298.091C147.228 292.477 151.779 287.926 157.393 287.926C159.236 287.926 160.965 288.416 162.455 289.272L162.575 289.039C155.56 285.807 150.689 278.719 150.689 270.486C150.689 261.876 156.023 254.513 163.565 251.515C163.156 251.551 162.743 251.572 162.324 251.572C155.175 251.572 149.385 245.777 149.385 238.631C149.385 234.352 151.459 230.561 154.659 228.204C144.727 217.117 130.304 210.138 114.246 210.138Z" fill="#0095DA"/>
<path d="M112.296 231.192C116.831 231.192 121.165 232.098 125.13 233.742C129.254 235.45 132.954 237.942 136.041 241.027C142.119 247.105 145.879 255.5 145.879 264.772C145.879 267.053 145.641 269.305 145.193 271.507C144.738 273.749 144.059 275.904 143.187 277.946L141.635 281.584L139.165 278.494C138.751 277.978 138.262 277.47 137.701 276.983C137.165 276.514 136.596 276.1 136.005 275.749L134.329 274.752L134.986 272.914C135.439 271.651 135.792 270.319 136.033 268.92C136.266 267.585 136.387 266.197 136.387 264.772C136.387 261.497 135.74 258.38 134.567 255.552C133.355 252.62 131.561 249.97 129.332 247.739C127.101 245.507 124.449 243.716 121.519 242.501C118.688 241.331 115.574 240.681 112.296 240.681C109.02 240.681 105.904 241.331 103.076 242.501C100.143 243.716 97.4931 245.507 95.2621 247.739C90.9048 252.098 88.205 258.121 88.205 264.772C88.205 268.051 88.8544 271.164 90.0276 273.995C91.24 276.925 93.0311 279.578 95.2621 281.809C97.4931 284.037 100.143 285.828 103.076 287.043C105.904 288.217 109.02 288.863 112.296 288.863C113.024 288.863 113.741 288.829 114.448 288.769C115.158 288.706 115.862 288.612 116.562 288.486L118.481 288.146L119.185 289.971C119.439 290.62 119.754 291.251 120.123 291.854C120.497 292.464 120.916 293.029 121.377 293.543L124.022 296.489L120.162 297.416C118.85 297.73 117.549 297.968 116.268 298.12H116.258C114.943 298.274 113.621 298.356 112.296 298.356C107.763 298.356 103.427 297.447 99.4623 295.805C95.338 294.098 91.638 291.605 88.5533 288.518C82.4756 282.443 78.7153 274.045 78.7153 264.772C78.7153 260.24 79.6213 255.903 81.2632 251.941C82.9705 247.814 85.466 244.114 88.5533 241.027C91.638 237.942 95.338 235.45 99.4623 233.742C103.427 232.098 107.763 231.192 112.296 231.192ZM123.333 238.115C119.945 236.712 116.216 235.939 112.296 235.939C116.187 235.939 119.911 236.717 123.315 238.128C126.779 239.561 129.893 241.637 132.504 244.203C129.872 241.619 126.766 239.537 123.333 238.115ZM141.082 263.065C140.689 256.348 137.997 250.247 133.781 245.542C135.929 247.94 137.683 250.713 138.943 253.753C140.145 256.657 140.888 259.792 141.082 263.065ZM140.558 270.562C140.928 268.76 141.124 266.87 141.132 264.909C141.124 266.537 140.977 268.145 140.705 269.716C140.529 270.738 140.294 271.748 140.006 272.746L140.019 272.756C140.228 272.034 140.406 271.303 140.558 270.562ZM101.277 238.128C104.684 236.717 108.407 235.939 112.296 235.939C108.376 235.939 104.65 236.712 101.261 238.115C97.8283 239.537 94.7201 241.619 92.0884 244.203C94.6991 241.637 97.8152 239.561 101.277 238.128ZM83.4602 264.772C83.4602 264.652 83.4628 264.534 83.4628 264.416C83.4628 264.534 83.4602 264.652 83.4602 264.772ZM83.4628 264.385C83.5675 256.576 86.7753 249.517 91.9077 244.384C89.2394 247.052 87.0947 250.224 85.6388 253.738C84.2824 257.014 83.5125 260.606 83.4628 264.385ZM85.6493 275.791C84.4448 272.887 83.7037 269.748 83.5099 266.472C83.9027 273.194 86.592 279.292 90.8079 284.003C88.6633 281.605 86.9088 278.832 85.6493 275.791ZM101.277 291.419C97.8152 289.984 94.6991 287.908 92.0884 285.344C94.7201 287.928 97.8283 290.008 101.261 291.43C104.65 292.833 108.376 293.608 112.296 293.608C108.407 293.608 104.684 292.83 101.277 291.419ZM114.857 293.496C114.061 293.566 113.257 293.603 112.448 293.608L114.857 293.496ZM115.572 293.425C115.334 293.451 115.095 293.475 114.857 293.496L115.572 293.425ZM115.572 293.427V293.425V293.427Z" fill="white"/>
<path fill-rule="evenodd" clip-rule="evenodd" d="M132.117 268.834C141.541 268.834 149.179 276.475 149.179 285.899C149.179 295.323 141.541 302.962 132.117 302.962C122.693 302.962 115.054 295.323 115.054 285.899C115.054 276.475 122.693 268.834 132.117 268.834Z" fill="#0095DA"/>
<path d="M128.296 281.008L121.831 279.85C122.367 277.792 123.402 276.21 124.931 275.116C126.463 274.021 128.623 273.471 131.42 273.471C134.638 273.471 136.958 274.066 138.391 275.262C139.823 276.462 140.54 277.97 140.54 279.782C140.54 280.848 140.25 281.809 139.668 282.67C139.084 283.534 138.207 284.291 137.031 284.941C137.985 285.176 138.713 285.449 139.215 285.76C140.03 286.266 140.666 286.928 141.119 287.756C141.572 288.575 141.803 289.555 141.803 290.702C141.803 292.134 141.423 293.503 140.677 294.823C139.928 296.135 138.844 297.151 137.435 297.861C136.023 298.573 134.172 298.927 131.873 298.927C129.637 298.927 127.872 298.665 126.576 298.141C125.282 297.615 124.219 296.84 123.383 295.831C122.551 294.818 121.909 293.545 121.464 292.008L128.296 291.102C128.566 292.48 128.985 293.435 129.553 293.97C130.113 294.496 130.836 294.766 131.705 294.766C132.624 294.766 133.392 294.428 133.999 293.755C134.607 293.087 134.916 292.186 134.916 291.068C134.916 289.926 134.617 289.044 134.036 288.413C133.444 287.79 132.645 287.473 131.637 287.473C131.106 287.473 130.365 287.612 129.425 287.876L129.775 282.992C130.16 283.05 130.451 283.079 130.663 283.079C131.564 283.079 132.308 282.791 132.91 282.217C133.507 281.649 133.805 280.968 133.805 280.188C133.805 279.436 133.58 278.834 133.135 278.386C132.687 277.941 132.075 277.719 131.289 277.719C130.48 277.719 129.825 277.965 129.322 278.447C128.817 278.934 128.479 279.787 128.296 281.008Z" fill="white"/>
<path fill-rule="evenodd" clip-rule="evenodd" d="M162.322 228.474C156.713 228.474 152.164 233.022 152.164 238.631C152.164 244.24 156.713 248.789 162.322 248.789C167.931 248.789 172.479 244.24 172.479 238.631C172.479 233.022 167.931 228.474 162.322 228.474Z" fill="#0095DA"/>
<path fill-rule="evenodd" clip-rule="evenodd" d="M171.108 253.18C161.548 253.18 153.8 260.928 153.8 270.489C153.8 280.049 161.548 287.795 171.108 287.795C180.666 287.795 188.415 280.049 188.415 270.489C188.415 260.928 180.666 253.18 171.108 253.18Z" fill="#0095DA"/>
<path fill-rule="evenodd" clip-rule="evenodd" d="M157.394 290.314C153.1 290.314 149.617 293.797 149.617 298.091C149.617 302.388 153.1 305.871 157.394 305.871C161.691 305.871 165.174 302.388 165.174 298.091C165.174 293.797 161.691 290.314 157.394 290.314Z" fill="#0095DA"/>
<path fill-rule="evenodd" clip-rule="evenodd" d="M182.741 236.35C178.496 236.35 175.058 239.789 175.058 244.031C175.058 248.273 178.496 251.711 182.741 251.711C186.98 251.711 190.418 248.273 190.418 244.031C190.418 239.789 186.98 236.35 182.741 236.35Z" fill="#0095DA"/>
<path fill-rule="evenodd" clip-rule="evenodd" d="M185.717 286.703C181.129 286.703 177.411 290.421 177.411 295.009C177.411 299.597 181.129 303.315 185.717 303.315C190.305 303.315 194.023 299.597 194.023 295.009C194.023 290.421 190.305 286.703 185.717 286.703Z" fill="#0095DA"/>
<path fill-rule="evenodd" clip-rule="evenodd" d="M204.619 239.741C198.408 239.741 193.375 244.777 193.375 250.988C193.375 257.2 198.408 262.235 204.619 262.235C210.831 262.235 215.866 257.2 215.866 250.988C215.866 244.777 210.831 239.741 204.619 239.741Z" fill="#0095DA"/>
<path fill-rule="evenodd" clip-rule="evenodd" d="M211.336 270.614C207.212 270.614 203.871 273.958 203.871 278.083C203.871 282.207 207.212 285.548 211.336 285.548C215.46 285.548 218.804 282.207 218.804 278.083C218.804 273.958 215.46 270.614 211.336 270.614Z" fill="#0095DA"/>
<path fill-rule="evenodd" clip-rule="evenodd" d="M195.717 264.416C193.285 264.416 191.313 266.388 191.313 268.823C191.313 271.256 193.285 273.228 195.717 273.228C198.15 273.228 200.124 271.256 200.124 268.823C200.124 266.388 198.15 264.416 195.717 264.416Z" fill="#0095DA"/>
<path fill-rule="evenodd" clip-rule="evenodd" d="M196.88 277.855C195.029 277.855 193.525 279.355 193.525 281.207C193.525 283.058 195.029 284.558 196.88 284.558C198.729 284.558 200.232 283.058 200.232 281.207C200.232 279.355 198.729 277.855 196.88 277.855Z" fill="#0095DA"/>
<path fill-rule="evenodd" clip-rule="evenodd" d="M171.864 294.619C170.01 294.619 168.512 296.119 168.512 297.973C168.512 299.825 170.01 301.325 171.864 301.325C173.715 301.325 175.215 299.825 175.215 297.973C175.215 296.119 173.715 294.619 171.864 294.619Z" fill="#0095DA"/>
</g>
<defs>
<clipPath id="clip0">
<rect width="512" height="512" fill="white"/>
</clipPath>
</defs>
</svg>
