<?xml version="1.0" encoding="UTF-8" standalone="no"?>
<!DOCTYPE svg PUBLIC "-//W3C//DTD SVG 1.1//EN" "http://www.w3.org/Graphics/SVG/1.1/DTD/svg11.dtd">
<svg width="100%" height="100%" viewBox="0 0 253 173" version="1.1" xmlns="http://www.w3.org/2000/svg" xmlns:xlink="http://www.w3.org/1999/xlink" xml:space="preserve" xmlns:serif="http://www.serif.com/" style="fill-rule:evenodd;clip-rule:evenodd;stroke-linejoin:round;stroke-miterlimit:2;">
    <g transform="matrix(1,0,0,1,-264.05,-137.471)">
        <g transform="matrix(4.16667,0,0,4.16667,0,0)">
            <g transform="matrix(1,0,0,1,-2.16,-0.72)">
                <path d="M86.248,33.713C74.807,33.713 65.532,42.988 65.532,54.429C65.532,65.869 74.807,75.145 86.248,75.145C91.489,75.145 96.275,73.198 99.923,69.988C99.254,69.291 98.843,68.344 98.843,67.301C98.843,65.157 100.581,63.419 102.725,63.419C103.429,63.419 104.089,63.606 104.658,63.933L104.704,63.844C102.025,62.61 100.165,59.903 100.165,56.759C100.165,53.471 102.202,50.659 105.082,49.514C104.926,49.528 104.768,49.536 104.608,49.536C101.878,49.536 99.667,47.323 99.667,44.594C99.667,42.96 100.459,41.512 101.681,40.612C97.888,36.378 92.38,33.713 86.248,33.713Z" style="fill:rgb(0,149,218);"/>
            </g>
            <g transform="matrix(1,0,0,1,-2.16,-0.72)">
                <path d="M85.503,41.753C87.235,41.753 88.89,42.099 90.404,42.727C91.979,43.379 93.392,44.331 94.571,45.509C96.892,47.83 98.328,51.036 98.328,54.577C98.328,55.448 98.237,56.308 98.066,57.149C97.892,58.005 97.633,58.828 97.3,59.608L96.707,60.997L95.764,59.817C95.606,59.62 95.419,59.426 95.205,59.24C95,59.061 94.783,58.903 94.557,58.769L93.917,58.388L94.168,57.686C94.341,57.204 94.476,56.695 94.568,56.161C94.657,55.651 94.703,55.121 94.703,54.577C94.703,53.326 94.456,52.136 94.008,51.056C93.545,49.936 92.86,48.924 92.009,48.072C91.157,47.22 90.144,46.536 89.025,46.072C87.944,45.625 86.755,45.377 85.503,45.377C84.252,45.377 83.062,45.625 81.982,46.072C80.862,46.536 79.85,47.22 78.998,48.072C77.334,49.737 76.303,52.037 76.303,54.577C76.303,55.829 76.551,57.018 76.999,58.099C77.462,59.218 78.146,60.231 78.998,61.083C79.85,61.934 80.862,62.618 81.982,63.082C83.062,63.53 84.252,63.777 85.503,63.777C85.781,63.777 86.055,63.764 86.325,63.741C86.596,63.717 86.865,63.681 87.132,63.633L87.865,63.503L88.134,64.2C88.231,64.448 88.351,64.689 88.492,64.919C88.635,65.152 88.795,65.368 88.971,65.564L89.981,66.689L88.507,67.043C88.006,67.163 87.509,67.254 87.02,67.312L87.016,67.312C86.514,67.371 86.009,67.402 85.503,67.402C83.772,67.402 82.116,67.055 80.602,66.428C79.027,65.776 77.614,64.824 76.436,63.645C74.115,61.325 72.679,58.118 72.679,54.577C72.679,52.846 73.025,51.19 73.652,49.677C74.304,48.101 75.257,46.688 76.436,45.509C77.614,44.331 79.027,43.379 80.602,42.727C82.116,42.099 83.772,41.753 85.503,41.753ZM89.718,44.397C88.424,43.861 87,43.566 85.503,43.566C86.989,43.566 88.411,43.863 89.711,44.402C91.034,44.949 92.223,45.742 93.22,46.722C92.215,45.735 91.029,44.94 89.718,44.397ZM96.496,53.925C96.346,51.36 95.318,49.03 93.708,47.233C94.528,48.149 95.198,49.208 95.679,50.369C96.138,51.478 96.422,52.675 96.496,53.925ZM96.296,56.788C96.437,56.1 96.512,55.378 96.515,54.629C96.512,55.251 96.456,55.865 96.352,56.465C96.285,56.855 96.195,57.241 96.085,57.622L96.09,57.626C96.17,57.35 96.238,57.071 96.296,56.788ZM81.295,44.402C82.596,43.863 84.018,43.566 85.503,43.566C84.006,43.566 82.583,43.861 81.289,44.397C79.978,44.94 78.791,45.735 77.786,46.722C78.783,45.742 79.973,44.949 81.295,44.402ZM74.491,54.577C74.491,54.531 74.492,54.486 74.492,54.441C74.492,54.486 74.491,54.531 74.491,54.577ZM74.492,54.429C74.532,51.447 75.757,48.751 77.717,46.791C76.698,47.81 75.879,49.021 75.323,50.363C74.805,51.614 74.511,52.986 74.492,54.429ZM75.327,58.785C74.867,57.676 74.584,56.477 74.51,55.226C74.66,57.793 75.687,60.122 77.297,61.921C76.478,61.005 75.808,59.946 75.327,58.785ZM81.295,64.753C79.973,64.205 78.783,63.412 77.786,62.433C78.791,63.42 79.978,64.214 81.289,64.757C82.583,65.293 84.006,65.589 85.503,65.589C84.018,65.589 82.596,65.292 81.295,64.753ZM86.481,65.546C86.177,65.573 85.87,65.587 85.561,65.589L86.481,65.546ZM86.754,65.519C86.663,65.529 86.572,65.538 86.481,65.546L86.754,65.519ZM86.754,65.52L86.754,65.519L86.754,65.52Z" style="fill:white;fill-rule:nonzero;"/>
            </g>
            <g transform="matrix(1,0,0,1,-2.16,-0.72)">
                <path d="M93.072,56.128C96.671,56.128 99.588,59.046 99.588,62.645C99.588,66.244 96.671,69.161 93.072,69.161C89.473,69.161 86.556,66.244 86.556,62.645C86.556,59.046 89.473,56.128 93.072,56.128Z" style="fill:rgb(0,149,218);"/>
            </g>
            <g transform="matrix(1,0,0,1,-2.16,-0.72)">
                <path d="M91.614,60.777L89.145,60.335C89.35,59.549 89.745,58.945 90.329,58.527C90.914,58.109 91.739,57.899 92.807,57.899C94.036,57.899 94.922,58.126 95.469,58.583C96.016,59.041 96.29,59.617 96.29,60.309C96.29,60.716 96.179,61.083 95.957,61.412C95.734,61.742 95.399,62.031 94.95,62.279C95.314,62.369 95.592,62.473 95.784,62.592C96.095,62.785 96.338,63.038 96.511,63.354C96.684,63.667 96.772,64.041 96.772,64.479C96.772,65.026 96.627,65.549 96.342,66.053C96.056,66.554 95.642,66.942 95.104,67.213C94.565,67.485 93.858,67.62 92.98,67.62C92.126,67.62 91.452,67.52 90.957,67.32C90.463,67.119 90.057,66.823 89.738,66.438C89.42,66.051 89.175,65.565 89.005,64.978L91.614,64.632C91.717,65.158 91.877,65.523 92.094,65.727C92.308,65.928 92.584,66.031 92.916,66.031C93.267,66.031 93.56,65.902 93.792,65.645C94.024,65.39 94.142,65.046 94.142,64.619C94.142,64.183 94.028,63.846 93.806,63.605C93.58,63.367 93.275,63.246 92.89,63.246C92.687,63.246 92.404,63.299 92.045,63.4L92.179,61.535C92.326,61.557 92.437,61.568 92.518,61.568C92.862,61.568 93.146,61.458 93.376,61.239C93.604,61.022 93.718,60.762 93.718,60.464C93.718,60.177 93.632,59.947 93.462,59.776C93.291,59.606 93.057,59.521 92.757,59.521C92.448,59.521 92.198,59.615 92.006,59.799C91.813,59.985 91.684,60.311 91.614,60.777Z" style="fill:white;fill-rule:nonzero;"/>
            </g>
            <g transform="matrix(1,0,0,1,-2.16,-0.72)">
                <path d="M104.608,40.715C102.466,40.715 100.729,42.452 100.729,44.594C100.729,46.736 102.466,48.473 104.608,48.473C106.75,48.473 108.487,46.736 108.487,44.594C108.487,42.452 106.75,40.715 104.608,40.715Z" style="fill:rgb(0,149,218);"/>
            </g>
            <g transform="matrix(1,0,0,1,-2.16,-0.72)">
                <path d="M107.962,50.15C104.311,50.15 101.352,53.109 101.352,56.76C101.352,60.411 104.311,63.369 107.962,63.369C111.612,63.369 114.571,60.411 114.571,56.76C114.571,53.109 111.612,50.15 107.962,50.15Z" style="fill:rgb(0,149,218);"/>
            </g>
            <g transform="matrix(1,0,0,1,-2.16,-0.72)">
                <path d="M102.725,64.331C101.085,64.331 99.755,65.661 99.755,67.301C99.755,68.942 101.085,70.272 102.725,70.272C104.366,70.272 105.696,68.942 105.696,67.301C105.696,65.661 104.366,64.331 102.725,64.331Z" style="fill:rgb(0,149,218);"/>
            </g>
            <g transform="matrix(1,0,0,1,-2.16,-0.72)">
                <path d="M112.405,43.723C110.784,43.723 109.471,45.036 109.471,46.656C109.471,48.276 110.784,49.589 112.405,49.589C114.024,49.589 115.337,48.276 115.337,46.656C115.337,45.036 114.024,43.723 112.405,43.723Z" style="fill:rgb(0,149,218);"/>
            </g>
            <g transform="matrix(1,0,0,1,-2.16,-0.72)">
                <path d="M113.542,62.952C111.79,62.952 110.37,64.372 110.37,66.124C110.37,67.876 111.79,69.296 113.542,69.296C115.294,69.296 116.714,67.876 116.714,66.124C116.714,64.372 115.294,62.952 113.542,62.952Z" style="fill:rgb(0,149,218);"/>
            </g>
            <g transform="matrix(1,0,0,1,-2.16,-0.72)">
                <path d="M120.761,45.018C118.389,45.018 116.467,46.941 116.467,49.313C116.467,51.685 118.389,53.608 120.761,53.608C123.133,53.608 125.056,51.685 125.056,49.313C125.056,46.941 123.133,45.018 120.761,45.018Z" style="fill:rgb(0,149,218);"/>
            </g>
            <g transform="matrix(1,0,0,1,-2.16,-0.72)">
                <path d="M123.325,56.808C121.75,56.808 120.474,58.085 120.474,59.66C120.474,61.235 121.75,62.511 123.325,62.511C124.9,62.511 126.177,61.235 126.177,59.66C126.177,58.085 124.9,56.808 123.325,56.808Z" style="fill:rgb(0,149,218);"/>
            </g>
            <g transform="matrix(1,0,0,1,-2.16,-0.72)">
                <path d="M117.361,54.441C116.432,54.441 115.679,55.194 115.679,56.124C115.679,57.053 116.432,57.806 117.361,57.806C118.29,57.806 119.044,57.053 119.044,56.124C119.044,55.194 118.29,54.441 117.361,54.441Z" style="fill:rgb(0,149,218);"/>
            </g>
            <g transform="matrix(1,0,0,1,-2.16,-0.72)">
                <path d="M117.804,59.573C117.097,59.573 116.523,60.146 116.523,60.853C116.523,61.56 117.097,62.133 117.804,62.133C118.51,62.133 119.084,61.56 119.084,60.853C119.084,60.146 118.51,59.573 117.804,59.573Z" style="fill:rgb(0,149,218);"/>
            </g>
            <g transform="matrix(1,0,0,1,-2.16,-0.72)">
                <path d="M108.252,65.975C107.544,65.975 106.972,66.548 106.972,67.256C106.972,67.963 107.544,68.536 108.252,68.536C108.959,68.536 109.532,67.963 109.532,67.256C109.532,66.548 108.959,65.975 108.252,65.975Z" style="fill:rgb(0,149,218);"/>
            </g>
        </g>
    </g>
</svg>
