<?xml version="1.0" encoding="UTF-8" standalone="no"?>
<!DOCTYPE svg PUBLIC "-//W3C//DTD SVG 1.1//EN" "http://www.w3.org/Graphics/SVG/1.1/DTD/svg11.dtd">
<svg width="100%" height="100%" viewBox="0 0 1269 347" version="1.1" xmlns="http://www.w3.org/2000/svg" xmlns:xlink="http://www.w3.org/1999/xlink" xml:space="preserve" xmlns:serif="http://www.serif.com/" style="fill-rule:evenodd;clip-rule:evenodd;stroke-linejoin:round;stroke-miterlimit:2;">
    <g transform="matrix(1,0,0,1,-171.008,-59.4958)">
        <g transform="matrix(4.16667,0,0,4.16667,0,0)">
            <g transform="matrix(1,0,0,1,-0.72,13.68)">
                <path d="M86.248,33.713C74.807,33.713 65.532,42.988 65.532,54.429C65.532,65.869 74.807,75.145 86.248,75.145C91.489,75.145 96.275,73.198 99.923,69.988C99.254,69.291 98.843,68.344 98.843,67.301C98.843,65.157 100.581,63.419 102.725,63.419C103.429,63.419 104.089,63.606 104.658,63.933L104.704,63.844C102.025,62.61 100.165,59.903 100.165,56.759C100.165,53.471 102.202,50.659 105.082,49.514C104.926,49.528 104.768,49.536 104.608,49.536C101.878,49.536 99.667,47.323 99.667,44.594C99.667,42.96 100.459,41.512 101.681,40.612C97.888,36.378 92.38,33.713 86.248,33.713Z" style="fill:rgb(0,149,218);"/>
            </g>
            <g transform="matrix(1,0,0,1,-0.72,13.68)">
                <path d="M85.503,41.753C87.235,41.753 88.89,42.099 90.404,42.727C91.979,43.379 93.392,44.331 94.571,45.509C96.892,47.83 98.328,51.036 98.328,54.577C98.328,55.448 98.237,56.308 98.066,57.149C97.892,58.005 97.633,58.828 97.3,59.608L96.707,60.997L95.764,59.817C95.606,59.62 95.419,59.426 95.205,59.24C95,59.061 94.783,58.903 94.557,58.769L93.917,58.388L94.168,57.686C94.341,57.204 94.476,56.695 94.568,56.161C94.657,55.651 94.703,55.121 94.703,54.577C94.703,53.326 94.456,52.136 94.008,51.056C93.545,49.936 92.86,48.924 92.009,48.072C91.157,47.22 90.144,46.536 89.025,46.072C87.944,45.625 86.755,45.377 85.503,45.377C84.252,45.377 83.062,45.625 81.982,46.072C80.862,46.536 79.85,47.22 78.998,48.072C77.334,49.737 76.303,52.037 76.303,54.577C76.303,55.829 76.551,57.018 76.999,58.099C77.462,59.218 78.146,60.231 78.998,61.083C79.85,61.934 80.862,62.618 81.982,63.082C83.062,63.53 84.252,63.777 85.503,63.777C85.781,63.777 86.055,63.764 86.325,63.741C86.596,63.717 86.865,63.681 87.132,63.633L87.865,63.503L88.134,64.2C88.231,64.448 88.351,64.689 88.492,64.919C88.635,65.152 88.795,65.368 88.971,65.564L89.981,66.689L88.507,67.043C88.006,67.163 87.509,67.254 87.02,67.312L87.016,67.312C86.514,67.371 86.009,67.402 85.503,67.402C83.772,67.402 82.116,67.055 80.602,66.428C79.027,65.776 77.614,64.824 76.436,63.645C74.115,61.325 72.679,58.118 72.679,54.577C72.679,52.846 73.025,51.19 73.652,49.677C74.304,48.101 75.257,46.688 76.436,45.509C77.614,44.331 79.027,43.379 80.602,42.727C82.116,42.099 83.772,41.753 85.503,41.753ZM89.718,44.397C88.424,43.861 87,43.566 85.503,43.566C86.989,43.566 88.411,43.863 89.711,44.402C91.034,44.949 92.223,45.742 93.22,46.722C92.215,45.735 91.029,44.94 89.718,44.397ZM96.496,53.925C96.346,51.36 95.318,49.03 93.708,47.233C94.528,48.149 95.198,49.208 95.679,50.369C96.138,51.478 96.422,52.675 96.496,53.925ZM96.296,56.788C96.437,56.1 96.512,55.378 96.515,54.629C96.512,55.251 96.456,55.865 96.352,56.465C96.285,56.855 96.195,57.241 96.085,57.622L96.09,57.626C96.17,57.35 96.238,57.071 96.296,56.788ZM81.295,44.402C82.596,43.863 84.018,43.566 85.503,43.566C84.006,43.566 82.583,43.861 81.289,44.397C79.978,44.94 78.791,45.735 77.786,46.722C78.783,45.742 79.973,44.949 81.295,44.402ZM74.491,54.577C74.491,54.531 74.492,54.486 74.492,54.441C74.492,54.486 74.491,54.531 74.491,54.577ZM74.492,54.429C74.532,51.447 75.757,48.751 77.717,46.791C76.698,47.81 75.879,49.021 75.323,50.363C74.805,51.614 74.511,52.986 74.492,54.429ZM75.327,58.785C74.867,57.676 74.584,56.477 74.51,55.226C74.66,57.793 75.687,60.122 77.297,61.921C76.478,61.005 75.808,59.946 75.327,58.785ZM81.295,64.753C79.973,64.205 78.783,63.412 77.786,62.433C78.791,63.42 79.978,64.214 81.289,64.757C82.583,65.293 84.006,65.589 85.503,65.589C84.018,65.589 82.596,65.292 81.295,64.753ZM86.481,65.546C86.177,65.573 85.87,65.587 85.561,65.589L86.481,65.546ZM86.754,65.519C86.663,65.529 86.572,65.538 86.481,65.546L86.754,65.519ZM86.754,65.52L86.754,65.519L86.754,65.52Z" style="fill:white;fill-rule:nonzero;"/>
            </g>
            <g transform="matrix(1,0,0,1,-0.72,13.68)">
                <path d="M93.072,56.128C96.671,56.128 99.588,59.046 99.588,62.645C99.588,66.244 96.671,69.161 93.072,69.161C89.473,69.161 86.556,66.244 86.556,62.645C86.556,59.046 89.473,56.128 93.072,56.128Z" style="fill:rgb(0,149,218);"/>
            </g>
            <g transform="matrix(1,0,0,1,-0.72,13.68)">
                <path d="M91.614,60.777L89.145,60.335C89.35,59.549 89.745,58.945 90.329,58.527C90.914,58.109 91.739,57.899 92.807,57.899C94.036,57.899 94.922,58.126 95.469,58.583C96.016,59.041 96.29,59.617 96.29,60.309C96.29,60.716 96.179,61.083 95.957,61.412C95.734,61.742 95.399,62.031 94.95,62.279C95.314,62.369 95.592,62.473 95.784,62.592C96.095,62.785 96.338,63.038 96.511,63.354C96.684,63.667 96.772,64.041 96.772,64.479C96.772,65.026 96.627,65.549 96.342,66.053C96.056,66.554 95.642,66.942 95.104,67.213C94.565,67.485 93.858,67.62 92.98,67.62C92.126,67.62 91.452,67.52 90.957,67.32C90.463,67.119 90.057,66.823 89.738,66.438C89.42,66.051 89.175,65.565 89.005,64.978L91.614,64.632C91.717,65.158 91.877,65.523 92.094,65.727C92.308,65.928 92.584,66.031 92.916,66.031C93.267,66.031 93.56,65.902 93.792,65.645C94.024,65.39 94.142,65.046 94.142,64.619C94.142,64.183 94.028,63.846 93.806,63.605C93.58,63.367 93.275,63.246 92.89,63.246C92.687,63.246 92.404,63.299 92.045,63.4L92.179,61.535C92.326,61.557 92.437,61.568 92.518,61.568C92.862,61.568 93.146,61.458 93.376,61.239C93.604,61.022 93.718,60.762 93.718,60.464C93.718,60.177 93.632,59.947 93.462,59.776C93.291,59.606 93.057,59.521 92.757,59.521C92.448,59.521 92.198,59.615 92.006,59.799C91.813,59.985 91.684,60.311 91.614,60.777Z" style="fill:white;fill-rule:nonzero;"/>
            </g>
            <g transform="matrix(1,0,0,1,-0.72,13.68)">
                <path d="M104.608,40.715C102.466,40.715 100.729,42.452 100.729,44.594C100.729,46.736 102.466,48.473 104.608,48.473C106.75,48.473 108.487,46.736 108.487,44.594C108.487,42.452 106.75,40.715 104.608,40.715Z" style="fill:rgb(0,149,218);"/>
            </g>
            <g transform="matrix(1,0,0,1,-0.72,13.68)">
                <path d="M107.962,50.15C104.311,50.15 101.352,53.109 101.352,56.76C101.352,60.411 104.311,63.369 107.962,63.369C111.612,63.369 114.571,60.411 114.571,56.76C114.571,53.109 111.612,50.15 107.962,50.15Z" style="fill:rgb(0,149,218);"/>
            </g>
            <g transform="matrix(1,0,0,1,-0.72,13.68)">
                <path d="M102.725,64.331C101.085,64.331 99.755,65.661 99.755,67.301C99.755,68.942 101.085,70.272 102.725,70.272C104.366,70.272 105.696,68.942 105.696,67.301C105.696,65.661 104.366,64.331 102.725,64.331Z" style="fill:rgb(0,149,218);"/>
            </g>
            <g transform="matrix(1,0,0,1,-0.72,13.68)">
                <path d="M112.405,43.723C110.784,43.723 109.471,45.036 109.471,46.656C109.471,48.276 110.784,49.589 112.405,49.589C114.024,49.589 115.337,48.276 115.337,46.656C115.337,45.036 114.024,43.723 112.405,43.723Z" style="fill:rgb(0,149,218);"/>
            </g>
            <g transform="matrix(1,0,0,1,-0.72,13.68)">
                <path d="M113.542,62.952C111.79,62.952 110.37,64.372 110.37,66.124C110.37,67.876 111.79,69.296 113.542,69.296C115.294,69.296 116.714,67.876 116.714,66.124C116.714,64.372 115.294,62.952 113.542,62.952Z" style="fill:rgb(0,149,218);"/>
            </g>
            <g transform="matrix(1,0,0,1,-0.72,13.68)">
                <path d="M120.761,45.018C118.389,45.018 116.467,46.941 116.467,49.313C116.467,51.685 118.389,53.608 120.761,53.608C123.133,53.608 125.056,51.685 125.056,49.313C125.056,46.941 123.133,45.018 120.761,45.018Z" style="fill:rgb(0,149,218);"/>
            </g>
            <g transform="matrix(1,0,0,1,-0.72,13.68)">
                <path d="M123.325,56.808C121.75,56.808 120.474,58.085 120.474,59.66C120.474,61.235 121.75,62.511 123.325,62.511C124.9,62.511 126.177,61.235 126.177,59.66C126.177,58.085 124.9,56.808 123.325,56.808Z" style="fill:rgb(0,149,218);"/>
            </g>
            <g transform="matrix(1,0,0,1,-0.72,13.68)">
                <path d="M117.361,54.441C116.432,54.441 115.679,55.194 115.679,56.124C115.679,57.053 116.432,57.806 117.361,57.806C118.29,57.806 119.044,57.053 119.044,56.124C119.044,55.194 118.29,54.441 117.361,54.441Z" style="fill:rgb(0,149,218);"/>
            </g>
            <g transform="matrix(1,0,0,1,-0.72,13.68)">
                <path d="M117.804,59.573C117.097,59.573 116.523,60.146 116.523,60.853C116.523,61.56 117.097,62.133 117.804,62.133C118.51,62.133 119.084,61.56 119.084,60.853C119.084,60.146 118.51,59.573 117.804,59.573Z" style="fill:rgb(0,149,218);"/>
            </g>
            <g transform="matrix(1,0,0,1,-0.72,13.68)">
                <path d="M108.252,65.975C107.544,65.975 106.972,66.548 106.972,67.256C106.972,67.963 107.544,68.536 108.252,68.536C108.959,68.536 109.532,67.963 109.532,67.256C109.532,66.548 108.959,65.975 108.252,65.975Z" style="fill:rgb(0,149,218);"/>
            </g>
            <g transform="matrix(1,0,0,1,-0.72,13.68)">
                <path d="M61.338,76.741L61.338,27.893L55.299,32.669L55.299,83.822L344.884,83.822L344.884,77.78L62.379,77.78L61.338,77.78L61.338,76.741Z" style="fill:rgb(0,134,77);fill-rule:nonzero;"/>
            </g>
            <g transform="matrix(1,0,0,1,-0.72,13.68)">
                <path d="M87.485,2.274L41.762,40.246L51.321,40.246L88.829,9.096L89.496,8.542L90.158,9.096L127.414,40.246L136.921,40.246L91.525,2.29L89.502,0.599L87.485,2.274Z" style="fill:rgb(0,134,77);fill-rule:nonzero;"/>
            </g>
            <g transform="matrix(1,0,0,1,-0.72,13.68)">
                <path d="M138.296,17.728L138.296,36.627L145.771,36.627C146.843,36.622 147.84,36.514 148.761,36.298C149.682,36.086 150.519,35.781 151.276,35.391C152.034,35 152.696,34.535 153.275,34.004C153.834,33.496 154.327,32.903 154.751,32.227C155.179,31.55 155.513,30.793 155.757,29.951C155.996,29.11 156.119,28.183 156.123,27.178C156.123,25.805 155.879,24.536 155.39,23.37C154.911,22.222 154.224,21.226 153.331,20.384C152.438,19.543 151.356,18.894 150.087,18.428C148.822,17.968 147.379,17.732 145.771,17.728L138.296,17.728ZM151.441,27.178C151.437,28.014 151.291,28.766 151.009,29.434C150.722,30.102 150.317,30.67 149.796,31.14C149.273,31.611 148.657,31.968 147.943,32.217C147.233,32.467 146.453,32.593 145.602,32.593L142.95,32.593L142.95,21.762L145.602,21.762C146.453,21.762 147.233,21.889 147.943,22.138C148.653,22.387 149.273,22.744 149.796,23.214C150.317,23.685 150.722,24.253 151.004,24.921C151.291,25.589 151.437,26.341 151.441,27.178ZM173.471,32.621L163.401,32.621L163.401,29.067L172.569,29.067L172.569,25.287L163.401,25.287L163.401,21.733L173.386,21.733L173.386,17.728L158.747,17.728L158.747,36.627L173.471,36.627L173.471,32.621ZM191.58,32.706L182.526,32.706L191.355,21.282L191.355,17.728L176.179,17.728L176.179,21.649L185.431,21.649L175.897,33.637L175.897,36.627L191.58,36.627L191.58,32.706ZM204.894,30.703L212.369,17.728L207.179,17.728L202.581,26.021L197.927,17.728L192.85,17.728L200.155,30.76L200.155,36.627L204.894,36.627L204.894,30.703ZM232.256,17.728L227.63,17.728L227.63,29.011L218.067,17.728L214.203,17.728L214.203,36.627L218.857,36.627L218.857,25.682L228.42,36.627L232.256,36.627L232.256,17.728ZM240.21,21.818L250.168,21.818L250.168,17.728L235.556,17.728L235.556,36.627L240.21,36.627L240.21,29.857L249.068,29.857L249.068,25.795L240.21,25.795L240.21,21.818ZM267.149,32.621L257.078,32.621L257.078,29.067L266.246,29.067L266.246,25.287L257.078,25.287L257.078,21.733L267.064,21.733L267.064,17.728L252.425,17.728L252.425,36.627L267.149,36.627L267.149,32.621ZM288.643,36.627L281.055,25.824L287.853,17.728L282.578,17.728L274.708,27.065L274.708,17.728L270.054,17.728L270.054,36.627L274.708,36.627L274.708,33.383L278.037,29.406L283.002,36.627L288.643,36.627ZM297.951,32.819C297.218,32.819 296.522,32.678 295.864,32.396C295.248,32.133 294.689,31.756 294.195,31.268C293.697,30.774 293.306,30.186 293.01,29.5C292.719,28.809 292.568,28.038 292.564,27.178C292.564,26.406 292.705,25.673 292.987,24.977C293.236,24.352 293.588,23.778 294.044,23.266C294.496,22.754 295.051,22.345 295.7,22.034C296.353,21.729 297.105,21.569 297.951,21.564C298.567,21.564 299.127,21.649 299.634,21.813C300.147,21.973 300.598,22.199 300.989,22.486C301.379,22.777 301.708,23.106 301.971,23.482C302.074,23.633 302.168,23.811 302.258,24.009C302.347,24.206 302.432,24.39 302.507,24.554L307.457,24.554C307.006,22.354 305.896,20.596 304.129,19.279C302.361,17.963 300.302,17.305 297.951,17.305C296.941,17.309 296,17.441 295.126,17.695C294.251,17.953 293.457,18.297 292.738,18.729C292.018,19.162 291.388,19.646 290.843,20.182C290.298,20.708 289.804,21.329 289.362,22.034C288.925,22.739 288.572,23.52 288.309,24.385C288.051,25.245 287.914,26.176 287.909,27.178C287.914,28.179 288.051,29.114 288.309,29.979C288.572,30.845 288.925,31.634 289.362,32.344C289.804,33.054 290.298,33.67 290.843,34.201C291.388,34.737 292.018,35.221 292.738,35.649C293.457,36.077 294.251,36.416 295.126,36.665C296,36.914 296.941,37.045 297.951,37.05C299.136,37.05 300.264,36.881 301.336,36.542C302.408,36.204 303.367,35.715 304.213,35.071C305.055,34.427 305.76,33.642 306.32,32.72C306.879,31.794 307.265,30.736 307.486,29.547L302.634,29.547C302.403,30.191 302.074,30.76 301.647,31.249C301.219,31.737 300.692,32.123 300.076,32.396C299.461,32.673 298.751,32.814 297.951,32.819ZM316.427,32.903C315.91,32.899 315.454,32.805 315.068,32.621C314.683,32.433 314.363,32.175 314.11,31.846C313.856,31.517 313.668,31.136 313.545,30.703L308.867,30.703C309.008,31.643 309.282,32.499 309.685,33.27C310.09,34.046 310.616,34.714 311.26,35.278C311.909,35.842 312.666,36.275 313.531,36.585C314.401,36.89 315.364,37.045 316.427,37.05C317.537,37.05 318.566,36.872 319.516,36.514C320.165,36.27 320.766,35.95 321.312,35.55C321.862,35.151 322.341,34.671 322.75,34.112C323.155,33.557 323.475,32.922 323.7,32.208C323.926,31.493 324.038,30.699 324.043,29.829L324.043,17.728L319.389,17.728L319.389,29.829C319.384,30.426 319.262,30.957 319.018,31.418C318.768,31.879 318.425,32.241 317.983,32.504C317.542,32.767 317.024,32.899 316.427,32.903ZM345.82,36.627L337.921,17.728L333.154,17.728L325.256,36.627L330.249,36.627L331.575,33.186L339.529,33.186L340.855,36.627L345.82,36.627ZM337.978,29.18L333.154,29.18L335.552,22.974L337.978,29.18Z" style="fill:rgb(0,149,218);fill-rule:nonzero;"/>
            </g>
            <g transform="matrix(1,0,0,1,-0.72,13.68)">
                <path d="M194.042,67.304L177.697,67.304L193.635,46.239L193.635,39.685L166.241,39.685L166.241,46.915L182.942,46.915L165.732,69.021L165.732,74.534L194.042,74.534L194.042,67.304Z" style="fill:rgb(0,149,218);fill-rule:nonzero;"/>
            </g>
            <g transform="matrix(1,0,0,1,-0.72,13.68)">
                <path d="M214.742,38.905C212.9,38.914 211.186,39.157 209.608,39.625C208.021,40.093 206.578,40.725 205.28,41.531C203.99,42.329 202.844,43.231 201.86,44.236C200.875,45.216 199.993,46.36 199.195,47.66C198.397,48.97 197.761,50.417 197.294,52.004C196.819,53.59 196.572,55.315 196.564,57.162C196.572,59.008 196.819,60.716 197.286,62.303C197.761,63.88 198.389,65.319 199.186,66.611C199.984,67.902 200.875,69.03 201.86,70.009C202.844,71.006 203.99,71.899 205.289,72.697C206.587,73.494 208.029,74.127 209.617,74.595C211.195,75.063 212.909,75.306 214.742,75.314C216.583,75.306 218.289,75.063 219.876,74.595C221.455,74.127 222.897,73.494 224.196,72.697C225.495,71.899 226.64,71.006 227.624,70.009C228.608,69.03 229.5,67.902 230.298,66.611C231.095,65.319 231.723,63.88 232.198,62.303C232.665,60.716 232.911,59.008 232.92,57.162C232.911,55.315 232.665,53.59 232.198,52.004C231.723,50.409 231.087,48.97 230.298,47.669C229.5,46.36 228.608,45.224 227.624,44.236C226.64,43.231 225.503,42.329 224.204,41.531C222.906,40.725 221.463,40.093 219.876,39.625C218.298,39.157 216.583,38.914 214.742,38.905ZM214.742,67.46C213.384,67.46 212.103,67.2 210.898,66.68C209.769,66.195 208.759,65.51 207.868,64.634C206.977,63.759 206.273,62.692 205.755,61.435C205.237,60.187 204.974,58.765 204.966,57.162C204.966,55.705 205.246,54.258 205.806,52.819C206.248,51.674 206.892,50.651 207.741,49.741C208.589,48.831 209.6,48.111 210.787,47.574C211.967,47.045 213.283,46.767 214.742,46.759C216.1,46.759 217.449,47.054 218.79,47.643C219.902,48.129 220.886,48.831 221.743,49.741C222.6,50.643 223.28,51.727 223.772,52.983C224.256,54.232 224.51,55.627 224.518,57.162C224.518,58.583 224.273,59.936 223.78,61.219C223.339,62.389 222.702,63.438 221.871,64.374C221.048,65.31 220.038,66.056 218.841,66.611C217.653,67.166 216.286,67.452 214.742,67.46Z" style="fill:rgb(0,149,218);fill-rule:nonzero;"/>
            </g>
            <g transform="matrix(1,0,0,1,-0.72,13.68)">
                <path d="M269.381,39.685L261.03,39.685L261.03,60.49L243.768,39.685L236.793,39.685L236.793,74.534L245.194,74.534L245.194,54.353L262.455,74.534L269.381,74.534L269.381,39.685Z" style="fill:rgb(0,149,218);fill-rule:nonzero;"/>
            </g>
            <g transform="matrix(1,0,0,1,-0.72,13.68)">
                <path d="M301.485,67.148L283.308,67.148L283.308,60.595L299.856,60.595L299.856,53.625L283.308,53.625L283.308,47.071L301.333,47.071L301.333,39.685L274.907,39.685L274.907,74.534L301.485,74.534L301.485,67.148Z" style="fill:rgb(0,149,218);fill-rule:nonzero;"/>
            </g>
            <g transform="matrix(1,0,0,1,-0.72,13.68)">
                <path d="M346.09,39.685L337.892,39.685L326.436,61.791L314.979,39.685L306.73,39.685L306.73,74.534L314.877,74.534L314.877,55.861L324.501,74.534L328.371,74.534L337.943,55.965L337.943,74.534L346.09,74.534L346.09,39.685Z" style="fill:rgb(0,149,218);fill-rule:nonzero;"/>
            </g>
            <g transform="matrix(1,0,0,1,-0.72,13.68)">
                <path d="M146.243,38.905C144.401,38.914 142.687,39.157 141.109,39.625C139.522,40.093 138.079,40.725 136.781,41.531C135.491,42.329 134.345,43.231 133.361,44.236C132.376,45.216 131.494,46.36 130.696,47.66C129.898,48.97 129.262,50.417 128.795,52.004C128.32,53.59 128.073,55.315 128.065,57.162C128.073,59.008 128.32,60.716 128.787,62.303C129.262,63.88 129.89,65.319 130.688,66.611C131.485,67.902 132.376,69.03 133.361,70.009C134.345,71.006 135.491,71.899 136.79,72.697C138.087,73.494 139.53,74.127 141.117,74.595C142.696,75.063 144.409,75.306 146.243,75.314C148.084,75.306 149.79,75.063 151.377,74.595C152.956,74.127 154.398,73.494 155.696,72.697C156.995,71.899 158.141,71.006 159.125,70.009C160.109,69.03 161.001,67.902 161.799,66.611C162.596,65.319 163.224,63.88 163.699,62.303C164.166,60.716 164.412,59.008 164.42,57.162C164.412,55.315 164.166,53.59 163.699,52.004C163.224,50.409 162.588,48.97 161.799,47.669C161.001,46.36 160.109,45.224 159.125,44.236C158.141,43.231 157.004,42.329 155.705,41.531C154.407,40.725 152.964,40.093 151.377,39.625C149.799,39.157 148.084,38.914 146.243,38.905ZM146.243,67.46C144.885,67.46 143.604,67.2 142.399,66.68C141.27,66.195 140.26,65.51 139.369,64.634C138.478,63.759 137.774,62.692 137.256,61.435C136.738,60.187 136.475,58.765 136.467,57.162C136.467,55.705 136.747,54.258 137.307,52.819C137.748,51.674 138.393,50.651 139.242,49.741C140.09,48.831 141.1,48.111 142.288,47.574C143.468,47.045 144.784,46.767 146.243,46.759C147.601,46.759 148.95,47.054 150.291,47.643C151.403,48.129 152.387,48.831 153.244,49.741C154.101,50.643 154.78,51.727 155.272,52.983C155.756,54.232 156.011,55.627 156.019,57.162C156.019,58.583 155.773,59.936 155.281,61.219C154.84,62.389 154.203,63.438 153.372,64.374C152.548,65.31 151.539,66.056 150.342,66.611C149.154,67.166 147.788,67.452 146.243,67.46Z" style="fill:rgb(0,149,218);fill-rule:nonzero;"/>
            </g>
        </g>
    </g>
</svg>
