<svg id="flat" height="512" viewBox="0 0 512 512" width="512" xmlns="http://www.w3.org/2000/svg"><path d="m295.98557 336 13.65686 13.65685a8 8 0 0 0 5.65685 2.34315h17.37258a8 8 0 0 0 5.65686-2.34315l13.65685-13.65685h32v-32h-88z" fill="#8c410b"/><path d="m487.98557 312v32a8 8 0 0 1 -8 8h-44.68629a8 8 0 0 1 -5.65685-2.34315l-13.65686-13.65685h-32v-24z" fill="#8c410b"/><path d="m31.98557 144h312a8 8 0 0 1 8 8v152a0 0 0 0 1 0 0h-328a0 0 0 0 1 0 0v-152a8 8 0 0 1 8-8z" fill="#eeac13"/><path d="m311.98557 304v12.68629a8 8 0 0 1 -2.34314 5.65686l-13.65686 13.65685h-24v-32z" fill="#662702"/><path d="m351.98557 312h136v-51.05573a8 8 0 0 0 -4.42229-7.15542l-11.57771-5.78885-14.17657-42.52982a8 8 0 0 0 -7.5895-5.47018h-98.23393z" fill="#c47010"/><circle cx="383.986" cy="336" fill="#efe8e0" r="32"/><path d="m384 376a40 40 0 1 1 40-40 40.04708 40.04708 0 0 1 -40 40zm0-64a24 24 0 1 0 24 24 24.02624 24.02624 0 0 0 -24-24z" fill="#544d4c"/><circle cx="384" cy="336" fill="#544d4c" r="8"/><path d="m351.98557 160h28.82286a48 48 0 0 1 41.15967 23.3042l10.01747 16.6958h-80z" fill="#8c410b"/><path d="m31.98557 336a8 8 0 0 1 -8-8v-24h248v32z" fill="#c47010"/><path d="m403.18577 242.3999 26.6665 20a7.99953 7.99953 0 0 0 4.79981 1.6001h18.02a7.99958 7.99958 0 0 0 5.65673-2.34326l13.65676-13.65674-14.17675-42.52979a7.99947 7.99947 0 0 0 -7.58936-5.47021h-50.23389v36a7.99927 7.99927 0 0 0 3.2002 6.3999z" fill="#b6f7f5"/><circle cx="111.986" cy="336" fill="#efe8e0" r="32"/><g fill="#544d4c"><path d="m112 376a40 40 0 1 1 40-40 40.04708 40.04708 0 0 1 -40 40zm0-64a24 24 0 1 0 24 24 24.02624 24.02624 0 0 0 -24-24z"/><circle cx="112" cy="336" r="8"/></g></svg>