<svg height="480pt" viewBox="0 0 480 480" width="480pt" xmlns="http://www.w3.org/2000/svg"><path d="m472 373.121094v98.878906h-128v-98.878906l-5.039062-7.199219-77.839844-32.242187c-4.695313-1.824219-7.800782-6.324219-7.839844-11.359376.023438-1.6875.40625-3.351562 1.117188-4.878906 2.921874-6.355468 10.371093-9.230468 16.800781-6.480468l57.28125 19.679687 15.519531 5.359375h128zm0 0" fill="#ff7956"/><path d="m472 72v112c0 17.671875-14.328125 32-32 32h-116.078125c-8.191406 17.539062-9.589844 37.492188-3.921875 56 9.28125 25.601562 34 37.121094 32 40-.878906 1.359375-7.199219.480469-16.078125-2.878906-22.75-9.085938-42.234375-24.808594-55.921875-45.121094-9.257812-14.46875-14.988281-30.910156-16.71875-48h-39.28125c-4.917969 0-9.765625-1.152344-14.160156-3.359375-10.917969-5.367187-17.835938-16.476563-17.839844-28.640625v-112c0-17.671875 14.328125-32 32-32h216c17.671875 0 32 14.328125 32 32zm0 0" fill="#9bfbff"/><path d="m440 280c0-22.089844-14.328125-40-32-40s-32 17.910156-32 40 14.328125 40 32 40 32-17.910156 32-40zm0 0" fill="#d9ccbc"/><path d="m288 40h-64c-17.671875 0-32 14.328125-32 32v112c.003906 12.164062 6.921875 23.273438 17.839844 28.640625-2.601563 6.773437-5.902344 13.261719-9.839844 19.359375-24.878906 38.238281-69.441406 51.761719-72 48-2-2.878906 22.71875-14.398438 32-40 5.667969-18.507812 4.269531-38.460938-3.921875-56h-116.078125c-17.671875 0-32-14.328125-32-32v-112c0-17.671875 14.328125-32 32-32h216c17.671875 0 32 14.328125 32 32zm0 0" fill="#00b6bd"/><path d="m225.601562 317.441406c.710938 1.527344 1.09375 3.191406 1.117188 4.878906-.058594 5.027344-3.160156 9.519532-7.839844 11.359376l-77.839844 32.242187-5.039062 7.199219v98.878906h-128v-136h128l72.800781-25.039062c6.429688-2.75 13.878907.125 16.800781 6.480468zm0 0" fill="#ff7956"/><path d="m104 280c0-22.089844-14.328125-40-32-40s-32 17.910156-32 40 14.328125 40 32 40 32-17.910156 32-40zm0 0" fill="#d9ccbc"/><path d="m448 280c0-26.472656-17.945312-48-40-48s-40 21.527344-40 48 17.945312 48 40 48 40-21.527344 40-48zm-40 32c-13.230469 0-24-14.351562-24-32s10.769531-32 24-32 24 14.351562 24 32-10.769531 32-24 32zm0 0"/><path d="m472 328h-126.664062l-71.023438-24.414062c-10.46875-4.363282-22.515625.351562-27.242188 10.660156-1.140624 2.546875-1.738281 5.300781-1.757812 8.089844.066406 8.253906 5.09375 15.660156 12.742188 18.769531l75.6875 31.320312 2.257812 3.199219v96.375c0 4.417969 3.582031 8 8 8h128c4.417969 0 8-3.582031 8-8v-136c0-4.417969-3.582031-8-8-8zm-8 136h-112v-90.910156c.003906-1.652344-.507812-3.261719-1.464844-4.609375l-5.046875-7.199219c-.875-1.238281-2.082031-2.203125-3.480469-2.785156l-77.800781-32.191406c-1.691406-.617188-2.835937-2.199219-2.894531-4 .023438-.554688.15625-1.097657.390625-1.601563.625-1.210937 1.710937-2.121094 3.007813-2.535156 1.300781-.410157 2.710937-.285157 3.921874.34375l72.800782 25.039062c.824218.285157 1.691406.4375 2.566406.449219h120zm0 0"/><path d="m440 440h16v16h-16zm0 0"/><path d="m416 440h16v16h-16zm0 0"/><path d="m440 416h16v16h-16zm0 0"/><path d="m112 280c0-26.472656-17.945312-48-40-48s-40 21.527344-40 48 17.945312 48 40 48 40-21.527344 40-48zm-40 32c-13.230469 0-24-14.351562-24-32s10.769531-32 24-32 24 14.351562 24 32-10.769531 32-24 32zm0 0"/><path d="m206.167969 303.398438-71.503907 24.601562h-126.664062c-4.417969 0-8 3.582031-8 8v136c0 4.417969 3.582031 8 8 8h128c4.417969 0 8-3.582031 8-8v-96.375l2.257812-3.199219 75.71875-31.335937c5.113282-2 9.183594-6.015625 11.25-11.105469 2.066407-5.085937 1.949219-10.800781-.324218-15.800781-4.617188-10.140625-16.371094-14.882813-26.734375-10.785156zm9.65625 22.921874-77.832031 32.207032c-1.398438.582031-2.605469 1.546875-3.480469 2.785156l-5.046875 7.199219c-.957032 1.347656-1.46875 2.957031-1.464844 4.609375v90.878906h-112v-120h120c.882812-.003906 1.761719-.148438 2.601562-.433594l73.238282-25.222656c2.410156-1.042969 5.214844-.03125 6.398437 2.3125.527344 1.066406.558594 2.308594.089844 3.398438-.472656 1.089843-1.398437 1.917968-2.535156 2.265624zm0 0"/><path d="m24 440h16v16h-16zm0 0"/><path d="m48 440h16v16h-16zm0 0"/><path d="m24 416h16v16h-16zm0 0"/><path d="m440 32h-144.800781c-3.828125-18.613281-20.199219-31.9765625-39.199219-32h-216c-22.082031.0273438-39.9726562 17.917969-40 40v112c.0273438 22.082031 17.917969 39.972656 40 40h110.535156c5.90625 14.402344 6.59375 30.417969 1.945313 45.273438-5.164063 12.179687-13.523438 22.742187-24.191407 30.566406-4.945312 4.105468-11.722656 9.726562-6.898437 16.664062 2.015625 2.8125 5.351563 4.367188 8.800781 4.105469h.207032c12.136718-.128906 52.671874-15.867187 76.355468-52.25 2.789063-4.402344 5.269532-8.992187 7.421875-13.734375 3.203125.867188 6.503907 1.328125 9.824219 1.375h32.320312c2.503907 15.808594 8.285157 30.917969 16.96875 44.359375 23.597657 36.3125 64.175782 52.082031 76.335938 52.234375h.207031c3.441407.265625 6.777344-1.277344 8.800781-4.074219 4.800782-6.984375-1.960937-12.589843-6.890624-16.679687-10.667969-7.824219-19.027344-18.386719-24.199219-30.566406-4.644531-14.855469-3.964844-30.867188 1.929687-45.273438h110.527344c22.082031-.027344 39.972656-17.917969 40-40v-112c-.027344-22.082031-17.917969-39.972656-40-40zm-246.703125 195.640625c-9.410156 14.050781-21.886719 25.785156-36.488281 34.320313 4.539062-5.808594 8.152344-12.285157 10.710937-19.199219 6.441407-20.347657 5.011719-42.371094-4-61.714844-1.210937-3.046875-4.160156-5.046875-7.441406-5.046875h-116.078125c-13.253906 0-24-10.746094-24-24v-112c0-13.253906 10.746094-24 24-24h216c10.132812.042969 19.148438 6.445312 22.527344 16h-54.527344c-22.082031.027344-39.972656 17.917969-40 40v112c.039062 12.417969 5.871094 24.109375 15.769531 31.609375-1.871093 4.15625-4.03125 8.179687-6.472656 12.03125zm270.703125-43.640625c0 13.253906-10.746094 24-24 24h-116.070312c-3.269532 0-6.210938 1.988281-7.425782 5.023438-9.007812 19.34375-10.433594 41.359374-4 61.703124 2.550782 6.917969 6.164063 13.394532 10.703125 19.203126-14.605469-8.523438-27.078125-20.257813-36.480469-34.3125-8.609374-13.394532-13.90625-28.644532-15.453124-44.488282-.445313-4.0625-3.882813-7.136718-7.96875-7.128906h-39.304688c-13.253906 0-24-10.746094-24-24v-112c0-13.253906 10.746094-24 24-24h216c13.253906 0 24 10.746094 24 24zm0 0"/></svg>