<svg width="480" height="305" viewBox="0 0 480 305" fill="none" xmlns="http://www.w3.org/2000/svg">
<path d="M412.068 120C408.592 120 405.21 118.868 402.434 116.775C399.658 114.682 397.64 111.742 396.684 108.4L381.26 54.42C377.44 41.0465 369.366 29.2815 358.263 20.9058C347.159 12.5301 333.629 7.9996 319.72 8H192.28C178.371 7.9996 164.841 12.5301 153.737 20.9058C142.634 29.2815 134.561 41.0465 130.74 54.42L118.632 96.792C116.721 103.478 112.685 109.36 107.133 113.548C101.581 117.735 94.8168 120 87.863 120H67.11C59.5349 120.002 52.2058 122.69 46.4255 127.585C40.6451 132.481 36.7881 139.268 35.54 146.74L32 168L24 216H456L448 168L444.46 146.74C443.212 139.268 439.355 132.481 433.575 127.585C427.794 122.69 420.465 120.002 412.89 120H412.068Z" fill="#0095DA"/>
<path d="M448 168H416C411.757 168 407.687 166.314 404.686 163.314C401.686 160.313 400 156.243 400 152V114.51C401.504 116.233 403.359 117.615 405.441 118.562C407.522 119.509 409.783 119.999 412.07 120H412.89C420.465 120.002 427.794 122.69 433.575 127.585C439.355 132.481 443.212 139.268 444.46 146.74L448 168Z" fill="#EB423F"/>
<path d="M8 216H472V248H8V216Z" fill="#DADCDE"/>
<path d="M120 296C146.51 296 168 274.51 168 248C168 221.49 146.51 200 120 200C93.4903 200 72 221.49 72 248C72 274.51 93.4903 296 120 296Z" fill="#606669"/>
<path d="M120 264C128.837 264 136 256.837 136 248C136 239.163 128.837 232 120 232C111.163 232 104 239.163 104 248C104 256.837 111.163 264 120 264Z" fill="#E9EEF2"/>
<path d="M360 296C386.51 296 408 274.51 408 248C408 221.49 386.51 200 360 200C333.49 200 312 221.49 312 248C312 274.51 333.49 296 360 296Z" fill="#606669"/>
<path d="M360 264C368.837 264 376 256.837 376 248C376 239.163 368.837 232 360 232C351.163 232 344 239.163 344 248C344 256.837 351.163 264 360 264Z" fill="#E9EEF2"/>
<path d="M87.86 120H67.11C59.5349 120.002 52.2058 122.69 46.4255 127.585C40.6451 132.481 36.7881 139.268 35.54 146.74L32 168H80C84.2435 168 88.3131 166.314 91.3137 163.314C94.3143 160.313 96 156.243 96 152V118.94C93.3448 119.648 90.608 120.005 87.86 120V120Z" fill="#FFE76C"/>
<path d="M240 120H144L161.158 62.805C163.136 56.2132 167.185 50.4346 172.707 46.3265C178.228 42.2185 184.927 39.9999 191.809 40H240V120Z" fill="#E9EEF2"/>
<path d="M192 88V120H144L153.6 88H192Z" fill="#C7312E"/>
<path d="M272 120H368L350.842 62.805C348.865 56.2132 344.815 50.4346 339.293 46.3265C333.772 42.2185 327.073 39.9999 320.191 40H272V120Z" fill="#E9EEF2"/>
<path d="M153.6 88H192V120H144" fill="#45A6D3"/>
<path d="M240 120V216H155.77C148.528 207.878 138.732 202.471 128 200.67V136C128 131.757 129.686 127.687 132.686 124.686C135.687 121.686 139.757 120 144 120H240Z" fill="#33B8F5"/>
<path d="M368 120V200.67C360.003 199.32 351.795 200.017 344.141 202.698C336.487 205.379 329.637 209.955 324.23 216H272V120H368Z" fill="#72CBF4"/>
<path d="M472 208H462.777L452.351 145.421C450.814 136.072 445.999 127.575 438.769 121.451C431.539 115.328 422.365 111.977 412.89 112H412.068C410.331 111.994 408.643 111.426 407.257 110.38C405.87 109.335 404.859 107.868 404.376 106.2L388.952 52.225C384.611 37.2046 375.517 23.9962 363.035 14.5803C350.553 5.16451 335.355 0.0486941 319.72 0H192.28C176.645 0.0485052 161.447 5.16388 148.965 14.5791C136.483 23.9944 127.39 37.2021 123.048 52.222L110.94 94.594C109.493 99.6003 106.461 104.003 102.301 107.141C98.1401 110.279 93.0744 111.984 87.863 112H67.11C57.6343 111.977 48.46 115.328 41.2296 121.453C33.9993 127.577 29.1851 136.076 27.649 145.426L17.223 208H8C5.87827 208 3.84344 208.843 2.34315 210.343C0.842854 211.843 0 213.878 0 216V248C0 250.122 0.842854 252.157 2.34315 253.657C3.84344 255.157 5.87827 256 8 256H64.581C66.5025 269.328 73.1628 281.517 83.3412 290.333C93.5196 299.149 106.534 304.002 120 304.002C133.466 304.002 146.48 299.149 156.659 290.333C166.837 281.517 173.497 269.328 175.419 256H304.581C306.503 269.328 313.163 281.517 323.341 290.333C333.52 299.149 346.534 304.002 360 304.002C373.466 304.002 386.48 299.149 396.659 290.333C406.837 281.517 413.497 269.328 415.419 256H472C474.122 256 476.157 255.157 477.657 253.657C479.157 252.157 480 250.122 480 248V216C480 213.878 479.157 211.843 477.657 210.343C476.157 208.843 474.122 208 472 208ZM408 127.644C409.343 127.879 410.704 127.998 412.068 128H412.89C418.575 127.987 424.08 129.997 428.418 133.672C432.757 137.346 435.646 142.444 436.569 148.054L438.559 160H416C413.879 159.998 411.846 159.154 410.346 157.654C408.846 156.154 408.002 154.121 408 152V127.644ZM43.431 148.06C44.3528 142.449 47.2415 137.349 51.5801 133.674C55.9187 129.998 61.4238 127.987 67.11 128H87.863H88V152C87.9976 154.121 87.154 156.154 85.6542 157.654C84.1544 159.154 82.121 159.998 80 160H41.441L43.431 148.06ZM64.581 240H16V224H69.414C67.0048 229.059 65.3754 234.453 64.581 240V240ZM120 288C112.089 288 104.355 285.654 97.7772 281.259C91.1992 276.864 86.0723 270.616 83.0448 263.307C80.0173 255.998 79.2252 247.956 80.7686 240.196C82.312 232.437 86.1216 225.31 91.7157 219.716C97.3098 214.122 104.437 210.312 112.196 208.769C119.956 207.225 127.998 208.017 135.307 211.045C142.616 214.072 148.864 219.199 153.259 225.777C157.654 232.355 160 240.089 160 248C159.988 258.605 155.77 268.772 148.271 276.271C140.772 283.77 130.605 287.988 120 288V288ZM159.138 208C152.647 201.638 144.706 196.95 136 194.341V136C136.002 133.879 136.846 131.846 138.346 130.346C139.846 128.846 141.879 128.002 144 128H232V144H208C205.878 144 203.843 144.843 202.343 146.343C200.843 147.843 200 149.878 200 152C200 154.122 200.843 156.157 202.343 157.657C203.843 159.157 205.878 160 208 160H232V208H159.138ZM192 80H164.352L168.821 65.1C170.284 60.1445 173.316 55.798 177.462 52.7141C181.607 49.6303 186.642 47.976 191.809 48H232V112H200V88C200 85.8783 199.157 83.8434 197.657 82.3431C196.157 80.8428 194.122 80 192 80ZM184 96V112H154.752L159.552 96H184ZM304.581 240H175.419C174.625 234.453 172.995 229.059 170.586 224H309.414C307.005 229.059 305.375 234.453 304.581 240V240ZM280 208V128H360V144H336C333.878 144 331.843 144.843 330.343 146.343C328.843 147.843 328 149.878 328 152C328 154.122 328.843 156.157 330.343 157.657C331.843 159.157 333.878 160 336 160H360V192C345.36 191.993 331.304 197.74 320.862 208H280ZM280 112V48H320.191C325.358 47.976 330.393 49.6303 334.538 52.7141C338.684 55.798 341.716 60.1445 343.179 65.1L357.248 112H280ZM360 288C352.089 288 344.355 285.654 337.777 281.259C331.199 276.864 326.072 270.616 323.045 263.307C320.017 255.998 319.225 247.956 320.769 240.196C322.312 232.437 326.122 225.31 331.716 219.716C337.31 214.122 344.437 210.312 352.196 208.769C359.956 207.225 367.998 208.017 375.307 211.045C382.616 214.072 388.864 219.199 393.259 225.777C397.654 232.355 400 240.089 400 248C399.988 258.605 395.77 268.772 388.271 276.271C380.772 283.77 370.605 287.988 360 288V288ZM399.138 208C392.647 201.638 384.706 196.95 376 194.341V120C376 119.221 375.886 118.446 375.663 117.7L358.5 60.506C356.064 52.2464 351.011 45.0012 344.102 39.8604C337.194 34.7196 328.802 31.9612 320.191 32H272C269.878 32 267.843 32.8428 266.343 34.3431C264.843 35.8434 264 37.8783 264 40V208H248V40C248 37.8783 247.157 35.8434 245.657 34.3431C244.157 32.8428 242.122 32 240 32H191.809C183.198 31.9612 174.806 34.7196 167.898 39.8604C160.989 45.0012 155.936 52.2464 153.5 60.506L137.8 112.815C132.698 114.187 128.189 117.201 124.972 121.392C121.754 125.582 120.007 130.717 120 136V192C105.36 191.993 91.3043 197.74 80.862 208H33.443L38.775 176H80C86.3629 175.993 92.4631 173.462 96.9624 168.962C101.462 164.463 103.993 158.363 104 152V124.562C109.363 122.189 114.141 118.67 117.997 114.252C121.854 109.834 124.696 104.625 126.324 98.991L138.433 56.617C141.81 44.9352 148.883 34.6629 158.592 27.34C168.3 20.0172 180.12 16.0383 192.28 16H319.72C331.88 16.0385 343.701 20.0175 353.409 27.3405C363.117 34.6636 370.19 44.936 373.568 56.618L388.992 110.594C389.658 112.907 390.673 115.104 392 117.112V152C392.007 158.363 394.538 164.463 399.037 168.963C403.537 173.462 409.637 175.993 416 176H441.225L446.557 208H399.138ZM464 240H415.419C414.625 234.453 412.995 229.059 410.586 224H464V240Z" fill="black"/>
<path d="M120 224C115.253 224 110.613 225.408 106.666 228.045C102.72 230.682 99.6434 234.43 97.8269 238.816C96.0104 243.201 95.5351 248.027 96.4611 252.682C97.3872 257.338 99.673 261.614 103.029 264.971C106.386 268.327 110.662 270.613 115.318 271.539C119.973 272.465 124.799 271.99 129.184 270.173C133.57 268.357 137.318 265.28 139.955 261.334C142.592 257.387 144 252.747 144 248C143.993 241.637 141.462 235.537 136.963 231.037C132.463 226.538 126.363 224.007 120 224V224ZM120 256C118.418 256 116.871 255.531 115.555 254.652C114.24 253.773 113.214 252.523 112.609 251.061C112.003 249.6 111.845 247.991 112.154 246.439C112.462 244.887 113.224 243.462 114.343 242.343C115.462 241.224 116.887 240.462 118.439 240.154C119.991 239.845 121.6 240.003 123.061 240.609C124.523 241.214 125.773 242.24 126.652 243.555C127.531 244.871 128 246.418 128 248C127.998 250.121 127.154 252.154 125.654 253.654C124.154 255.154 122.121 255.998 120 256Z" fill="black"/>
<path d="M360 224C355.253 224 350.613 225.408 346.666 228.045C342.72 230.682 339.643 234.43 337.827 238.816C336.01 243.201 335.535 248.027 336.461 252.682C337.387 257.338 339.673 261.614 343.029 264.971C346.386 268.327 350.662 270.613 355.318 271.539C359.973 272.465 364.799 271.99 369.184 270.173C373.57 268.357 377.318 265.28 379.955 261.334C382.592 257.387 384 252.747 384 248C383.993 241.637 381.462 235.537 376.963 231.037C372.463 226.538 366.363 224.007 360 224V224ZM360 256C358.418 256 356.871 255.531 355.555 254.652C354.24 253.773 353.214 252.523 352.609 251.061C352.003 249.6 351.845 247.991 352.154 246.439C352.462 244.887 353.224 243.462 354.343 242.343C355.462 241.224 356.887 240.462 358.439 240.154C359.991 239.845 361.6 240.003 363.061 240.609C364.523 241.214 365.773 242.24 366.652 243.555C367.531 244.871 368 246.418 368 248C367.998 250.121 367.154 252.154 365.654 253.654C364.154 255.154 362.121 255.998 360 256Z" fill="black"/>
</svg>
