<svg id="Filled" height="512" viewBox="0 0 512 512" width="512" xmlns="http://www.w3.org/2000/svg"><path d="m428.068 224a16 16 0 0 1 -15.384-11.6l-15.424-53.98a64 64 0 0 0 -61.54-46.42h-127.44a64 64 0 0 0 -61.54 46.42l-12.108 42.372a32 32 0 0 1 -30.769 23.208h-20.753a32.015 32.015 0 0 0 -31.57 26.74l-3.54 21.26-8 48h432l-8-48-3.54-21.26a32.015 32.015 0 0 0 -31.57-26.74z" fill="#d13330"/><path d="m464 272h-32a16 16 0 0 1 -16-16v-37.49a16.027 16.027 0 0 0 12.07 5.49h.82a32.015 32.015 0 0 1 31.57 26.74z" fill="#eb423f"/><path d="m24 320h464v32h-464z" fill="#dadcde"/><circle cx="136" cy="352" fill="#606669" r="48"/><circle cx="136" cy="352" fill="#e9eef2" r="16"/><circle cx="376" cy="352" fill="#606669" r="48"/><circle cx="376" cy="352" fill="#e9eef2" r="16"/><path d="m103.86 224h-20.75a32.015 32.015 0 0 0 -31.57 26.74l-3.54 21.26h48a16 16 0 0 0 16-16v-33.06a31.386 31.386 0 0 1 -8.14 1.06z" fill="#ffe76c"/><path d="m256 224h-96l17.158-57.195a32 32 0 0 1 30.651-22.805h48.191z" fill="#e9eef2"/><path d="m208 192v32h-48l9.6-32z" fill="#c7312e"/><path d="m288 224h96l-17.158-57.195a32 32 0 0 0 -30.651-22.805h-48.191z" fill="#e9eef2"/><path d="m169.6 192h38.4v32h-48" fill="#a82a27"/><path d="m256 224v96h-84.23a47.806 47.806 0 0 0 -27.77-15.33v-64.67a16 16 0 0 1 16-16z" fill="#eb423f"/><path d="m384 224v80.67a48 48 0 0 0 -43.77 15.33h-52.23v-96z" fill="#eb423f"/><path d="m488 312h-9.223l-10.426-62.579a39.894 39.894 0 0 0 -39.461-33.421h-.822a8.036 8.036 0 0 1 -7.692-5.8l-15.424-53.975a72.3 72.3 0 0 0 -69.232-52.225h-127.44a72.3 72.3 0 0 0 -69.232 52.222l-12.108 42.372a24.1 24.1 0 0 1 -23.077 17.406h-20.753a39.893 39.893 0 0 0 -39.461 33.426l-10.426 62.574h-9.223a8 8 0 0 0 -8 8v32a8 8 0 0 0 8 8h56.581a55.992 55.992 0 0 0 110.838 0h129.162a55.992 55.992 0 0 0 110.838 0h56.581a8 8 0 0 0 8-8v-32a8 8 0 0 0 -8-8zm-64-80.356a23.74 23.74 0 0 0 4.068.356h.822a23.941 23.941 0 0 1 23.679 20.054l1.99 11.946h-22.559a8.009 8.009 0 0 1 -8-8zm-364.569 20.416a23.941 23.941 0 0 1 23.679-20.06h20.753.137v24a8.009 8.009 0 0 1 -8 8h-38.559zm21.15 91.94h-48.581v-16h53.414a55.52 55.52 0 0 0 -4.833 16zm55.419 48a40 40 0 1 1 40-40 40.045 40.045 0 0 1 -40 40zm39.138-80a56.025 56.025 0 0 0 -23.138-13.659v-58.341a8.009 8.009 0 0 1 8-8h88v16h-24a8 8 0 0 0 0 16h24v48zm32.862-128h-27.648l4.469-14.9a23.853 23.853 0 0 1 22.988-17.1h40.191v64h-32v-24a8 8 0 0 0 -8-8zm-8 16v16h-29.248l4.8-16zm120.581 144h-129.162a55.52 55.52 0 0 0 -4.833-16h138.828a55.52 55.52 0 0 0 -4.833 16zm-24.581-32v-80h80v16h-24a8 8 0 0 0 0 16h24v32a55.806 55.806 0 0 0 -39.138 16zm0-96v-64h40.191a23.853 23.853 0 0 1 22.988 17.1l14.069 46.9zm80 176a40 40 0 1 1 40-40 40.045 40.045 0 0 1 -40 40zm39.138-80a56.025 56.025 0 0 0 -23.138-13.659v-74.341a8.026 8.026 0 0 0 -.337-2.3l-17.163-57.194a39.754 39.754 0 0 0 -38.309-28.506h-48.191a8 8 0 0 0 -8 8v168h-16v-168a8 8 0 0 0 -8-8h-48.191a39.754 39.754 0 0 0 -38.309 28.506l-15.7 52.309a24.041 24.041 0 0 0 -17.8 23.185v56a55.806 55.806 0 0 0 -39.138 16h-47.419l5.332-32h41.225a24.028 24.028 0 0 0 24-24v-27.438a40.147 40.147 0 0 0 22.324-25.571l12.109-42.374a56.237 56.237 0 0 1 53.847-40.617h127.44a56.239 56.239 0 0 1 53.848 40.618l15.424 53.976a23.738 23.738 0 0 0 3.008 6.518v34.888a24.027 24.027 0 0 0 24 24h25.225l5.332 32zm64.862 32h-48.581a55.52 55.52 0 0 0 -4.833-16h53.414z"/><path d="m136 328a24 24 0 1 0 24 24 24.027 24.027 0 0 0 -24-24zm0 32a8 8 0 1 1 8-8 8.009 8.009 0 0 1 -8 8z"/><path d="m376 328a24 24 0 1 0 24 24 24.027 24.027 0 0 0 -24-24zm0 32a8 8 0 1 1 8-8 8.009 8.009 0 0 1 -8 8z"/></svg>