<svg id="Flat" height="512" viewBox="0 0 512 512" width="512" xmlns="http://www.w3.org/2000/svg"><path d="m460.46 146.74a32.015 32.015 0 0 0 -31.57-26.74h-321.11a32 32 0 0 0 -28.62 17.69l-39.16 78.31v96h432v-96z" fill="#67c5e0"/><path d="m200 152h112v160h-112z" fill="#6ed2f0"/><path d="m168 152h-54.112a16 16 0 0 0 -14.31 8.845l-27.578 55.155h96z" fill="#e9eef2"/><path d="m120 184v32h-48l16-32z" fill="#2978b8"/><path d="m72 216h48v-32h-32" fill="#3397e8"/><path d="m40 216h32v112h-32z" fill="#67c5e0"/><path d="m56 264h-16v-48h32v32a16 16 0 0 1 -16 16z" fill="#ffe76c"/><path d="m168 216v92.23a47.982 47.982 0 0 0 -67.77 3.77h-28.23v-96z" fill="#6ed2f0"/><path d="m200 152h80v64h-80z" fill="#e9eef2"/><path d="m440 264h32v-48h-48v32a16 16 0 0 0 16 16z" fill="#d13330"/><path d="m208 272a8 8 0 0 1 -8-8v-16a8 8 0 0 1 16 0v16a8 8 0 0 1 -8 8z" fill="#60b8d1"/><path d="m24 312h464v32h-464z" fill="#dadcde"/><circle cx="384" cy="344" fill="#606669" r="48"/><circle cx="384" cy="344" fill="#e9eef2" r="16"/><path d="m160 256h-32a8 8 0 0 1 0-16h32a8 8 0 0 1 0 16z" fill="#60b8d1"/><circle cx="136" cy="344" fill="#606669" r="48"/><g fill="#e9eef2"><circle cx="136" cy="344" r="16"/><path d="m433.752 166.015a16 16 0 0 0 -15.877-14.015h-105.875v64h128z"/></g></svg>