<svg width="476" height="306" viewBox="0 0 476 306" fill="none" xmlns="http://www.w3.org/2000/svg">
<path d="M7.224 220.468H468.772V269.24H7.224V220.468Z" fill="#27849D"/>
<path d="M7.224 7.216H290.78V220.468H7.224V7.216Z" fill="#33B8F5"/>
<path d="M290.78 220.468V38.664H396.14L468.776 120.3V220.468H290.78Z" fill="#0095DA"/>
<path d="M385.756 62.936H333.072V120.3H436.792L385.756 62.936Z" fill="#F2E7CB"/>
<path d="M101.44 298.784C131.285 298.784 155.48 274.589 155.48 244.744C155.48 214.898 131.285 190.704 101.44 190.704C71.5945 190.704 47.4 214.898 47.4 244.744C47.4 274.589 71.5945 298.784 101.44 298.784Z" fill="#E9EEF2"/>
<path d="M374.56 298.784C404.405 298.784 428.6 274.589 428.6 244.744C428.6 214.898 404.405 190.704 374.56 190.704C344.715 190.704 320.52 214.898 320.52 244.744C320.52 274.589 344.715 298.784 374.56 298.784Z" fill="#E9EEF2"/>
<path d="M468.776 149.94H447.272C443.36 149.94 439.609 151.494 436.842 154.259C434.076 157.025 432.521 160.776 432.52 164.688C432.52 166.625 432.902 168.544 433.643 170.333C434.384 172.123 435.471 173.749 436.841 175.119C438.211 176.489 439.837 177.576 441.627 178.317C443.416 179.058 445.335 179.44 447.272 179.44H468.776V149.94Z" fill="#F2E7CB"/>
<path d="M101.44 264.856C112.548 264.856 121.552 255.852 121.552 244.744C121.552 233.636 112.548 224.632 101.44 224.632C90.3325 224.632 81.328 233.636 81.328 244.744C81.328 255.852 90.3325 264.856 101.44 264.856Z" fill="#F2E7CB"/>
<path d="M374.56 264.856C385.668 264.856 394.672 255.852 394.672 244.744C394.672 233.636 385.668 224.632 374.56 224.632C363.452 224.632 354.448 233.636 354.448 244.744C354.448 255.852 363.452 264.856 374.56 264.856Z" fill="#F2E7CB"/>
<path d="M7.228 168.408C9.08419 168.407 10.8641 167.669 12.1766 166.357C13.4891 165.044 14.2269 163.264 14.228 161.408V143.4C14.228 141.544 13.4905 139.763 12.1777 138.45C10.865 137.138 9.08452 136.4 7.228 136.4C5.37149 136.4 3.59101 137.138 2.27825 138.45C0.965498 139.763 0.228001 141.544 0.228001 143.4V161.4C0.22695 162.32 0.407234 163.231 0.758546 164.081C1.10986 164.931 1.62531 165.704 2.27542 166.355C2.92554 167.006 3.69757 167.522 4.54737 167.874C5.39717 168.227 6.30807 168.408 7.228 168.408V168.408Z" fill="#422002"/>
<path d="M474 115.648L401.372 34.012C400.715 33.273 399.91 32.6817 399.008 32.2769C398.106 31.8722 397.129 31.6633 396.14 31.664H372.896C371.039 31.664 369.259 32.4015 367.946 33.7142C366.634 35.027 365.896 36.8075 365.896 38.664C365.896 40.5205 366.634 42.301 367.946 43.6138C369.259 44.9265 371.039 45.664 372.896 45.664H393L461.772 122.964V142.936H447.268C441.499 142.936 435.966 145.228 431.887 149.307C427.808 153.386 425.516 158.919 425.516 164.688C425.516 170.457 427.808 175.99 431.887 180.069C435.966 184.148 441.499 186.44 447.268 186.44H461.772V213.468H426.88C421.487 204.398 413.829 196.886 404.657 191.669C395.485 186.452 385.114 183.709 374.562 183.709C364.01 183.709 353.639 186.452 344.467 191.669C335.295 196.886 327.637 204.398 322.244 213.468H297.78V45.664H342.18C344.037 45.664 345.817 44.9265 347.13 43.6138C348.443 42.301 349.18 40.5205 349.18 38.664C349.18 36.8075 348.443 35.027 347.13 33.7142C345.817 32.4015 344.037 31.664 342.18 31.664H297.78V7.216C297.781 6.2966 297.6 5.38611 297.248 4.53659C296.897 3.68708 296.381 2.9152 295.731 2.26508C295.081 1.61497 294.309 1.09937 293.459 0.747773C292.61 0.396177 291.699 0.215479 290.78 0.216005H7.228C6.3086 0.215479 5.39811 0.396177 4.54859 0.747773C3.69907 1.09937 2.92719 1.61497 2.27708 2.26508C1.62696 2.9152 1.11137 3.68708 0.759771 4.53659C0.408174 5.38611 0.227472 6.2966 0.227998 7.216V108.784C0.227998 110.641 0.965494 112.421 2.27825 113.734C3.591 115.047 5.37148 115.784 7.228 115.784C9.08451 115.784 10.865 115.047 12.1777 113.734C13.4905 112.421 14.228 110.641 14.228 108.784V14.2H283.78V213.468H153.756C148.363 204.398 140.705 196.886 131.533 191.669C122.361 186.452 111.99 183.709 101.438 183.709C90.886 183.709 80.5152 186.452 71.3432 191.669C62.1711 196.886 54.513 204.398 49.12 213.468H14.228V194.356C14.228 192.499 13.4905 190.719 12.1777 189.406C10.865 188.093 9.08451 187.356 7.228 187.356C5.37148 187.356 3.591 188.093 2.27825 189.406C0.965494 190.719 0.227998 192.499 0.227998 194.356V269.24C0.227998 271.097 0.965494 272.877 2.27825 274.19C3.591 275.503 5.37148 276.24 7.228 276.24H49.252C54.66 285.25 62.309 292.707 71.4541 297.884C80.5993 303.061 90.9291 305.782 101.438 305.782C111.947 305.782 122.277 303.061 131.422 297.884C140.567 292.707 148.216 285.25 153.624 276.24H322.376C327.784 285.25 335.433 292.707 344.578 297.884C353.723 303.061 364.053 305.782 374.562 305.782C385.071 305.782 395.401 303.061 404.546 297.884C413.691 292.707 421.34 285.25 426.748 276.24H468.772C470.629 276.24 472.409 275.503 473.722 274.19C475.034 272.877 475.772 271.097 475.772 269.24V120.3C475.772 118.584 475.141 116.929 474 115.648V115.648ZM447.264 172.448C445.208 172.448 443.236 171.631 441.783 170.177C440.329 168.724 439.512 166.752 439.512 164.696C439.512 162.64 440.329 160.668 441.783 159.215C443.236 157.761 445.208 156.944 447.264 156.944H461.768V172.44L447.264 172.448ZM14.228 262.24V227.468H42.928C39.5378 238.814 39.5573 250.905 42.984 262.24H14.228ZM101.428 291.784C92.1242 291.784 83.0293 289.025 75.2936 283.856C67.5578 278.687 61.5285 271.34 57.9683 262.745C54.4081 254.149 53.4768 244.69 55.2921 235.565C57.1075 226.441 61.5881 218.059 68.1671 211.48C74.7462 204.902 83.1283 200.422 92.2534 198.607C101.379 196.793 110.837 197.725 119.432 201.286C128.028 204.847 135.374 210.877 140.542 218.613C145.711 226.349 148.469 235.444 148.468 244.748C148.458 257.221 143.501 269.18 134.683 278.001C125.866 286.823 113.909 291.785 101.436 291.8L101.428 291.784ZM159.892 262.24C163.319 250.905 163.338 238.814 159.948 227.468H316.052C312.662 238.814 312.681 250.905 316.108 262.24H159.892ZM374.564 291.8C365.261 291.801 356.166 289.043 348.43 283.875C340.694 278.707 334.664 271.362 331.103 262.767C327.542 254.172 326.609 244.715 328.422 235.59C330.236 226.465 334.715 218.083 341.292 211.503C347.869 204.924 356.25 200.442 365.374 198.626C374.498 196.809 383.956 197.738 392.552 201.297C401.148 204.855 408.496 210.883 413.666 218.617C418.837 226.351 421.598 235.445 421.6 244.748C421.59 257.221 416.632 269.181 407.814 278.003C398.995 286.824 387.037 291.786 374.564 291.8V291.8ZM461.764 262.256H433.008C436.435 250.921 436.454 238.83 433.064 227.484H461.764V262.256Z" fill="#422002"/>
<path d="M443.2 123.164C443.753 121.933 443.937 120.569 443.732 119.235C443.527 117.902 442.941 116.656 442.044 115.648L391.004 58.284C390.347 57.5451 389.542 56.9537 388.64 56.549C387.738 56.1442 386.761 55.9353 385.772 55.936H333.076C331.219 55.936 329.439 56.6735 328.126 57.9863C326.813 59.299 326.076 61.0795 326.076 62.936V120.3C326.076 121.219 326.257 122.13 326.609 122.979C326.961 123.828 327.476 124.6 328.126 125.25C328.776 125.9 329.548 126.415 330.397 126.767C331.246 127.119 332.157 127.3 333.076 127.3H436.8C438.152 127.302 439.476 126.913 440.612 126.179C441.748 125.445 442.647 124.398 443.2 123.164V123.164ZM340.076 113.3V69.936H382.612L421.2 113.3H340.076Z" fill="#422002"/>
<path d="M101.436 217.632C96.0741 217.633 90.8328 219.223 86.3749 222.203C81.917 225.182 78.4426 229.417 76.391 234.371C74.3395 239.324 73.8029 244.775 74.8492 250.034C75.8954 255.293 78.4775 260.124 82.2689 263.915C86.0604 267.706 90.8909 270.289 96.1497 271.335C101.409 272.381 106.86 271.845 111.813 269.793C116.767 267.741 121.002 264.267 123.981 259.809C126.961 255.351 128.551 250.11 128.552 244.748C128.545 237.559 125.685 230.666 120.602 225.582C115.518 220.499 108.625 217.639 101.436 217.632V217.632ZM101.436 257.856C98.8427 257.855 96.3079 257.085 94.1521 255.644C91.9962 254.203 90.3163 252.154 89.3246 249.758C88.3329 247.362 88.074 244.725 88.5807 242.182C89.0874 239.639 90.337 237.303 92.1713 235.47C94.0056 233.636 96.3423 232.388 98.8859 231.883C101.43 231.378 104.066 231.638 106.461 232.632C108.857 233.625 110.904 235.306 112.344 237.463C113.785 239.619 114.553 242.155 114.552 244.748C114.548 248.224 113.164 251.557 110.705 254.015C108.246 256.472 104.913 257.854 101.436 257.856V257.856Z" fill="#422002"/>
<path d="M374.564 217.632C369.202 217.632 363.96 219.222 359.502 222.201C355.043 225.18 351.568 229.414 349.516 234.368C347.464 239.322 346.927 244.773 347.973 250.032C349.018 255.291 351.6 260.122 355.392 263.914C359.183 267.705 364.013 270.288 369.272 271.335C374.531 272.381 379.982 271.845 384.937 269.793C389.891 267.742 394.125 264.268 397.105 259.81C400.084 255.351 401.675 250.11 401.676 244.748C401.668 237.56 398.809 230.668 393.726 225.585C388.643 220.502 381.752 217.641 374.564 217.632V217.632ZM374.564 257.856C371.971 257.856 369.435 257.087 367.279 255.646C365.123 254.205 363.442 252.157 362.45 249.761C361.457 247.365 361.198 244.728 361.704 242.184C362.211 239.641 363.46 237.305 365.294 235.471C367.128 233.637 369.465 232.389 372.008 231.883C374.552 231.378 377.189 231.638 379.585 232.631C381.98 233.624 384.028 235.305 385.468 237.462C386.908 239.619 387.677 242.154 387.676 244.748C387.671 248.223 386.287 251.555 383.83 254.012C381.372 256.469 378.04 257.852 374.564 257.856Z" fill="#422002"/>
<path d="M333.076 141.184C331.219 141.184 329.439 141.922 328.126 143.234C326.813 144.547 326.076 146.328 326.076 148.184C326.076 150.041 326.813 151.821 328.126 153.134C329.439 154.447 331.219 155.184 333.076 155.184H351.296C353.153 155.184 354.933 154.447 356.246 153.134C357.559 151.821 358.296 150.041 358.296 148.184C358.296 146.328 357.559 144.547 356.246 143.234C354.933 141.922 353.153 141.184 351.296 141.184H333.076Z" fill="#422002"/>
</svg>
