<svg id="Capa_1" enable-background="new 0 0 512 512" height="512" viewBox="0 0 512 512" width="512" xmlns="http://www.w3.org/2000/svg"><g id="XMLID_812_"><g id="XMLID_1606_"><path id="XMLID_1701_" d="m292.519 123.2v-93.174h-73.038v93.174l-87.481 87.48 41.317 41.317 82.683-82.683 82.683 82.683 41.317-41.317z" fill="#f2b394"/><path id="XMLID_811_" d="m210 162.449v227.698c0 25.1-15.342 47.65-38.688 56.866l-77.726 30.683c-40.121 15.839-83.586-13.732-83.586-56.866v-117.506c0-94.13 76.308-170.438 170.438-170.438 16.326.001 29.562 13.236 29.562 29.563z" fill="#ff5c7d"/><path id="XMLID_814_" d="m302 162.449v227.698c0 25.1 15.341 47.65 38.688 56.866l77.726 30.683c40.121 15.839 83.586-13.732 83.586-56.866v-117.506c0-94.13-76.307-170.438-170.438-170.438-16.326.001-29.562 13.236-29.562 29.563z" fill="#ff5c7d"/><circle id="XMLID_1981_" cx="140.87" cy="214.275" fill="#ffd88e" r="22"/><circle id="XMLID_2632_" cx="371.13" cy="214.275" fill="#ffd88e" r="22"/><g fill="#ff9171"><circle id="XMLID_793_" cx="398" cy="330.408" r="36"/><circle id="XMLID_831_" cx="114" cy="330.408" r="36"/></g></g><g id="XMLID_816_"><path id="XMLID_893_" d="m331.562 122.887c-7.232 0-14.011 1.96-19.851 5.363l-9.192-9.192v-89.032c0-5.523-4.477-10-10-10h-73.039c-5.523 0-10 4.477-10 10v89.032l-9.192 9.192c-5.84-3.403-12.619-5.363-19.851-5.363-99.493 0-180.437 80.944-180.437 180.437v117.506c0 23.57 11.635 45.558 31.123 58.816 11.98 8.151 25.936 12.329 40.006 12.329 8.818 0 17.683-1.642 26.129-4.977l77.726-30.683c27.346-10.796 45.016-36.769 45.016-66.168v-170.69l36-36 36 36v48.784c0 5.523 4.477 10 10 10s10-4.477 10-10v-105.792c0-10.787 8.776-19.562 19.562-19.562 88.465 0 160.438 71.972 160.438 160.437v117.506c0 17.197-8.154 32.607-22.373 42.28-14.218 9.672-31.546 11.599-47.542 5.285l-77.725-30.683c-19.658-7.761-32.36-26.431-32.36-47.565v-31.906c0-5.523-4.477-10-10-10s-10 4.477-10 10v31.906c0 29.4 17.67 55.373 45.017 66.168l77.726 30.683c8.448 3.335 17.31 4.977 26.129 4.977 14.069 0 28.027-4.179 40.006-12.329 19.487-13.259 31.122-35.246 31.122-58.816v-117.506c0-99.493-80.944-180.437-180.438-180.437zm-163.922 314.825-77.726 30.683c-15.996 6.314-33.324 4.388-47.542-5.285-14.218-9.674-22.372-25.084-22.372-42.28v-117.506c0-88.465 71.972-160.437 160.438-160.437 10.787 0 19.562 8.776 19.562 19.562v227.697c0 21.135-12.702 39.805-32.36 47.566zm95.431-275.469c-3.905-3.905-10.237-3.905-14.143 0l-28.928 28.929v-28.723c0-7.34-2.016-14.215-5.513-20.113l12.065-12.066c1.875-1.875 2.929-4.418 2.929-7.071v-83.173h53.039v83.174c0 2.652 1.054 5.196 2.929 7.071l12.065 12.065c-3.497 5.898-5.513 12.773-5.513 20.113v28.723z"/><path id="XMLID_897_" d="m140.87 246.275c17.645 0 32-14.355 32-32s-14.355-32-32-32-32 14.355-32 32 14.355 32 32 32zm0-44c6.617 0 12 5.383 12 12s-5.383 12-12 12-12-5.383-12-12 5.383-12 12-12z"/><path id="XMLID_898_" d="m70.33 411.026c-2.63 0-5.21 1.07-7.07 2.93s-2.93 4.44-2.93 7.07 1.07 5.21 2.93 7.07 4.44 2.93 7.07 2.93c2.64 0 5.21-1.07 7.07-2.93 1.87-1.86 2.93-4.44 2.93-7.07s-1.06-5.21-2.93-7.07c-1.86-1.86-4.43-2.93-7.07-2.93z"/><path id="XMLID_901_" d="m371.13 246.275c17.645 0 32-14.355 32-32s-14.355-32-32-32-32 14.355-32 32 14.355 32 32 32zm0-44c6.617 0 12 5.383 12 12s-5.383 12-12 12-12-5.383-12-12 5.383-12 12-12z"/><path id="XMLID_902_" d="m434.6 413.956c-1.87 1.86-2.93 4.44-2.93 7.07s1.06 5.21 2.93 7.07c1.86 1.86 4.43 2.93 7.07 2.93 2.63 0 5.21-1.07 7.07-2.93s2.93-4.44 2.93-7.07-1.07-5.21-2.93-7.07-4.44-2.93-7.07-2.93c-2.64 0-5.21 1.07-7.07 2.93z"/><path id="XMLID_914_" d="m332 330.408c0 5.523 4.477 10 10 10h11.108c1.177 5.285 3.264 10.227 6.09 14.659l-7.867 7.868c-3.905 3.905-3.905 10.237 0 14.143 1.953 1.953 4.512 2.929 7.071 2.929s5.119-.976 7.071-2.929l7.867-7.867c4.431 2.826 9.374 4.914 14.659 6.091v11.108c0 5.523 4.477 10 10 10s10-4.477 10-10v-11.11c5.285-1.177 10.228-3.264 14.66-6.091l7.868 7.867c1.953 1.953 4.512 2.929 7.071 2.929s5.119-.977 7.071-2.929c3.905-3.905 3.905-10.237 0-14.142l-7.867-7.867c2.826-4.432 4.914-9.374 6.091-14.659h11.107c5.523 0 10-4.477 10-10s-4.477-10-10-10h-11.108c-1.177-5.285-3.264-10.228-6.091-14.66l7.867-7.867c3.905-3.905 3.906-10.237 0-14.142-3.905-3.906-10.237-3.905-14.142 0l-7.868 7.868c-4.431-2.826-9.374-4.914-14.659-6.09v-11.108c0-5.523-4.477-10-10-10s-10 4.477-10 10v11.108c-5.285 1.177-10.228 3.264-14.659 6.09l-7.868-7.868c-3.905-3.905-10.237-3.905-14.143 0-3.905 3.905-3.905 10.237 0 14.143l7.868 7.868c-2.826 4.432-4.914 9.374-6.091 14.659h-11.106c-5.523-.001-10 4.476-10 9.999zm66-26c14.336 0 26 11.664 26 26s-11.664 26-26 26-26-11.664-26-26c0-14.337 11.664-26 26-26z"/><path id="XMLID_917_" d="m170 320.408h-11.108c-1.177-5.285-3.264-10.228-6.091-14.66l7.867-7.867c3.905-3.905 3.906-10.237.001-14.142-3.905-3.906-10.237-3.905-14.142 0l-7.868 7.868c-4.431-2.826-9.374-4.914-14.659-6.09v-11.108c0-5.523-4.477-10-10-10s-10 4.477-10 10v11.108c-5.285 1.177-10.228 3.264-14.659 6.09l-7.868-7.868c-3.905-3.905-10.237-3.905-14.143 0-3.905 3.905-3.905 10.237 0 14.143l7.868 7.868c-2.826 4.432-4.914 9.374-6.09 14.659h-11.108c-5.523 0-10 4.477-10 10s4.477 10 10 10h11.108c1.177 5.285 3.264 10.227 6.09 14.659l-7.867 7.868c-3.905 3.905-3.905 10.237 0 14.143 1.953 1.953 4.512 2.929 7.071 2.929s5.119-.976 7.071-2.929l7.868-7.867c4.431 2.826 9.374 4.914 14.659 6.091v11.108c0 5.523 4.477 10 10 10s10-4.477 10-10v-11.111c5.285-1.177 10.228-3.264 14.66-6.091l7.868 7.867c1.953 1.953 4.512 2.929 7.071 2.929s5.119-.977 7.071-2.929c3.905-3.905 3.905-10.237-.001-14.142l-7.867-7.867c2.826-4.432 4.914-9.374 6.09-14.659h11.108c5.523 0 10-4.477 10-10s-4.477-10-10-10zm-56 36c-14.336 0-26-11.664-26-26s11.664-26 26-26 26 11.664 26 26-11.664 26-26 26z"/><path id="XMLID_918_" d="m302 323.236c2.63 0 5.21-1.06 7.07-2.93 1.86-1.85 2.93-4.43 2.93-7.07 0-2.63-1.07-5.21-2.93-7.07s-4.44-2.92-7.07-2.92-5.21 1.06-7.07 2.92c-1.86 1.87-2.93 4.44-2.93 7.07 0 2.64 1.07 5.21 2.93 7.07 1.86 1.87 4.44 2.93 7.07 2.93z"/></g></g></svg>