<svg height="512" viewBox="0 0 64 64" width="512" xmlns="http://www.w3.org/2000/svg"><g id="Flat"><g id="Stroke_copy_2" data-name="Stroke copy 2"><g><g><g><path d="m59.322 55.319a1.989 1.989 0 0 0 .109-3.579 2.948 2.948 0 0 0 .569-1.74 2.984 2.984 0 0 0 -1.54-2.6 2.46 2.46 0 0 0 .04-.4 2.49 2.49 0 0 0 -.765-1.8 2.937 2.937 0 0 0 .265-1.2 2.992 2.992 0 0 0 -5.681-1.321 1.976 1.976 0 0 0 -2.405.615 3.945 3.945 0 0 0 -2.914-1.294 3.995 3.995 0 0 0 -2.3 7.267 4.963 4.963 0 0 0 4.643 8.527 4.99 4.99 0 0 0 4.657 3.206 4.94 4.94 0 0 0 2.261-.564 2.992 2.992 0 1 0 3.061-5.117z" fill="#93999a"/><path d="m59.322 55.319a1.982 1.982 0 0 0 .5-.333 4.985 4.985 0 0 1 -4.479-3.192 4.938 4.938 0 0 1 -6.332-5.169h.007l2.476 1.43a2 2 0 0 0 2.751-.766l2.938-5.327a2.977 2.977 0 0 0 -4.867.721 1.976 1.976 0 0 0 -2.405.615 3.94 3.94 0 0 0 -3.488-1.253 3.994 3.994 0 0 0 -1.723 7.222 4.967 4.967 0 0 0 -1.7 3.733 4.55 4.55 0 0 0 1.383 3.161c2.023 2.046 3.569 2.026 4.963 1.635a4.99 4.99 0 0 0 4.654 3.204 4.94 4.94 0 0 0 2.261-.564 2.994 2.994 0 0 0 2.677.419 2.946 2.946 0 0 0 1.934-1.967 3 3 0 0 0 -1.55-3.569z" fill="#656b76"/></g><path d="m55 51a1.986 1.986 0 0 1 -1.946-2.446 2 2 0 1 0 2.392 2.392 1.987 1.987 0 0 1 -.446.054z" fill="#656b76"/><circle cx="56" cy="49" fill="#fcbc04" r="1"/><path d="m55 57h-1a1 1 0 0 1 0-2h1a1 1 0 0 1 0 2z" fill="#5ba006"/></g><g><path d="m14.108 49.133a3 3 0 0 0 .737-1.226 4 4 0 0 0 -.845-7.907 3 3 0 1 0 -3.819 2.872 3.973 3.973 0 0 0 -.181 1.128 4.057 4.057 0 0 0 .072.719 2.909 2.909 0 0 0 -1.014 2.834 1.995 1.995 0 0 0 -.279 3.808 4.9 4.9 0 0 0 -.69 1.753 3.987 3.987 0 0 0 -2.56 1.933 2.993 2.993 0 1 0 1.849 5.6 3.957 3.957 0 0 0 5.1-1.7 4.8 4.8 0 0 0 .522.053 5 5 0 0 0 1.108-9.867z" fill="#93999a"/><path d="m18 44a3.963 3.963 0 0 0 -.536-1.966c-.154-.015-.306-.034-.464-.034a4.977 4.977 0 0 0 -4 2.019v-.019a3.973 3.973 0 0 1 .181-1.128 2.979 2.979 0 0 1 -.681-5.456 2.968 2.968 0 0 0 -1.5-.416 2.992 2.992 0 0 0 -.819 5.872 3.973 3.973 0 0 0 -.181 1.128 4.057 4.057 0 0 0 .072.719 2.909 2.909 0 0 0 -1.014 2.834 1.995 1.995 0 0 0 -.279 3.808 4.9 4.9 0 0 0 -.69 1.753 3.987 3.987 0 0 0 -2.56 1.933 2.993 2.993 0 1 0 1.849 5.6 4.036 4.036 0 0 0 .992.281 2.993 2.993 0 0 1 .159-5.884 3.987 3.987 0 0 1 2.56-1.933c.021-.114.066-.217.094-.328a2 2 0 0 0 .964 1.016c-.029.117-.046.237-.067.357a2.988 2.988 0 0 0 -.219 5.614 4.08 4.08 0 0 0 .613-.826 4.8 4.8 0 0 0 .526.056 5 5 0 0 0 1.108-9.867 3 3 0 0 0 .737-1.226 4 4 0 0 0 3.155-3.907z" fill="#656b76"/><path d="m12 51a1 1 0 0 1 -.448-1.9l2-1a1 1 0 1 1 .894 1.79l-2 1a1 1 0 0 1 -.446.11z" fill="#2d72bc"/><circle cx="8" cy="58" fill="#2d72bc" r="1"/><circle cx="12" cy="46" fill="#e59730" r="1"/></g><path d="m24.15 34.95a.968.968 0 0 1 -.5.59l-.16.07a7.723 7.723 0 0 1 -3.44.81q-.33 0-.66-.03a7.345 7.345 0 0 1 -1.88-.4 1 1 0 1 1 .65-1.89 5.828 5.828 0 0 0 4.45-.28l.15-.08a.976.976 0 0 1 .44-.1z" fill="#fcbc04"/><path d="m27.31 39.31-4.87 3.52-4.1-5.68 1.05-.76 3.81-2.75.95 1.31z" fill="#f9e109"/><path d="m23.283 33.746a2.948 2.948 0 0 0 .513 3.275 2.984 2.984 0 0 0 -2.567 4.125l1.216 1.681 4.862-3.516z" fill="#fcbc04"/><g><g fill="#f9e109"><path d="m11.132 37.818a.993.993 0 0 1 -.707-.293l-4.95-4.95a1 1 0 0 1 1.414-1.414l4.95 4.95a1 1 0 0 1 -.707 1.707z"/><path d="m13.96 34.989a.993.993 0 0 1 -.707-.293l-4.953-4.949a1 1 0 0 1 1.414-1.414l4.95 4.949a1 1 0 0 1 -.707 1.707z"/><path d="m6.536 37.465a1 1 0 0 1 -.707-1.707l6.363-6.364a1 1 0 1 1 1.414 1.414l-6.363 6.364a1 1 0 0 1 -.707.293z"/></g><path d="m12.607 24.737a8.944 8.944 0 0 0 5.656 5.656l-6.363.707z" fill="#d0d8da"/><path d="m15.384 29.824a2 2 0 0 1 -2.208-2.208l.145-1.307a8.9 8.9 0 0 1 -.714-1.572l-.707 6.363 6.364-.707a8.9 8.9 0 0 1 -1.572-.714z" fill="#93999a"/><path d="m4 33.343a8.943 8.943 0 0 1 5.657 5.657h-5.657z" fill="#d0d8da"/><path d="m9 38a4 4 0 0 1 -4-4v-.253a9 9 0 0 0 -1-.4v5.653h5.657a9 9 0 0 0 -.4-1z" fill="#93999a"/></g><g><path d="m52.263 46.071-6.928-4 4.268-11.393 10.392 6z" fill="#a1d51c"/><g fill="#7ab92d"><path d="m55.884 34.305-6.281-3.627-.885 2.363z"/><path d="m58.321 35.712-2.821 3.43a6 6 0 0 1 -7.64 1.384l-1.6-.922-.924 2.466 6.928 4 7.736-9.392z"/></g><path d="m49.076 27.955h10a2 2 0 0 1 2 2v2a0 0 0 0 1 0 0h-14a0 0 0 0 1 0 0v-2a2 2 0 0 1 2-2z" fill="#c4f236" transform="matrix(.985 .174 -.174 .985 6.023 -8.935)"/><path d="m52.774 30.4a3.988 3.988 0 0 1 -3.235-3.28l-.04-.007a2 2 0 0 0 -2.317 1.622l-.347 1.97 13.787 2.435.231-1.312z" fill="#a1d51c"/></g><g><path d="m45.448 51.238a4.934 4.934 0 0 0 .552-2.238 4.986 4.986 0 0 0 -2.118-4.075 3.932 3.932 0 0 0 -2.567-4.686 4 4 0 0 0 -3.315-6.239 3.994 3.994 0 0 0 -7.632-1.656 2.986 2.986 0 0 0 -3.568 4.677 2.989 2.989 0 0 0 -1.916 5.1 4.984 4.984 0 0 0 -1.312 1.609 4.963 4.963 0 0 0 -7.172 2.31 3.1 3.1 0 0 0 -.4-.04 3 3 0 0 0 -.677 5.916 1.986 1.986 0 0 0 .824 2.886c-.029.117-.046.237-.067.357a2.992 2.992 0 1 0 2.659 5.277 4.889 4.889 0 0 0 5.735-.866 2.96 2.96 0 0 0 4.175-1.189 4.875 4.875 0 0 0 1.271.495 4.981 4.981 0 0 0 8.16 0 4.935 4.935 0 0 0 1.488-.607 4.986 4.986 0 1 0 5.88-7.031z" fill="#d0d8da"/><g fill="#93999a"><path d="m48.865 54.913a5.032 5.032 0 0 1 -.865.087 4.981 4.981 0 0 1 -4.432-2.731 4.935 4.935 0 0 1 -1.488.607 4.981 4.981 0 0 1 -8.16 0 4.875 4.875 0 0 1 -1.271-.495 2.96 2.96 0 0 1 -4.175 1.189 4.889 4.889 0 0 1 -5.735.866 2.986 2.986 0 0 1 -3.711-4.672 5.488 5.488 0 0 1 -2.028-4.264c0-.165.01-.327.025-.487a4.8 4.8 0 0 0 -.625 1.027 3.1 3.1 0 0 0 -.4-.04 3 3 0 0 0 -.677 5.916 1.986 1.986 0 0 0 .824 2.886c-.029.117-.046.237-.067.357a2.992 2.992 0 1 0 2.659 5.277 4.889 4.889 0 0 0 5.735-.866 2.96 2.96 0 0 0 4.175-1.189 4.875 4.875 0 0 0 1.271.495 4.981 4.981 0 0 0 8.16 0 4.935 4.935 0 0 0 1.488-.607 4.985 4.985 0 0 0 9.432-2.269 4.923 4.923 0 0 0 -.135-1.087z"/><path d="m28 52a3 3 0 0 1 -2.916-2.323 1.987 1.987 0 0 1 -3.057-1.414 1.994 1.994 0 1 0 2.057 3.414 2.988 2.988 0 0 0 5.892-.435 2.98 2.98 0 0 1 -1.976.758z"/><path d="m31 48a1.993 1.993 0 0 1 -1.973-1.737 2 2 0 1 0 2.973 1.737 1.905 1.905 0 0 0 -.027-.263 1.972 1.972 0 0 1 -.973.263z"/><path d="m32.5 40.5a1.993 1.993 0 0 1 -1.973-1.737 2 2 0 1 0 2.973 1.737 1.905 1.905 0 0 0 -.027-.263 1.972 1.972 0 0 1 -.973.263z"/><path d="m36.5 40.5a1.993 1.993 0 0 1 -1.973-1.737 2 2 0 1 0 2.973 1.737 1.905 1.905 0 0 0 -.027-.263 1.972 1.972 0 0 1 -.973.263z"/></g><path d="m38 53a3.971 3.971 0 0 1 -2.828-1.172 1 1 0 0 1 1.414-1.414 2.047 2.047 0 0 0 2.828 0 1 1 0 0 1 1.414 1.414 3.971 3.971 0 0 1 -2.828 1.172z" fill="#656b76"/><circle cx="39" cy="47" fill="#7ab92d" r="1"/><circle cx="20" cy="57" fill="#e59730" r="1"/><circle cx="27" cy="45" fill="#fcbc04" r="1"/><path d="m33 57a1 1 0 0 1 -1-1v-1a1 1 0 0 1 2 0v1a1 1 0 0 1 -1 1z" fill="#2d72bc"/><path d="m22 47h-2a1 1 0 0 1 0-2h2a1 1 0 0 1 0 2z" fill="#f9e109"/><path d="m31 38a1 1 0 0 1 -.707-.293l-1-1a1 1 0 0 1 1.414-1.414l1 1a1 1 0 0 1 -.707 1.707z" fill="#4891d3"/></g><g fill="#7ab92d"><path d="m51.17 41.97-1.5 2.6-1.74-1 1.5-2.6a1 1 0 0 1 1.74 1z"/><path d="m53.93 33.18-2 3.46a1 1 0 0 1 -1.36.37 1 1 0 0 1 -.37-1.37l2-3.46z"/><path d="m57.4 35.18-2 3.46a1 1 0 1 1 -1.73-1l2-3.46z"/></g><path d="m55.67 34.18-2 3.46a1 1 0 0 0 .36 1.37 1.013 1.013 0 0 0 1.37-.37l2-3.46z" fill="#5ba006"/><path d="m53.93 33.18-2 3.46a1 1 0 0 1 -1.36.37 1 1 0 0 1 -.37-1.37l2-3.46z" fill="#5ba006"/><path d="m51.17 41.97-1.5 2.6-1.74-1 1.5-2.6a1 1 0 0 1 1.74 1z" fill="#5ba006"/><path d="m58.54 27.7-.18.98-1.97-.35.18-.98a2 2 0 0 0 -3.12-1.99 1.985 1.985 0 0 0 -.82 1.29l-.18.99-1.97-.35.18-.98a4 4 0 0 1 7.88 1.39z" fill="#7ab92d"/><g><path d="m30.4 25.1a1 1 0 0 0 -.366 1.366l1.085 1.881a2.006 2.006 0 0 0 1.215.932 2 2 0 0 1 1.414 2.449 2 2 0 0 0 .2 1.518l.586 1.014a2 2 0 0 0 2.732.733l1.732-1a2 2 0 0 0 .732-2.732l-.586-1.015a2 2 0 0 0 -1.214-.932 2 2 0 0 1 -1.415-2.449 2 2 0 0 0 -.2-1.518l-1.086-1.881a1 1 0 0 0 -1.366-.366z" fill="#4891d3"/><path d="m30.134 20.366h2a1 1 0 0 1 1 1v3a0 0 0 0 1 0 0h-4a0 0 0 0 1 0 0v-3a1 1 0 0 1 1-1z" fill="#84d2f4" transform="matrix(.866 -.5 .5 .866 -7.012 18.563)"/><path d="m38.268 32.991a2 2 0 0 1 -2.732-.733l-.586-1.014a2 2 0 0 1 -.2-1.518 2 2 0 0 0 -1.414-2.449 2.006 2.006 0 0 1 -1.215-.932l-.969-1.68-.75.433a1 1 0 0 0 -.366 1.366l1.085 1.881a2.006 2.006 0 0 0 1.215.932 2 2 0 0 1 1.414 2.449 2 2 0 0 0 .2 1.518l.586 1.014a2 2 0 0 0 2.732.733l1.732-1a2 2 0 0 0 .982-1.991z" fill="#2d72bc"/><path d="m29.9 21.5a.974.974 0 0 1 -.106-.671l-.528.3a1 1 0 0 0 -.366 1.371l1.5 2.6 3.464-2-.2-.349a2.989 2.989 0 0 1 -3.764-1.251z" fill="#57b7eb"/></g></g></g></g></svg>